<svg width="44" height="44" viewBox="0 0 44 44" fill="none" xmlns="http://www.w3.org/2000/svg">
<path d="M12.6372 7.57178H14.2025V9.28625H15.9147V4.16602H14.2025V5.85808H12.6372V4.16602H10.9258V9.28625H12.6372V7.57178Z" fill="white"/>
<path d="M18.1641 9.28625H19.8754V5.86503H21.3813V4.16602H16.6582V5.86503H18.1641V9.28625Z" fill="white"/>
<path d="M23.8063 6.7497L24.9854 8.56924H25.014L26.1907 6.7497V9.28625H27.8959V4.16602H26.1111L25.014 5.96779L23.9168 4.16602H22.1328V9.28625H23.8063V6.7497Z" fill="white"/>
<path d="M32.8662 7.59496H30.4594V4.16602H28.748V9.28625H32.8662V7.59496Z" fill="white"/>
<path d="M8.45898 11.5327L10.9067 38.9859L21.8943 42.0354L32.8904 38.9874L35.3427 11.5327H8.45898ZM30.0324 20.5107H21.9005H17.1472L17.4547 23.959H21.9005H29.7264L28.8032 34.2991L21.9005 36.2113L21.8958 36.2129L14.9978 34.2991L14.5164 28.8907H17.8959L18.1462 31.6961L21.8966 32.7098L21.9012 32.7082L25.6555 31.6945L26.0464 27.3276H21.9012H14.3766L13.4672 17.1451H21.9005H30.333L30.0324 20.5107Z" fill="white"/>
</svg>
