<svg width="86" height="83" viewBox="0 0 86 83" fill="none" xmlns="http://www.w3.org/2000/svg">
<path d="M55.2542 61.9833H49.2399C48.7799 62.0344 48.3159 61.9324 47.9197 61.6933C47.5235 61.4541 47.2171 61.091 47.0481 60.6602C44.8228 56.2079 42.4037 51.8258 40.3872 47.2182C38.6084 43.3825 37.8122 39.1645 38.0703 34.9443C38.3284 30.7241 39.6328 26.6345 41.8658 23.0441C42.1431 22.5747 42.7345 22 43.1872 22C43.64 22 44.1779 22.6265 44.4235 23.1126C50.4868 35.2414 56.5556 47.3747 62.6301 59.5124C63.5356 61.2516 63.1179 61.9649 61.1181 61.9833H55.2542ZM30.9081 61.9833H24.7317C22.9926 61.9833 22.61 61.2866 23.3752 59.7563C26.4937 53.5884 29.5838 47.4321 32.6455 41.2875C33.4808 39.5483 34.1407 39.5483 35.3052 40.9918C37.4747 43.5234 38.9912 46.5479 39.7221 49.8009C40.4531 53.0538 40.3763 56.4363 39.4985 59.6528C38.9238 61.8613 38.6097 62 36.3844 62L30.9081 61.9833Z" fill="#868788"/>
</svg>
