<svg width="86" height="83" viewBox="0 0 86 83" fill="none" xmlns="http://www.w3.org/2000/svg">
<path d="M30.3202 36.5947C30.255 38.6437 31.2791 39.551 31.3044 40.1272C31.2923 40.2445 31.2524 40.3572 31.1878 40.4559C31.1233 40.5545 31.0361 40.6363 30.9335 40.6944L29.7756 41.5049C29.6258 41.61 29.4491 41.6702 29.2663 41.6786C29.2274 41.6768 28.5254 41.8442 27.4137 39.3619C26.7354 40.2086 25.8724 40.8889 24.8907 41.3506C23.909 41.8124 22.8347 42.0434 21.7499 42.026C20.2772 42.1065 16.2861 41.1901 16.4915 36.9412C16.3476 33.4784 19.5726 31.3272 22.9078 31.509C23.5501 31.5109 24.8618 31.5425 27.1586 32.0762V30.6632C27.4019 28.2696 25.8288 26.4125 23.105 26.6911C22.8879 26.692 21.3501 26.6459 18.9583 27.6057C18.2925 27.9114 18.2075 27.8608 17.9859 27.8608C17.3156 27.8608 17.5915 25.9177 17.7199 25.6716C18.1912 25.0927 20.9638 24.0117 23.6849 24.027C25.5043 23.8661 27.3139 24.4277 28.7226 25.5902C29.2953 26.2307 29.7322 26.9807 30.0069 27.7948C30.2816 28.6089 30.3885 29.4702 30.3211 30.3267L30.3202 36.5947ZM22.5026 39.5248C25.4362 39.4822 26.6782 37.7183 26.9614 36.7684C27.1839 35.8593 27.1468 35.284 27.1468 34.2898C26.2721 34.0799 25.0129 33.8511 23.5682 33.8493C22.1977 33.7461 19.6947 34.3586 19.7924 36.7675C19.6802 38.2863 20.7983 39.608 22.5026 39.5248ZM37.9641 41.6099C37.2531 41.675 36.922 41.1702 36.8171 40.6718L32.3121 25.7775C32.2244 25.526 32.1665 25.2664 32.1384 25.0013C32.1218 24.892 32.1493 24.7806 32.2147 24.6916C32.2802 24.6025 32.3784 24.5431 32.4876 24.5264C32.5093 24.5228 32.2949 24.5264 34.5004 24.5264C35.2946 24.4468 35.5533 25.0719 35.6356 25.4645L38.8669 38.204L41.8666 25.4645C41.9145 25.1732 42.1325 24.4631 43.0245 24.5382H44.5768C44.7731 24.5219 45.5818 24.4929 45.7238 25.4762L48.747 38.3786L52.0823 25.4762C52.1257 25.279 52.3283 24.4477 53.2293 24.5382H55.0132C55.0901 24.5264 55.5695 24.4649 55.4881 25.3143C55.4492 25.4817 55.7966 24.35 50.7163 40.6836C50.6123 41.182 50.2803 41.6868 49.5693 41.6216H47.8786C46.8889 41.7257 46.7469 40.7478 46.7315 40.6492L43.7319 28.2443L40.7666 40.6365C40.7521 40.7351 40.6101 41.713 39.6195 41.609H37.9641V41.6099ZM62.7032 42.1192C62.1713 42.1201 59.6348 42.092 57.5144 41.0074C57.3032 40.918 57.1233 40.7678 56.9975 40.576C56.8717 40.3842 56.8058 40.1594 56.8079 39.93V38.9576C56.8079 38.1932 57.3688 38.3334 57.6067 38.4248C58.5149 38.792 59.0975 39.0706 60.2129 39.2932C63.5282 39.9743 64.9865 39.0851 65.3438 38.8879C66.5333 38.1814 66.6274 36.5649 65.8187 35.7263C64.8707 34.9312 64.4184 34.9013 61.0125 33.8266C60.5928 33.7099 57.0594 32.5955 57.0513 29.0901C56.9961 26.5355 59.3173 24.0081 63.3401 24.0289C64.4862 24.028 67.5402 24.4025 68.367 25.4419C68.4891 25.6309 68.5497 25.8534 68.5407 26.0787V26.9933C68.5407 27.3949 68.3941 27.5957 68.1001 27.5957C67.4027 27.5179 66.1652 26.5853 63.6531 26.6233C63.0298 26.5907 60.0446 26.7056 60.1785 28.8821C60.1396 30.5972 62.5856 31.2404 62.8652 31.3146C66.1634 32.3069 67.2661 32.4715 68.575 33.9904C70.1255 36.0031 69.2897 38.3596 68.9685 39.0055C67.2426 42.3969 62.7792 42.121 62.7032 42.1192ZM66.3398 51.6049C60.0048 56.2835 50.8086 58.7739 42.9566 58.7739C32.3619 58.8437 22.1243 54.948 14.2562 47.8526C13.6655 47.3197 14.1865 46.5897 14.9048 46.9959C23.6328 51.9886 33.5148 54.6119 43.5699 54.6054C51.0788 54.5652 58.5058 53.0419 65.4243 50.1231C66.4899 49.6708 67.3936 50.8287 66.3398 51.6049ZM68.9803 48.5934C68.1698 47.5513 63.6178 48.1067 61.5797 48.3501C60.9655 48.4197 60.8615 47.8869 61.4178 47.4934C65.0426 44.9452 70.9958 45.6752 71.6796 46.5318C72.3626 47.3885 71.4942 53.3535 68.101 56.203C67.58 56.6435 67.0815 56.411 67.3131 55.8321C68.0766 53.9098 69.7908 49.6364 68.9803 48.5934Z" fill="white"/>
</svg>
