<svg width="86" height="83" viewBox="0 0 86 83" fill="none" xmlns="http://www.w3.org/2000/svg">
<path d="M44.3157 23.8785C44.54 23.2616 44.3057 22.5718 43.7521 22.2192C43.1984 21.8666 42.4742 21.946 42.0101 22.4101L30.8101 33.6101C30.6841 33.736 30.5834 33.8848 30.5132 34.0485L22.1132 53.6487C21.9278 54.081 21.9722 54.5777 22.2312 54.9708C22.4903 55.3637 22.9294 55.6 23.4 55.6H31.8C32.3887 55.6 32.9145 55.2318 33.1157 54.6785L44.3157 23.8785Z" fill="#868788"/>
<path d="M49.8744 28.4207C49.6424 27.9102 49.1282 27.5874 48.5677 27.6003C48.0071 27.6133 47.5083 27.9594 47.3001 28.48L41.7001 42.48C41.5186 42.9337 41.5868 43.4491 41.8799 43.84L49.1145 53.486L34.1572 58.4719C33.5058 58.6889 33.108 59.3464 33.218 60.0242C33.328 60.7021 33.9133 61.2 34.5999 61.2H62.5999C63.0759 61.2 63.5195 60.958 63.7771 60.5579C64.0347 60.1578 64.0713 59.6541 63.8745 59.2206L49.8744 28.4207Z" fill="#868788"/>
</svg>
