<svg width="86" height="83" viewBox="0 0 86 83" fill="none" xmlns="http://www.w3.org/2000/svg">
<path fill-rule="evenodd" clip-rule="evenodd" d="M66.2116 31.2705C66.2112 30.3972 66.0244 29.6255 65.6467 28.9631C65.2757 28.3118 64.72 27.7659 63.9747 27.3343C61.3384 25.8142 58.701 24.2961 56.0636 22.778L56.0621 22.7771C52.5451 20.7527 49.0281 18.7283 45.5137 16.6991C43.8555 15.7419 42.2479 15.7768 40.6021 16.7477C39.1263 17.6181 34.0869 20.5151 29.5156 23.1431L29.5155 23.1432L29.515 23.1435C26.5012 24.876 23.691 26.4915 22.2394 27.3323C20.7348 28.2033 20.0027 29.5363 20.0024 31.2689C20.0012 34.836 20.0012 38.4031 20.0012 41.9701C20.0012 45.5372 20.0012 49.1043 20 52.6715C20.0004 53.5257 20.1792 54.2824 20.5403 54.9348C20.9115 55.6058 21.4749 56.1667 22.2374 56.6081C23.6843 57.4461 26.4813 59.0538 29.4842 60.7798L29.4846 60.78C34.0642 63.4124 39.1227 66.32 40.6014 67.1925C42.2479 68.164 43.8556 68.1987 45.5142 67.2411C49.0795 65.1826 52.6474 63.129 56.2155 61.0754C58.8029 59.5862 61.3902 58.097 63.9767 56.6059C64.7392 56.1647 65.3026 55.6034 65.6738 54.933C66.0344 54.2806 66.2136 53.5239 66.2139 52.6695C66.2139 52.6695 66.2139 38.4049 66.2116 31.2705ZM49.7661 45.7172C48.4555 48.0415 45.9651 49.6122 43.1069 49.6122C40.2663 49.6122 37.79 48.0612 36.4727 45.7615C35.811 44.6076 35.4634 43.3003 35.4648 41.9701C35.4648 37.7496 38.8864 34.3282 43.1069 34.3282C45.9293 34.3282 48.3926 35.8599 49.7164 38.136L56.396 34.2897C53.741 29.7067 48.7843 26.6233 43.1069 26.6233C34.6309 26.6233 27.76 33.4944 27.76 41.9701C27.76 44.7507 28.4997 47.3583 29.7925 49.6075C32.4408 54.2148 37.4117 57.3171 43.1069 57.3171C48.8126 57.3171 53.7913 54.2023 56.4358 49.5815L49.7661 45.7172ZM63.2167 42.8322H64.9746V41.0745H63.2167V39.3166H61.4584V41.0745H59.7007V42.8322H61.4584V44.5905H63.2167V42.8322ZM56.8023 42.8322H58.5601V41.0745H56.8023V39.3166H55.0444V41.0745H53.2865V42.8322H55.0444V44.5905H56.8023V42.8322Z" fill="white"/>
</svg>
