<svg width="86" height="83" viewBox="0 0 86 83" fill="none" xmlns="http://www.w3.org/2000/svg">
<path fill-rule="evenodd" clip-rule="evenodd" d="M65.9977 31.1998C65.9973 30.3304 65.8114 29.5623 65.4354 28.9032C65.0661 28.2547 64.513 27.7114 63.7711 27.2817C61.1464 25.7683 58.5205 24.2568 55.8947 22.7454L55.8936 22.7448C52.3934 20.73 48.8932 18.7152 45.3955 16.6958C43.7451 15.743 42.1449 15.7779 40.5067 16.7444C39.0394 17.6096 34.033 20.4877 29.4869 23.1011L29.4865 23.1014L29.4862 23.1015C26.4807 24.8294 23.6764 26.4415 22.2291 27.2798C20.7314 28.1469 20.0027 29.4737 20.0023 31.1981C20.0012 34.7487 20.0012 38.2993 20.0012 41.8499C20.0012 45.4005 20.0012 48.951 20 52.5016C20 53.3519 20.1784 54.1053 20.5378 54.7545C20.9073 55.4224 21.4681 55.9807 22.2271 56.42C23.6672 57.2541 26.451 58.8542 29.4399 60.5722C33.9985 63.1925 39.0341 66.0869 40.506 66.9554C42.1449 67.9224 43.7451 67.957 45.3961 67.004C48.9497 64.9522 52.506 62.9053 56.0623 60.8584L56.0681 60.855C58.6367 59.3766 61.2054 57.8982 63.7731 56.4178C64.5321 55.9787 65.0929 55.42 65.4624 54.7527C65.8213 54.1033 66 53.3501 66 52.4996C66 52.4996 66 38.3011 65.9977 31.1998ZM56.3368 36.9308V39.3558H58.7619V36.9308H59.9744V39.3558H62.3995V40.5684H59.9744V42.9933H62.3995V44.2058H59.9744V46.6309H58.7619V44.2058H56.3368V46.6309H55.1243V44.2058H52.6994V42.9933H55.1243V40.5684H52.6994V39.3558H55.1243V36.9308H56.3368ZM58.7619 40.5682H56.3368V42.9933H58.7619V40.5682ZM57.9255 33.293C54.9675 28.1869 49.4452 24.7518 43.1199 24.7518L43.1197 24.7516C33.6765 24.7516 26.0215 32.4069 26.0215 41.8498C26.0215 44.9479 26.8456 47.8529 28.286 50.3588C31.2366 55.4919 36.7747 58.9482 43.1199 58.9482L43.3103 58.9472C49.562 58.879 55.0087 55.4544 57.9343 50.3916L50.5035 46.0868C50.5154 46.0662 50.5272 46.0455 50.5389 46.0247L50.5034 46.0868L50.5035 46.0868C49.0344 48.642 46.2788 50.364 43.1199 50.364C39.9551 50.364 37.1962 48.636 35.7286 46.074C34.9913 44.7884 34.6042 43.3319 34.6057 41.8498C34.6057 37.1478 38.4177 33.3358 43.1197 33.3358L43.2169 33.3364C46.3005 33.3709 48.9884 35.0464 50.4545 37.5288L57.8967 33.2438L57.9255 33.293Z" fill="white"/>
</svg>
