<svg width="86" height="83" viewBox="0 0 86 83" fill="none" xmlns="http://www.w3.org/2000/svg">
<path d="M36.1276 23H40.2096V24.707H37.8346V26.4141H40.2096V28.1211H36.1276V23Z" fill="white"/>
<path d="M41.026 23H45.1082V24.4844H42.7332V24.7813H45.1082V28.1953H41.026V26.6367H43.401V26.3399H41.026V23Z" fill="white"/>
<path d="M45.9244 23H50.0064V24.4844H47.6314V24.7813H50.0064V28.1953H45.9244V26.6367H48.2994V26.3399H45.9244V23Z" fill="white"/>
<path fill-rule="evenodd" clip-rule="evenodd" d="M43.2361 60.9999L32.2417 57.9477L29 30.4678H57.5L54.2607 57.9434L43.2361 60.9999ZM35.4083 42.9067L35.7104 46.277H47.3909L46.9997 50.6479L43.2407 51.6625L43.2373 51.6636L39.4838 50.6501L39.2439 47.9621H35.8606L36.3328 53.2541L43.2365 55.1705L50.15 53.2539L50.9927 43.8117L51.075 42.9067L51.6835 36.085H34.8014L35.1078 39.4553H47.9899L47.6832 42.9067H35.4083Z" fill="white"/>
</svg>
