<svg width="86" height="83" viewBox="0 0 86 83" fill="none" xmlns="http://www.w3.org/2000/svg">
<path fill-rule="evenodd" clip-rule="evenodd" d="M75 51.868C75 53.8313 73.4084 55.4229 71.4451 55.4229H14.5549C12.5916 55.4229 11 53.8313 11 51.868V31.5549C11 29.5916 12.5916 28 14.5549 28H71.4451C73.4084 28 75 29.5916 75 31.5549V51.868ZM22.0387 32.3064H25.0695V46.3352C23.5147 46.6303 22.3732 46.7484 21.1335 46.7484C17.4335 46.7484 15.5049 45.0758 15.5049 41.8676C15.5049 38.7779 17.5517 36.7705 20.7202 36.7705C21.2122 36.7705 21.5861 36.81 22.0388 36.9278L22.0387 32.3064ZM22.0387 39.368C21.6845 39.2501 21.3893 39.2107 21.0154 39.2107C19.4803 39.2107 18.5946 40.1554 18.5946 41.8083C18.5946 43.4224 19.4409 44.308 20.9957 44.308C21.3301 44.308 21.6058 44.2883 22.0387 44.2295V39.368ZM29.8909 44.0129V36.9867H26.8602V42.9695C26.8602 45.6066 26.7223 46.6106 26.2893 47.4764C25.876 48.3231 25.2266 48.8737 23.8883 49.5034L26.7026 50.8417C28.0408 50.1725 28.6904 49.5627 29.1825 48.5983C29.7138 47.5945 29.8909 46.4334 29.8909 44.0129ZM29.8909 32.3225H26.8602V35.4322H29.8909V32.3225ZM31.7216 37.6756C33.06 37.0457 34.3391 36.7704 35.7365 36.7704C37.2912 36.7704 38.3146 37.1836 38.7673 37.9906C39.023 38.4431 39.1017 39.0335 39.1017 40.2933V46.4531C37.7436 46.6501 36.0315 46.7878 34.7721 46.7878C32.2334 46.7878 31.0917 45.9019 31.0917 43.9342C31.0917 41.8083 32.6071 40.8245 36.3268 40.5094V39.8402C36.3268 39.2893 36.0513 39.0926 35.2837 39.0926C34.162 39.0926 32.9024 39.4074 31.7214 40.0175V37.6756H31.7216ZM36.4646 42.4973C34.4571 42.6944 33.8077 43.0091 33.8077 43.7963C33.8077 44.3867 34.1817 44.6623 35.0082 44.6623C35.461 44.6623 35.8741 44.6228 36.4646 44.5247V42.4973ZM45.3405 36.7704C43.8448 36.7704 42.3687 36.9867 40.5779 37.4593L40.5781 46.6302H43.6088V39.4272C44.2191 39.2501 44.593 39.2106 45.0062 39.2106C46.0886 39.2106 46.4821 39.6438 46.4821 40.8048V46.6303H49.5128V40.6869C49.5128 39.1711 49.3162 38.4626 48.6865 37.8135C48.0171 37.1243 46.8953 36.7704 45.3405 36.7704ZM50.6911 48.2834C51.754 48.8343 52.8167 49.0902 53.9384 49.0902C55.926 49.0902 56.7723 48.2834 56.7723 46.3547V46.2954C56.1819 46.5907 55.5914 46.7089 54.8044 46.7089C52.1475 46.7089 50.4547 44.9572 50.4547 42.1824C50.4547 38.7382 52.9543 36.79 57.3822 36.79C58.6813 36.79 59.8818 36.9276 61.3382 37.2226L60.3004 39.4091C60.186 39.3868 60.1028 39.3703 60.0424 39.3584C59.9128 39.3328 59.8885 39.3281 59.8878 39.3303C59.8877 39.3308 59.8888 39.3317 59.8902 39.3327C59.8995 39.3402 59.9211 39.3574 59.626 39.3289V39.6437L59.6652 40.9227L59.6848 42.576C59.6946 42.7819 59.6995 42.9879 59.7044 43.1939V43.1939C59.7094 43.4012 59.7143 43.6085 59.7243 43.8157V44.6424C59.7243 47.2403 59.5078 48.4606 58.8584 49.4641C57.9137 50.9402 56.2802 51.6684 53.9579 51.6684C52.7771 51.6684 51.7539 51.4911 50.691 51.0779L50.6911 48.2834ZM56.7134 39.2303H56.6151H56.3985C55.8083 39.2107 55.1195 39.368 54.647 39.6631C53.919 40.0767 53.5448 40.8243 53.5448 41.8873C53.5448 43.4028 54.2929 44.2685 55.631 44.2685C56.0443 44.2685 56.379 44.1898 56.7724 44.0718V43.8553V43.0288C56.7724 42.8585 56.7679 42.6792 56.7632 42.4929L56.7632 42.4926L56.7632 42.4923C56.7581 42.2911 56.7529 42.0819 56.7529 41.8676L56.7333 40.4702L56.7135 39.4666V39.2303H56.7134ZM70.924 41.7297C70.924 38.6402 69.074 36.7311 66.0433 36.7311C62.9535 36.7311 61.0247 38.7185 61.0246 41.9071C61.0246 44.977 62.8942 46.886 65.9252 46.886C68.9955 46.886 70.924 44.8983 70.924 41.7297ZM67.8342 41.8083C67.8342 43.4813 67.1453 44.4457 65.984 44.4457C64.8034 44.4457 64.1145 43.4814 64.1143 41.8083C64.1143 40.1358 64.8034 39.1712 66.004 39.1712C67.165 39.1712 67.8342 40.1554 67.8342 41.8083Z" fill="white"/>
</svg>
