<svg width="86" height="83" viewBox="0 0 86 83" fill="none" xmlns="http://www.w3.org/2000/svg">
<path d="M45.8951 29.0028H40.4371V33.9652H45.8951V29.0028Z" fill="#868788"/>
<path d="M45.8951 34.9646H40.4371V39.8692H45.8951V34.9646Z" fill="#868788"/>
<path d="M39.4463 29.0028H33.9884V33.9652H39.4463V29.0028Z" fill="#868788"/>
<path d="M52.352 34.9562H46.894V39.8609H52.352V34.9562Z" fill="#868788"/>
<path d="M45.8951 23H40.4371V28.012H45.8951V23Z" fill="#868788"/>
<path d="M32.9974 29.0028H27.5396V33.9652H32.9974V29.0028Z" fill="#868788"/>
<path d="M39.4463 34.9562H33.9884V39.8609H39.4463V34.9562Z" fill="#868788"/>
<path d="M68.7506 37.26C67.5615 36.459 64.8202 36.1701 62.7147 36.5666C62.4423 34.5849 61.3356 32.8591 59.3211 31.3067L58.1651 30.5387L57.397 31.6947C55.8776 33.9902 55.4649 37.7719 57.0916 40.2657C56.3734 40.6536 54.961 41.1822 53.0951 41.149H17.2017C16.4834 45.3438 17.6807 50.7934 20.835 54.5337C23.8983 58.1586 28.4892 60 34.4921 60C47.4888 60 57.1081 54.0139 61.6083 43.1389C63.3754 43.172 67.19 43.1473 69.1471 39.407C69.2709 39.2005 69.692 38.3169 69.8487 37.9949L68.7506 37.26Z" fill="#868788"/>
<path d="M26.557 34.9562H26.5487H21.0991V39.8609H26.557V34.9562Z" fill="#868788"/>
<path d="M32.9974 34.9562H27.5396V39.8609H32.9974V34.9562Z" fill="#868788"/>
</svg>
