<svg width="86" height="83" viewBox="0 0 86 83" fill="none" xmlns="http://www.w3.org/2000/svg">
<path d="M45.8951 29.0029H40.4371V33.9653H45.8951V29.0029Z" fill="white"/>
<path d="M45.8951 34.9646H40.4371V39.8692H45.8951V34.9646Z" fill="white"/>
<path d="M39.4463 29.0029H33.9884V33.9653H39.4463V29.0029Z" fill="white"/>
<path d="M52.352 34.9563H46.894V39.861H52.352V34.9563Z" fill="white"/>
<path d="M45.8951 23H40.4371V28.012H45.8951V23Z" fill="white"/>
<path d="M32.9974 29.0029H27.5396V33.9653H32.9974V29.0029Z" fill="white"/>
<path d="M39.4463 34.9563H33.9884V39.861H39.4463V34.9563Z" fill="white"/>
<path d="M68.7506 37.2599C67.5615 36.4589 64.8202 36.17 62.7147 36.5665C62.4423 34.5847 61.3356 32.859 59.3211 31.3066L58.1651 30.5386L57.397 31.6946C55.8776 33.9901 55.4649 37.7718 57.0916 40.2655C56.3734 40.6535 54.961 41.1821 53.0951 41.1489H17.2017C16.4834 45.3436 17.6807 50.7933 20.835 54.5336C23.8983 58.1585 28.4892 59.9999 34.4921 59.9999C47.4888 59.9999 57.1081 54.0137 61.6083 43.1388C63.3754 43.1719 67.19 43.1472 69.1471 39.4069C69.2709 39.2004 69.692 38.3168 69.8487 37.9948L68.7506 37.2599Z" fill="white"/>
<path d="M26.557 34.9563H26.5487H21.0991V39.861H26.557V34.9563Z" fill="white"/>
<path d="M32.9974 34.9563H27.5396V39.861H32.9974V34.9563Z" fill="white"/>
</svg>
