<svg width="86" height="83" viewBox="0 0 86 83" fill="none" xmlns="http://www.w3.org/2000/svg">
<g clip-path="url(#clip0_1346_242)">
<path d="M32.6541 31.4203C32.6541 29.9992 33.2186 28.6364 34.2234 27.6316C35.2283 26.6268 36.5911 26.0623 38.0121 26.0623H43.3701V36.7782H38.0121C36.5911 36.7782 35.2283 36.2137 34.2234 35.2089C33.2186 34.2041 32.6541 32.8413 32.6541 31.4203Z" stroke="#868788" stroke-width="3.06171" stroke-linecap="round" stroke-linejoin="round"/>
<path d="M43.3701 26.0623H48.7281C49.4317 26.0623 50.1284 26.2008 50.7785 26.4701C51.4286 26.7394 52.0192 27.134 52.5168 27.6316C53.0143 28.1291 53.409 28.7198 53.6782 29.3698C53.9475 30.0199 54.0861 30.7166 54.0861 31.4203C54.0861 32.1239 53.9475 32.8206 53.6782 33.4707C53.409 34.1207 53.0143 34.7114 52.5168 35.2089C52.0192 35.7065 51.4286 36.1011 50.7785 36.3704C50.1284 36.6397 49.4317 36.7782 48.7281 36.7782H43.3701V26.0623Z" stroke="#868788" stroke-width="3.06171" stroke-linecap="round" stroke-linejoin="round"/>
<path d="M43.3701 42.1356C43.3701 41.432 43.5087 40.7352 43.7779 40.0852C44.0472 39.4351 44.4419 38.8444 44.9394 38.3469C45.4369 37.8494 46.0276 37.4547 46.6777 37.1854C47.3277 36.9162 48.0245 36.7776 48.7281 36.7776C49.4317 36.7776 50.1284 36.9162 50.7785 37.1854C51.4286 37.4547 52.0192 37.8494 52.5168 38.3469C53.0143 38.8444 53.409 39.4351 53.6782 40.0852C53.9475 40.7352 54.0861 41.432 54.0861 42.1356C54.0861 42.8392 53.9475 43.5359 53.6782 44.186C53.409 44.8361 53.0143 45.4267 52.5168 45.9243C52.0192 46.4218 51.4286 46.8165 50.7785 47.0857C50.1284 47.355 49.4317 47.4936 48.7281 47.4936C48.0245 47.4936 47.3277 47.355 46.6777 47.0857C46.0276 46.8165 45.4369 46.4218 44.9394 45.9243C44.4419 45.4267 44.0472 44.8361 43.7779 44.186C43.5087 43.5359 43.3701 42.8392 43.3701 42.1356Z" stroke="#868788" stroke-width="3.06171" stroke-linecap="round" stroke-linejoin="round"/>
<path d="M32.6541 52.8509C32.6541 51.4299 33.2186 50.0671 34.2234 49.0622C35.2283 48.0574 36.5911 47.4929 38.0121 47.4929H43.3701V52.8509C43.3701 54.2719 42.8056 55.6348 41.8008 56.6396C40.796 57.6444 39.4331 58.2089 38.0121 58.2089C36.5911 58.2089 35.2283 57.6444 34.2234 56.6396C33.2186 55.6348 32.6541 54.2719 32.6541 52.8509Z" stroke="#868788" stroke-width="3.06171" stroke-linecap="round" stroke-linejoin="round"/>
<path d="M32.6541 42.1356C32.6541 40.7146 33.2186 39.3517 34.2234 38.3469C35.2283 37.3421 36.5911 36.7776 38.0121 36.7776H43.3701V47.4936H38.0121C36.5911 47.4936 35.2283 46.9291 34.2234 45.9243C33.2186 44.9194 32.6541 43.5566 32.6541 42.1356Z" stroke="#868788" stroke-width="3.06171" stroke-linecap="round" stroke-linejoin="round"/>
</g>
<defs>
<clipPath id="clip0_1346_242">
<rect width="36.7405" height="36.7405" fill="white" transform="translate(25 23)"/>
</clipPath>
</defs>
</svg>
