<svg width="86" height="83" viewBox="0 0 86 83" fill="none" xmlns="http://www.w3.org/2000/svg">
<path fill-rule="evenodd" clip-rule="evenodd" d="M69 41.9533C69 42.0097 68.9928 42.0645 68.9856 42.1194C68.9812 42.1525 68.9768 42.1856 68.9741 42.2191C68.9118 41.47 68.6044 40.7698 68.0682 40.2305L68.0662 40.2295L45.7557 17.9046C44.5521 16.6981 42.4458 16.6991 41.2463 17.9035L36.4055 22.7471L41.3541 27.6963C41.9864 27.3228 42.714 27.0937 43.5 27.0937C45.8429 27.0937 47.75 28.9998 47.75 31.3437C47.75 32.1405 47.516 32.8781 47.1331 33.5159L51.9528 38.3356C52.5908 37.9526 53.3284 37.7187 54.125 37.7187C56.4679 37.7187 58.375 39.6248 58.375 41.9687C58.375 44.3127 56.4679 46.2187 54.125 46.2187C51.7821 46.2187 49.875 44.3127 49.875 41.9687C49.875 41.1938 50.0989 40.4765 50.4627 39.8503L45.6184 35.0061C45.2904 35.1966 44.9381 35.3451 44.5625 35.4428V48.4947C46.39 48.9698 47.75 50.6189 47.75 52.5937C47.75 54.9377 45.8429 56.8437 43.5 56.8437C41.1571 56.8437 39.25 54.9377 39.25 52.5937C39.25 50.6189 40.61 48.9698 42.4375 48.4947V35.4428C40.61 34.9677 39.25 33.3185 39.25 31.3437C39.25 30.5581 39.4789 29.8309 39.8519 29.199L34.9035 24.2499L18.9318 40.2305C18.3957 40.7697 18.0883 41.4697 18.0259 42.2188C18.0232 42.1854 18.0188 42.1524 18.0145 42.1193C18.0072 42.0644 18 42.0096 18 41.9533C18 42.7904 18.321 43.5792 18.9038 44.1778C18.4593 43.721 18.1707 43.1527 18.0572 42.5376C18.2133 42.8645 18.4146 43.1711 18.678 43.4348L41.2208 65.9923C41.8289 66.6018 42.6383 66.9376 43.5 66.9376C44.3618 66.9376 45.1712 66.6018 45.7772 65.9934L68.3221 43.4348C68.5855 43.1711 68.787 42.8645 68.943 42.5376C68.8378 43.1082 68.5817 43.6385 68.1904 44.0769C68.7135 43.4919 69 42.7442 69 41.9533Z" fill="white"/>
</svg>
