<svg width="86" height="83" viewBox="0 0 86 83" fill="none" xmlns="http://www.w3.org/2000/svg">
<path d="M34.1788 26.4058H35.7441V28.1202H37.4563V23H35.7441V24.6921H34.1788V23H32.4674V28.1202H34.1788V26.4058Z" fill="#868788"/>
<path d="M39.7053 28.1202H41.4167V24.699H42.9226V23H38.1995V24.699H39.7053V28.1202Z" fill="#868788"/>
<path d="M45.3467 25.5837L46.5258 27.4032H46.5544L47.7311 25.5837V28.1202H49.4363V23H47.6515L46.5544 24.8018L45.4572 23H43.6732V28.1202H45.3467V25.5837Z" fill="#868788"/>
<path d="M54.4066 26.4289H51.9998V23H50.2885V28.1202H54.4066V26.4289Z" fill="#868788"/>
<path d="M30 30.3668L32.4477 57.82L43.4353 60.8696L54.4314 57.8215L56.8837 30.3668H30ZM51.5734 39.3448H43.4415H38.6882L38.9958 42.7931H43.4415H51.2675L50.3442 53.1332L43.4415 55.0455L43.4368 55.047L36.5388 53.1332L36.0574 47.7248H39.4369L39.6873 50.5302L43.4376 51.5439L43.4422 51.5423L47.1965 50.5286L47.5874 46.1617H43.4422H35.9176L35.0082 35.9792H43.4415H51.874L51.5734 39.3448Z" fill="#868788"/>
</svg>
