<svg width="86" height="83" viewBox="0 0 86 83" fill="none" xmlns="http://www.w3.org/2000/svg">
<path d="M35.828 55.7607C35.828 55.7607 33.7648 56.9622 37.2973 57.3672C41.5769 57.8577 43.7639 57.788 48.4777 56.8925C48.4777 56.8925 49.7198 57.671 51.45 58.346C40.8771 62.8753 27.5254 58.0805 35.828 55.7607ZM34.5343 49.8498C34.5343 49.8498 32.2212 51.5621 35.7538 51.9289C40.3259 52.3991 43.9349 52.4396 50.1833 51.2359C50.1833 51.2359 51.0473 52.1111 52.4041 52.5904C39.6261 56.3277 25.3879 52.8829 34.5343 49.8498ZM45.4244 39.8192C48.03 42.8185 44.7404 45.5185 44.7404 45.5185C44.7404 45.5185 51.3533 42.103 48.3157 37.8279C45.4784 33.8408 43.3027 31.8608 55.0816 25.0297C55.0816 25.0274 36.5953 29.6445 45.4244 39.8192ZM59.4062 60.1348C59.4062 60.1348 60.934 61.3925 57.7254 62.3645C51.6233 64.2141 32.327 64.7698 26.9696 62.4388C25.0436 61.5995 28.6572 60.4363 29.7912 60.1933C30.977 59.9368 31.6542 59.984 31.6542 59.984C29.5099 58.4742 17.803 62.9473 25.7074 64.2298C47.2627 67.7241 64.9975 62.6548 59.4062 60.1348ZM36.8203 43.723C36.8203 43.723 27.0056 46.054 33.3462 46.9C36.0215 47.2578 41.3586 47.1768 46.329 46.7605C50.3925 46.4185 54.4696 45.6873 54.4696 45.6873C54.4696 45.6873 53.0363 46.2993 51.9991 47.008C42.0336 49.6293 22.7801 48.4098 28.3242 45.73C33.0087 43.4665 36.8203 43.723 36.8203 43.723ZM54.4246 53.5646C64.5565 48.2996 59.8719 43.2392 56.6026 43.9232C55.8039 44.0897 55.4439 44.2337 55.4439 44.2337C55.4439 44.2337 55.7409 43.768 56.3101 43.5655C62.779 41.2907 67.7538 50.2728 54.2221 53.8302C54.2221 53.8279 54.3796 53.6907 54.4246 53.5646ZM48.3157 14C48.3157 14 53.9273 19.6116 42.9944 28.2427C34.2283 35.1661 40.9964 39.1149 42.9922 43.624C37.8756 39.0047 34.1203 34.9433 36.6381 31.161C40.3371 25.6057 50.5815 22.9146 48.3157 14ZM37.8148 67.8299C47.5395 68.4531 62.473 67.4856 62.8262 62.8843C62.8262 62.8843 62.1467 64.6281 54.7891 66.0141C46.491 67.5756 36.251 67.3934 30.1804 66.3921C30.1804 66.3899 31.4247 67.4204 37.8148 67.8299Z" fill="#868788"/>
</svg>
