<svg width="86" height="83" viewBox="0 0 86 83" fill="none" xmlns="http://www.w3.org/2000/svg">
<path d="M65.0115 18H41.9025C41.9025 23.76 46.5645 28.424 52.326 28.424H56.576V32.537C56.576 38.297 61.24 42.961 67 42.961V19.9885C66.9996 19.4612 66.7899 18.9557 66.4171 18.5829C66.0443 18.21 65.5387 18.0004 65.0115 18Z" fill="white"/>
<path d="M53.5605 29.52H30.451C30.451 35.2795 35.1135 39.9435 40.873 39.9435H45.125V44.0565C45.125 49.8165 49.789 54.4805 55.549 54.4805V31.508C55.5482 30.9809 55.3384 30.4756 54.9657 30.1028C54.593 29.7301 54.0876 29.5208 53.5605 29.52Z" fill="white"/>
<path d="M42.1095 41.0391H19C19 46.8011 23.662 51.4631 29.424 51.4631H33.674V55.5781C33.674 61.3381 38.338 66.0001 44.0975 66.0001V43.0296C44.097 42.5023 43.8874 41.9967 43.5148 41.6237C43.1421 41.2507 42.6368 41.0401 42.1095 41.0391Z" fill="white"/>
</svg>
