<svg width="86" height="83" viewBox="0 0 86 83" fill="none" xmlns="http://www.w3.org/2000/svg">
<path d="M33.0938 31.25H40.0313V49.75L35.4063 47.4375M53.9063 31.25H48.125C47.8184 31.25 47.5243 31.3719 47.3074 31.5887C47.0906 31.8055 46.9688 32.0996 46.9688 32.4063V39.3438C46.9688 39.6504 47.0906 39.9445 47.3074 40.1614C47.5243 40.3782 47.8184 40.5 48.125 40.5H51.4157C51.5812 40.5001 51.7448 40.5356 51.8954 40.6043C52.0459 40.673 52.18 40.7732 52.2885 40.8981C52.3971 41.0231 52.4775 41.1699 52.5244 41.3286C52.5713 41.4873 52.5836 41.6543 52.5604 41.8182L51.5938 48.5938L46.9688 49.75M62 22L57.375 55.5312L43.5 60.1563L29.625 55.5312L25 22H62Z" stroke="#868788" stroke-width="4.625" stroke-linecap="round" stroke-linejoin="round"/>
</svg>
