<svg width="86" height="83" viewBox="0 0 86 83" fill="none" xmlns="http://www.w3.org/2000/svg">
<path d="M42.6729 18.0055C36.877 17.895 31.3485 19.4243 26.6181 23.7976C16.7189 32.9533 16.4243 48.6294 25.9856 58.1229C27.7066 59.8318 29.7548 61.4127 32.0038 62.3755C32.5912 60.4003 32.4768 58.0158 32.2909 55.6717C32.2462 55.6255 32.2 55.5797 32.1659 55.5286C31.5375 54.5919 32.0038 52.1468 32.0038 51.0344C35.9563 51.7351 39.1756 53.9091 43.4069 52.6463C47.5477 51.4105 49.2736 45.4389 45.6229 42.612C43.4183 40.9039 40.1475 41.1368 37.5474 41.45C35.9859 41.6386 34.0361 42.2151 32.9582 40.5543C32.3219 39.5768 32.9786 37.1774 33.0855 36.0715C33.112 35.7927 33.1411 35.5087 33.1688 35.2288C33.4456 31.7944 33.905 28.3228 33.905 24.8865H50.6924V19.06C47.9972 18.4445 45.3074 18.0567 42.6729 18.0055Z" fill="white"/>
<path d="M50.5568 19.0493V29.3056H38.3413L37.7065 37.1937C40.4171 36.9812 42.9301 36.5028 45.6388 37.1395C47.4958 37.577 49.2388 38.4537 50.5284 39.8767C54.1276 43.8429 53.4193 51.2881 49.2872 54.6332C48.1245 55.5747 46.7959 56.1932 45.393 56.5909C44.0977 57.0049 42.7964 57.1802 41.4905 57.1923C41.0228 57.2177 40.5545 57.2308 40.0861 57.2317C38.0523 57.2317 36.0181 56.9674 34.0577 56.419C33.5593 56.2792 32.7881 56.0849 32.3034 55.7221C32.2007 55.7001 32.0977 55.6762 31.9951 55.6539L31.8371 62.2807C44.4265 68.9564 60.4643 61.8137 64.98 48.7123C68.7973 37.6406 62.8856 21.9554 50.5568 19.0493Z" fill="white"/>
</svg>
