<svg width="86" height="83" viewBox="0 0 86 83" fill="none" xmlns="http://www.w3.org/2000/svg">
<path d="M50.715 30.1855C48.8371 21.9011 44.923 19.6957 43.9246 18.1367C43.5129 17.4499 43.1482 16.7361 42.8329 16C42.7802 16.736 42.6833 17.1996 42.0577 17.7577C40.8017 18.8776 35.4673 23.2246 35.0183 32.6375C34.6001 41.4137 41.4702 46.8254 42.3779 47.3847C43.0758 47.7282 43.9258 47.3921 44.3404 47.0769C47.6522 44.804 52.1771 38.7446 50.7187 30.1855" fill="white"/>
<path d="M43.1175 42.7114C42.9445 44.8837 42.8206 46.1459 42.3815 47.3872C42.3815 47.3872 42.6698 49.4552 42.8722 51.6459H43.5885C43.7594 50.1032 44.0203 48.5719 44.3698 47.0597C43.4425 46.6034 43.1531 44.6175 43.1175 42.7114Z" fill="white"/>
<path d="M44.3686 47.061C43.4315 46.628 43.1604 44.6005 43.1187 42.7115C43.3505 39.5956 43.418 36.4696 43.3211 33.3465C43.272 31.7078 43.3444 18.1687 42.9175 16.1865C43.2095 16.8579 43.546 17.509 43.9246 18.1356C44.923 19.6958 48.8383 21.9012 50.715 30.1856C52.1771 38.73 47.6767 44.7734 44.3686 47.061Z" fill="white"/>
<path d="M74.9279 62.6051C74.6909 62.6051 74.4592 62.535 74.2619 62.4037C74.0646 62.2723 73.9106 62.0856 73.8191 61.8669C73.7277 61.6482 73.7029 61.4074 73.748 61.1747C73.793 60.942 73.9059 60.7278 74.0723 60.5591C74.2387 60.3904 74.4513 60.2746 74.6834 60.2263C74.9154 60.1781 75.1566 60.1995 75.3765 60.288C75.5964 60.3764 75.7852 60.5278 75.9193 60.7233C76.0534 60.9188 76.1266 61.1495 76.1299 61.3865C76.1342 61.5463 76.1062 61.7053 76.0475 61.854C75.9889 62.0027 75.9008 62.138 75.7885 62.2518C75.6763 62.3657 75.5422 62.4556 75.3943 62.5163C75.2464 62.577 75.0878 62.6072 74.9279 62.6051ZM74.9279 60.3099C74.7114 60.3084 74.4993 60.3713 74.3185 60.4905C74.1377 60.6097 73.9963 60.7799 73.9123 60.9795C73.8283 61.1791 73.8055 61.3992 73.8466 61.6118C73.8878 61.8244 73.9911 62.02 74.1435 62.1738C74.2959 62.3277 74.4906 62.4328 74.7028 62.476C74.915 62.5191 75.1353 62.4983 75.3357 62.4161C75.536 62.334 75.7075 62.1942 75.8284 62.0145C75.9493 61.8349 76.0141 61.6233 76.0147 61.4068C76.0175 61.2628 75.9914 61.1197 75.9379 60.986C75.8845 60.8524 75.8047 60.7308 75.7033 60.6285C75.602 60.5262 75.4811 60.4453 75.3479 60.3905C75.2148 60.3358 75.0719 60.3084 74.9279 60.3099ZM75.2177 62.1632L74.9077 61.4944H74.6577V62.1632H74.4758V60.6417H74.9243C75.2583 60.6417 75.3974 60.7866 75.3974 61.067C75.3974 61.2901 75.2924 61.4292 75.0968 61.472L75.417 62.161L75.2177 62.1632ZM74.6649 61.3372H74.9279C75.1409 61.3372 75.2221 61.2648 75.2221 61.0706C75.2221 60.8764 75.1446 60.8105 74.9048 60.8105H74.6649V61.3372Z" fill="white"/>
<path d="M57.0388 61.5095C57.3641 61.7696 58.014 61.8768 58.5871 61.8768C59.3297 61.8768 60.0579 61.7392 60.7694 61.0965C61.4939 60.4379 61.9924 59.4301 61.9924 57.821C61.9924 56.2748 61.4041 55.02 60.197 54.2853C59.5159 53.8571 58.6335 53.6883 57.6271 53.6883C57.3373 53.6883 57.0388 53.7035 56.8693 53.7803C56.7998 53.8352 56.7506 53.9117 56.7294 53.9977C56.699 54.273 56.699 56.3698 56.699 57.6094C56.699 58.8802 56.699 60.6524 56.7294 60.8698C56.7454 61.0538 56.8381 61.3769 57.0388 61.5124M53.9495 53C54.2125 53 55.2123 53.0456 55.6774 53.0456C56.5469 53.0456 57.1475 53 58.7726 53C60.1347 53 61.2809 53.3673 62.1003 54.0708C63.0915 54.9287 63.6218 56.122 63.6218 57.5761C63.6218 59.6424 62.6799 60.8364 61.733 61.5095C60.7911 62.2137 59.5659 62.6115 57.8206 62.6115C56.8917 62.6115 55.2971 62.5811 53.9661 62.5659H53.9386C53.8763 62.4434 54.0523 61.966 54.161 61.9536C54.5233 61.9131 54.6189 61.8986 54.7855 61.8297C55.0667 61.7145 55.1326 61.5711 55.1637 61.0661C55.2101 60.117 55.1949 58.9845 55.1949 57.6985C55.1949 56.7806 55.2101 54.9895 55.1797 54.423C55.1326 53.9491 54.9326 53.8267 54.5276 53.7347C54.2404 53.6737 53.9502 53.6277 53.6582 53.597C53.6278 53.505 53.8654 53.0898 53.9429 53" fill="white"/>
<path d="M67.4582 53.7767C67.3966 53.792 67.3191 53.9455 67.3191 54.0216C67.3031 54.573 67.2879 56.0112 67.2879 57.0059C67.2918 57.0249 67.3013 57.0424 67.3151 57.056C67.3289 57.0697 67.3464 57.079 67.3654 57.0827C67.5661 57.0979 68.0617 57.1139 68.4797 57.1139C69.0681 57.1139 69.4086 57.0371 69.5941 56.9451C70.0896 56.7002 70.3186 56.164 70.3186 55.583C70.3186 54.2513 69.3897 53.7463 68.0124 53.7463C67.8262 53.744 67.6401 53.7541 67.4553 53.7767M70.9692 59.8989C70.9692 58.5521 69.9781 57.787 68.1667 57.787C68.0899 57.787 67.5147 57.7717 67.3777 57.8022C67.3314 57.8174 67.285 57.8478 67.285 57.879C67.285 58.8433 67.2691 60.3887 67.3162 61.0009C67.3473 61.261 67.5335 61.6284 67.7646 61.7356C68.0124 61.8733 68.5696 61.9037 68.9565 61.9037C70.0244 61.9037 70.9692 61.3074 70.9692 59.8989ZM64.6615 53.0269C64.8013 53.0269 65.2129 53.0725 66.2656 53.0725C67.256 53.0725 68.061 53.0421 69.0188 53.0421C70.2106 53.0421 71.8509 53.471 71.8509 55.2461C71.8509 56.1155 71.2322 56.8226 70.4273 57.1595C70.3809 57.1747 70.3809 57.2052 70.4273 57.2204C71.5727 57.5102 72.5784 58.2152 72.5784 59.562C72.5784 60.8785 71.7582 61.7052 70.5664 62.2254C69.8418 62.5471 68.9413 62.6536 68.0305 62.6536C67.3343 62.6536 65.4679 62.5811 64.4304 62.5927C64.3217 62.5471 64.5296 62.0566 64.6224 61.9805C64.8601 61.9732 65.0959 61.9362 65.3244 61.8704C65.6954 61.7791 65.7396 61.6595 65.786 61.1082C65.8171 60.6336 65.8171 58.9346 65.8171 57.7254C65.8171 56.072 65.8331 54.9555 65.8171 54.4042C65.8019 53.976 65.6469 53.8376 65.3527 53.7615C65.1209 53.7152 64.734 53.6695 64.4246 53.6239C64.3471 53.5471 64.5854 53.0877 64.6622 53.0269" fill="white"/>
<path d="M9.14504 62.605C9.10517 62.507 9.08903 62.401 9.09794 62.2956C9.09447 62.2238 9.11076 62.1524 9.14504 62.0891C9.34523 62.0603 9.5436 62.0199 9.73914 61.9681C10.013 61.9 10.1159 61.7508 10.1318 61.4016C10.1768 60.5763 10.1797 59.028 10.1637 57.9398V57.9079C10.1637 57.7905 10.1637 57.6311 10.0188 57.5188C9.76412 57.3591 9.48762 57.237 9.19792 57.1566C9.06824 57.1182 8.99651 57.0501 9.00013 56.9704C9.00375 56.8907 9.08562 56.7965 9.25444 56.7632C9.70292 56.7175 10.8781 56.4371 11.3396 56.2241C11.3871 56.2861 11.4092 56.3638 11.4012 56.4415C11.4012 56.4893 11.394 56.54 11.3889 56.5922C11.3758 56.7458 11.3613 56.9204 11.3613 57.0943C11.3642 57.1154 11.3729 57.1353 11.3864 57.1518C11.3999 57.1682 11.4178 57.1806 11.438 57.1874C11.4582 57.1943 11.4799 57.1954 11.5006 57.1906C11.5214 57.1857 11.5404 57.1752 11.5555 57.1602C12.4344 56.4712 13.2219 56.2256 13.6255 56.2256C14.2899 56.2256 14.8072 56.5429 15.2078 57.1964C15.217 57.2122 15.2301 57.2254 15.2458 57.2346C15.2616 57.2439 15.2794 57.2489 15.2977 57.2493C15.3143 57.2492 15.3306 57.245 15.3452 57.2372C15.3598 57.2294 15.3724 57.2181 15.3817 57.2044C16.1896 56.5915 16.9902 56.2256 17.5263 56.2256C18.7928 56.2256 19.5499 57.174 19.5499 58.7614C19.5499 59.2178 19.5455 59.7967 19.5412 60.3365C19.5376 60.8103 19.534 61.2545 19.534 61.5617C19.534 61.6341 19.6339 61.8428 19.7839 61.8841C19.9694 61.9747 20.2367 62.021 20.5751 62.079H20.5881C20.6135 62.1703 20.5599 62.5246 20.5084 62.597C20.4244 62.597 20.3085 62.5898 20.1636 62.5825C19.9006 62.5695 19.5397 62.5514 19.1202 62.5514C18.2784 62.5514 17.8386 62.5673 17.4183 62.5948C17.3865 62.4898 17.3756 62.1507 17.414 62.0797C17.588 62.0525 17.7603 62.015 17.9299 61.9674C18.1979 61.879 18.2755 61.7573 18.2921 61.4016C18.2986 61.1487 18.3472 58.9208 18.261 58.3919C18.1813 57.8434 17.7683 57.2015 16.8648 57.2015C16.5294 57.2015 15.9881 57.3413 15.4723 57.7326C15.4403 57.7688 15.4223 57.8154 15.4216 57.8637V57.8746C15.4824 58.16 15.4824 58.4933 15.4824 58.9969C15.4824 59.2867 15.4824 59.5888 15.4788 59.8909C15.4752 60.5053 15.4723 61.0849 15.4824 61.5233C15.4824 61.8218 15.6628 61.8935 15.8085 61.9507C15.8874 61.9681 15.9497 61.9833 16.0128 61.9978C16.1338 62.0275 16.2598 62.058 16.4475 62.0877C16.4753 62.215 16.4728 62.347 16.4402 62.4731C16.4326 62.5205 16.414 62.5654 16.3859 62.6043C15.9179 62.5883 15.4375 62.5746 14.7441 62.5746C14.534 62.5746 14.1913 62.5832 13.8885 62.5912C13.6429 62.5977 13.411 62.6043 13.2792 62.605C13.2435 62.5208 13.2276 62.4296 13.2328 62.3384C13.2254 62.2524 13.2422 62.166 13.2813 62.0891L13.4675 62.0551C13.6298 62.0261 13.7704 62.0015 13.9022 61.9681C14.1312 61.8957 14.2174 61.7711 14.2341 61.4791C14.279 60.798 14.3138 58.8353 14.2174 58.3441C14.0537 57.5558 13.6052 57.1559 12.8836 57.1559C12.4612 57.1559 11.9272 57.3594 11.491 57.6862C11.4491 57.7271 11.416 57.7761 11.394 57.8304C11.3719 57.8846 11.3613 57.9428 11.3628 58.0014C11.3628 58.2354 11.3628 58.5136 11.3628 58.8121C11.3628 59.7975 11.3563 61.0241 11.3802 61.5544C11.3947 61.7182 11.4526 61.9123 11.7591 61.9833C11.8265 62.0029 11.9424 62.0217 12.0772 62.0442C12.1547 62.0572 12.2395 62.071 12.3271 62.087C12.355 62.2604 12.3408 62.4381 12.2858 62.605C12.1511 62.605 11.9852 62.5963 11.7953 62.5883C11.5055 62.5753 11.1433 62.5593 10.7339 62.5593C10.2499 62.5593 9.91303 62.5753 9.64278 62.5883C9.46093 62.597 9.30371 62.6043 9.14648 62.605" fill="white"/>
<path d="M24.6824 56.8806C24.4209 56.8752 24.1637 56.9475 23.9434 57.0885C23.4058 57.4153 23.1319 58.0681 23.1319 59.0274C23.1319 60.8227 24.0311 62.0769 25.3185 62.0769C25.6637 62.0878 26.0005 61.9686 26.2619 61.7429C26.6575 61.4205 26.8676 60.7611 26.8676 59.8381C26.8676 58.0695 25.9887 56.8806 24.681 56.8806M24.9287 62.7427C22.603 62.7427 21.7749 61.0365 21.7749 59.4403C21.7749 58.3253 22.2306 57.4537 23.1298 56.8487C23.7595 56.4589 24.4824 56.2452 25.2229 56.23C26.9973 56.23 28.2369 57.5059 28.2369 59.3338C28.2369 60.5757 27.7421 61.5567 26.8053 62.1696C26.3553 62.4449 25.5736 62.7427 24.9287 62.7427Z" fill="white"/>
<path d="M48.3598 56.8806C48.0978 56.8747 47.84 56.9471 47.6193 57.0885C47.0817 57.4153 46.8079 58.0681 46.8079 59.0274C46.8079 60.8227 47.707 62.0769 48.9945 62.0769C49.3407 62.0886 49.6785 61.9693 49.9407 61.7429C50.3363 61.4205 50.5457 60.7611 50.5457 59.8381C50.5457 58.0695 49.6676 56.8806 48.3598 56.8806ZM48.6076 62.7427C46.2819 62.7427 45.4537 61.0365 45.4537 59.4411C45.4537 58.3246 45.9095 57.4537 46.8093 56.8487C47.4387 56.4586 48.1614 56.2449 48.9017 56.23C50.6761 56.23 51.9157 57.5066 51.9157 59.3331C51.9157 60.5764 51.4209 61.5567 50.4841 62.1689C50.0342 62.4449 49.2524 62.7427 48.6076 62.7427Z" fill="white"/>
<path d="M40.5292 56.8197C39.8126 56.8197 39.3489 57.3855 39.3489 58.2615C39.3489 59.1374 39.7482 60.1786 40.8704 60.1786C41.0632 60.1786 41.4124 60.0931 41.5855 59.9025C41.8464 59.6627 42.0203 59.1671 42.0203 58.644C42.0203 57.5015 41.4638 56.8197 40.5328 56.8197M40.4401 62.8651C40.2376 62.8629 40.038 62.9128 39.8605 63.01C39.2932 63.3723 39.0302 63.7345 39.0302 64.1555C39.0302 64.5496 39.183 64.8633 39.512 65.1415C39.9104 65.4792 40.448 65.6436 41.1545 65.6436C42.5448 65.6436 43.1679 64.8959 43.1679 64.1555C43.1679 63.6396 42.9092 63.294 42.3767 63.0984C41.9666 62.9484 41.2812 62.8658 40.4422 62.8658M40.535 66.416C39.7003 66.416 39.099 66.2399 38.5853 65.8443C38.0854 65.4589 37.8608 64.8865 37.8608 64.4909C37.8662 64.236 37.9634 63.9916 38.1346 63.8026C38.2795 63.6374 38.6165 63.3281 39.3953 62.7926C39.4074 62.7875 39.4177 62.7789 39.4249 62.768C39.4321 62.757 39.4359 62.7442 39.4359 62.7311C39.4361 62.7164 39.4314 62.7021 39.4224 62.6905C39.4135 62.6789 39.4009 62.6707 39.3866 62.6673C38.7454 62.4217 38.552 62.0152 38.4933 61.7979C38.4933 61.7899 38.4933 61.7776 38.4868 61.7638C38.4686 61.6783 38.4513 61.5972 38.5679 61.5139C38.6577 61.4501 38.8012 61.3646 38.9548 61.274C39.1716 61.154 39.3796 61.0187 39.5772 60.869C39.5878 60.8576 39.5957 60.8439 39.6002 60.829C39.6047 60.8141 39.6057 60.7983 39.6032 60.7829C39.6007 60.7676 39.5947 60.7529 39.5856 60.7402C39.5766 60.7275 39.5648 60.7171 39.5511 60.7096C38.602 60.3908 38.1238 59.6859 38.1238 58.6085C38.1209 58.2726 38.199 57.9409 38.3516 57.6416C38.5043 57.3423 38.7268 57.0842 39.0004 56.8892C39.3823 56.5871 40.3408 56.2241 40.9617 56.2241H40.998C41.6363 56.2393 41.9963 56.3734 42.4948 56.5574C42.7784 56.6599 43.0788 56.7076 43.3802 56.698C43.9084 56.698 44.1395 56.5306 44.338 56.3357C44.3702 56.4235 44.3873 56.5161 44.3887 56.6096C44.4008 56.8323 44.3403 57.053 44.2163 57.2385C44.1083 57.3884 43.854 57.4971 43.6214 57.4971C43.5975 57.4971 43.5744 57.4971 43.549 57.4935C43.4266 57.4849 43.3053 57.4647 43.1867 57.4333L43.1273 57.4544C43.1085 57.4819 43.1208 57.5123 43.136 57.5514C43.1397 57.5591 43.1426 57.5671 43.1447 57.5754C43.1871 57.7687 43.2159 57.9648 43.2309 58.1622C43.2309 59.2888 42.7868 59.7793 42.3064 60.1431C41.842 60.4915 41.2905 60.7051 40.7125 60.7604C40.7002 60.7604 40.64 60.7654 40.527 60.7756C40.4546 60.7821 40.3604 60.7908 40.3466 60.7908H40.3328C40.2285 60.8198 39.9561 60.9495 39.9561 61.1907C39.9561 61.3907 40.0793 61.6392 40.6683 61.6841L41.0494 61.7109C41.8261 61.7653 42.7962 61.8326 43.2527 61.987C43.5555 62.0934 43.817 62.2927 44 62.5563C44.183 62.82 44.2782 63.1347 44.2721 63.4556C44.2721 64.4663 43.5533 65.4169 42.3499 65.9979C41.7824 66.269 41.161 66.4084 40.5321 66.4058" fill="white"/>
<path d="M36.9746 62.0659C36.6341 62.0203 36.3856 61.9739 36.0922 61.8363C36.0346 61.7766 35.9967 61.7008 35.9835 61.6189C35.9523 61.1444 35.9523 59.767 35.9523 58.8657C35.9523 58.1303 35.8292 57.4891 35.5176 57.0291C35.1459 56.5081 34.6199 56.2024 33.9389 56.2024C33.3354 56.2024 32.5304 56.6154 31.8653 57.1819C31.8494 57.1972 31.7472 57.2942 31.7494 57.1435C31.7516 56.9928 31.7747 56.6871 31.7892 56.4915C31.7957 56.4395 31.7898 56.3867 31.7722 56.3374C31.7546 56.2881 31.7257 56.2436 31.6878 56.2075C31.2531 56.4248 30.0337 56.7146 29.5823 56.7588C29.2534 56.8226 29.1701 57.1392 29.5215 57.2486H29.5265C29.8078 57.3262 30.0763 57.4443 30.3235 57.5993C30.4626 57.7065 30.4474 57.8594 30.4474 57.9818C30.4626 59.007 30.4626 60.5836 30.4163 61.4407C30.401 61.7776 30.3076 61.9 30.0598 61.9616L30.083 61.9536C29.8943 62.0009 29.7029 62.0367 29.5099 62.0609C29.4324 62.1369 29.4324 62.5811 29.5099 62.6731C29.6649 62.6731 30.4518 62.6275 31.1038 62.6275C32.0008 62.6275 32.4652 62.6731 32.6978 62.6731C32.7912 62.5659 32.8217 62.1529 32.7601 62.0609C32.5458 62.0512 32.3329 62.0204 32.1247 61.9689C31.8776 61.908 31.8153 61.7848 31.8001 61.5102C31.7697 60.7901 31.7697 59.2599 31.7697 58.2187C31.7697 57.9289 31.8465 57.7905 31.9392 57.7116C32.2486 57.4363 32.7601 57.2529 33.2086 57.2529C33.6433 57.2529 33.9331 57.3906 34.1504 57.5739C34.4036 57.7948 34.5623 58.1045 34.5939 58.439C34.6554 59.0186 34.6395 60.1844 34.6395 61.1922C34.6395 61.7435 34.5938 61.8819 34.3924 61.9428C34.2997 61.9884 34.0519 62.0348 33.7578 62.0652C33.665 62.1572 33.6954 62.5854 33.7578 62.6774C34.1599 62.6774 34.6272 62.6318 35.3053 62.6318C36.1566 62.6318 36.6986 62.6774 36.9152 62.6774C37.008 62.5702 37.0391 62.1703 36.9775 62.0652" fill="white"/>
</svg>
