<svg width="86" height="83" viewBox="0 0 86 83" fill="none" xmlns="http://www.w3.org/2000/svg">
<path d="M8 56.8021H10.2898V47.7218L13.8825 55.6177C14.2773 56.5653 14.8695 56.9206 16.0144 56.9206C17.1593 56.9206 17.6725 56.5653 18.1068 55.6177L21.66 47.7218V56.8021H23.9498V47.7218C23.9498 46.8532 23.5945 46.419 22.8444 46.1821C21.1073 45.6688 19.9229 46.1031 19.4096 47.2875L15.9354 55.1045L12.5402 47.2875C12.0269 46.1031 10.8425 45.6688 9.10543 46.1821C8.35532 46.419 8 46.8138 8 47.7218V56.8021Z" fill="#868788"/>
<path d="M25.8448 49.4195H28.1347V54.3939C28.1347 54.6703 28.2136 55.302 29.477 55.3414C30.1481 55.3414 34.4514 55.3414 34.4909 55.3414V49.38H36.7807C36.7807 49.38 36.7807 57.5128 36.7807 57.5523C36.7807 59.5658 34.2935 60.0001 33.1486 60.0001H25.9238V58.4603H33.1881C34.6488 58.3024 34.4909 57.5523 34.4909 57.3154V56.7232H29.5954C27.3056 56.7232 25.8448 55.6968 25.8448 54.5519C25.8448 54.4334 25.9238 49.459 25.8448 49.4195Z" fill="#868788"/>
<path d="M75.3524 43.6159C73.9312 43.5764 72.8652 43.7343 71.9177 44.0896C71.6414 44.2081 71.2466 44.2081 71.2071 44.5239C71.365 44.6818 71.365 44.8792 71.4834 45.0766C71.6808 45.432 72.0756 45.9057 72.3915 46.1426C72.7468 46.419 73.1416 46.6953 73.5364 46.9717C74.2075 47.4059 74.9971 47.6428 75.6683 48.0771C76.0631 48.314 76.4579 48.6298 76.8132 48.9062C77.0106 49.0641 77.129 49.2615 77.3659 49.3799V49.3405C77.2475 49.1825 77.208 48.9457 77.0896 48.7877C76.9316 48.6298 76.7342 48.4719 76.5763 48.2745C76.0631 47.6033 75.4314 46.9717 74.7603 46.4979C74.2075 46.1031 72.9442 45.5899 72.7468 44.9187C72.7468 44.9187 72.7468 44.9187 72.7073 44.8792C73.1021 44.8398 73.5364 44.7213 73.9312 44.6029C74.5234 44.445 75.0761 44.4844 75.7078 44.3265C75.9841 44.2476 76.2605 44.1686 76.5368 44.0896C76.5368 44.0502 76.5368 43.9712 76.5368 43.9317C76.221 43.6159 75.9841 43.1816 75.6683 42.9053C74.7603 42.1157 73.7733 41.3655 72.7468 40.7339C72.1941 40.3786 71.4834 40.1417 70.9307 39.8653C70.7333 39.7469 70.378 39.7074 70.2596 39.5495C69.9437 39.1547 69.7463 38.6414 69.5489 38.2072C69.0357 37.2202 68.5619 36.1542 68.0882 35.1277C67.7723 34.4566 67.5749 33.746 67.1801 33.1143C65.3641 30.1138 63.3901 28.2978 60.3501 26.5212C59.679 26.1658 58.9289 26.0079 58.0998 25.8105C57.6655 25.8105 57.2312 25.771 56.797 25.7316C56.5206 25.6131 56.2442 25.2578 55.9679 25.0999C54.9809 24.4682 52.3752 23.0864 51.6251 24.9025C51.1514 26.0474 52.3358 27.1923 52.7306 27.745C53.0464 28.1398 53.4017 28.6136 53.6386 29.0479C53.757 29.3637 53.7965 29.6795 53.9149 29.9954C54.1913 30.785 54.4677 31.6141 54.823 32.3642C55.0204 32.7195 55.2178 33.1143 55.4941 33.4696C55.6521 33.667 55.8889 33.746 55.9284 34.0618C55.6915 34.4171 55.6521 34.9303 55.5336 35.3646C54.9019 37.3386 55.1388 39.8258 56.0469 41.2866C56.3232 41.7209 56.9944 42.7079 57.9024 42.3131C58.692 41.9972 58.5341 41.0102 58.7315 40.1022C58.771 39.9048 58.7315 39.7469 58.8499 39.6284V39.6679C59.0868 40.1417 59.3237 40.6549 59.5605 41.1287C60.1133 41.9972 61.0608 42.9053 61.8504 43.4975C62.2847 43.8133 62.6005 44.366 63.1532 44.5634V44.5239C63.1532 44.5239 63.1532 44.5239 63.1137 44.5239C62.9953 44.366 62.8374 44.287 62.7189 44.1686C62.4031 43.8528 62.0478 43.458 61.8109 43.1027C61.0608 42.1157 60.4291 41.0102 59.8369 39.9048C59.5605 39.3521 59.3237 38.7599 59.0868 38.2072C58.9684 38.0098 58.9683 37.6939 58.8104 37.5755C58.5341 37.9703 58.1393 38.2861 57.9814 38.7599C57.6655 39.51 57.626 40.4575 57.5076 41.405C57.4286 41.405 57.4681 41.405 57.4286 41.4445C56.8759 41.2866 56.6785 40.7339 56.4416 40.2206C55.9284 38.9573 55.81 36.9438 56.2837 35.5225C56.4022 35.1672 56.9549 33.9828 56.718 33.6275C56.5996 33.3117 56.2442 33.1143 56.0469 32.8379C55.81 32.5221 55.5731 32.0878 55.4152 31.693C54.9809 30.706 54.7835 29.6006 54.3097 28.6136C54.1123 28.1398 53.7175 27.6661 53.4412 27.2713C53.1254 26.7975 52.7306 26.4422 52.4542 25.8895C52.3752 25.6921 52.2568 25.3763 52.3752 25.1789C52.4147 25.0209 52.4937 24.9815 52.6121 24.942C52.849 24.7446 53.4807 24.9815 53.7175 25.0999C54.3887 25.3763 54.9019 25.6131 55.4547 25.9684C55.6915 26.1264 55.9679 26.4817 56.2837 26.5606C56.4022 26.5606 56.5206 26.5606 56.639 26.5606C57.1918 26.6791 57.8234 26.6001 58.3762 26.758C59.3237 27.0739 60.1527 27.5082 60.9029 27.9819C63.1927 29.4427 65.1272 31.5351 66.3905 34.0223C66.5879 34.4171 66.7064 34.8119 66.8643 35.2067C67.2196 36.0753 67.6934 36.9438 68.0487 37.8124C68.404 38.6414 68.7593 39.4705 69.312 40.1812C69.5884 40.5365 70.6149 40.7339 71.1281 40.9313C71.4834 41.0892 72.0361 41.2471 72.352 41.405C72.9442 41.7603 73.5364 42.1946 74.1286 42.5894C74.4049 42.8263 75.313 43.2606 75.3524 43.6159Z" fill="#868788"/>
<path d="M57.3891 28.3372C57.0733 28.3372 56.8759 28.3766 56.6785 28.4161C56.6785 28.4161 56.6785 28.4161 56.6785 28.4556C56.6785 28.4556 56.6785 28.4556 56.718 28.4556C56.8759 28.732 57.1128 28.9294 57.2707 29.1662C57.4286 29.4426 57.5471 29.7189 57.6655 29.9953L57.705 29.9558C57.9418 29.7979 58.0603 29.4821 58.0603 29.0873C57.9418 28.9688 57.9418 28.8504 57.8629 28.732C57.7445 28.5346 57.5076 28.4556 57.3891 28.3372Z" fill="#868788"/>
<path d="M38.5573 56.8021H45.1899C45.9795 56.8021 46.6901 56.6442 47.3218 56.3679C48.3088 55.8941 48.7826 55.3019 48.7826 54.4728V52.7752C48.7826 52.104 48.2299 51.5118 47.1639 51.0776C46.6112 50.8802 45.9005 50.7617 45.1899 50.7617H42.4263C41.4788 50.7617 41.0445 50.4854 40.9261 49.8537C40.9261 49.7747 40.9261 49.6958 40.9261 49.6563V48.6298C40.9261 48.5903 40.9261 48.5114 40.9261 48.4324C41.0445 47.9587 41.2814 47.8402 42.1105 47.7613C42.1894 47.7613 42.2684 47.7613 42.3079 47.7613H48.8615V46.2216H42.4263C41.4788 46.2216 41.0051 46.261 40.5708 46.419C39.2285 46.8532 38.5968 47.5244 38.5968 48.7088V49.9721C38.5968 50.9986 39.7417 51.9066 41.7157 52.104C41.9131 52.104 42.15 52.104 42.3868 52.104H44.7556C44.8346 52.104 44.9136 52.104 44.9925 52.104C45.7031 52.183 46.019 52.3014 46.2559 52.5778C46.4138 52.7357 46.4138 52.8542 46.4138 53.0121V54.3544C46.4138 54.5123 46.2953 54.7097 46.0979 54.9071C45.9005 55.1045 45.5452 55.2229 45.1109 55.2229C45.032 55.2229 44.953 55.2229 44.8741 55.2229H38.5573V56.8021Z" fill="#868788"/>
<path d="M63.1137 54.1174C63.1137 55.6966 64.2981 56.5652 66.6669 56.7231C66.9038 56.7231 67.1012 56.7626 67.338 56.7626H73.339V55.2229H67.2986C65.9562 55.2229 65.443 54.907 65.443 54.078V46.182H63.1532L63.1137 54.1174Z" fill="#868788"/>
<path d="M50.2433 54.1965V48.7483C50.2433 47.3665 51.2303 46.4979 53.1648 46.261C53.3622 46.261 53.5991 46.2216 53.7965 46.2216H58.1787C58.4156 46.2216 58.613 46.2216 58.8499 46.261C60.7844 46.5374 61.7319 47.3665 61.7319 48.7483V54.1965C61.7319 55.3414 61.3371 55.9336 60.3896 56.3284L62.64 58.3813H59.9948L58.1787 56.7232L56.3232 56.8416H53.8755C53.4807 56.8416 53.0069 56.8021 52.5331 56.6837C50.954 56.2494 50.2433 55.4598 50.2433 54.1965ZM52.7305 54.078C52.7305 54.157 52.77 54.2359 52.77 54.3149C52.8885 54.9466 53.4807 55.3019 54.3887 55.3019H56.4811L54.5861 53.5648H57.2312L58.8894 55.065C59.2052 54.9071 59.4026 54.6307 59.4816 54.3149C59.4816 54.2359 59.4816 54.157 59.4816 54.078V48.8667C59.4816 48.7877 59.4816 48.7088 59.4816 48.6693C59.3631 48.0771 58.7709 47.7218 57.8629 47.7218H54.3887C53.3622 47.7218 52.6911 48.1561 52.6911 48.8667L52.7305 54.078Z" fill="#868788"/>
<path d="M74.3655 56.8022H74.6813V55.4994H75.1156V55.223H73.8917V55.4994H74.3655V56.8022ZM76.9317 56.8022H77.2475V55.2625H76.7737L76.3789 56.3285L75.9447 55.2625H75.4709V56.8022H75.7867V55.6178L76.221 56.8022H76.4579L76.8922 55.6178L76.9317 56.8022Z" fill="#868788"/>
</svg>
