<svg width="86" height="83" viewBox="0 0 86 83" fill="none" xmlns="http://www.w3.org/2000/svg">
<path d="M43.3826 65C42.771 65 42.1503 64.8357 41.6118 64.5253L35.9799 61.1937C35.1401 60.719 35.5508 60.5547 35.8247 60.4634C36.9474 60.0709 37.1756 59.9888 38.3714 59.3042C38.4992 59.2312 38.6635 59.2586 38.7912 59.3407L43.1179 61.9056C43.273 61.9969 43.4921 61.9969 43.6382 61.9056L60.4974 52.1753C60.6525 52.084 60.7529 51.9015 60.7529 51.7189V32.2583C60.7529 32.0666 60.6525 31.8931 60.4882 31.7927L43.6382 22.0715C43.483 21.9803 43.273 21.9803 43.1179 22.0715L26.2769 31.8019C26.1126 31.8931 26.0122 32.0757 26.0122 32.2674V51.7189C26.0122 51.9015 26.1126 52.084 26.2769 52.1662L30.8956 54.8315C33.4058 56.0821 34.9393 54.6125 34.9393 53.1246V33.9195C34.9393 33.6457 35.1583 33.4358 35.4322 33.4358H37.5681C37.8328 33.4358 38.061 33.6457 38.061 33.9195V53.1337C38.061 56.4746 36.2354 58.3914 33.0681 58.3914C32.0914 58.3914 31.3246 58.3914 29.1887 57.3326L24.7708 54.7859C23.6755 54.1561 23 52.9786 23 51.7098V32.2583C23 30.9986 23.6755 29.812 24.7708 29.1822L41.6118 19.4518C42.6797 18.8494 44.0946 18.8494 45.1534 19.4518L62.0126 29.1913C63.1079 29.8211 63.7834 30.9986 63.7834 32.2674V51.7189C63.7834 52.9786 63.1079 54.1561 62.0126 54.795L45.1534 64.5253C44.6148 64.8357 44.0033 65 43.3826 65ZM56.9923 45.8223C56.9923 42.1803 54.5277 41.2127 49.3522 40.5281C44.1128 39.8344 43.5834 39.4784 43.5834 38.2553C43.5834 37.2421 44.0307 35.8912 47.91 35.8912C51.3695 35.8912 52.6474 36.6396 53.1768 38.9764C53.2224 39.1955 53.4233 39.3598 53.6514 39.3598H55.8421C55.9791 39.3598 56.1069 39.305 56.1981 39.2046C56.2894 39.1042 56.335 38.9673 56.3259 38.8303C55.9882 34.8049 53.3137 32.9337 47.91 32.9337C43.0996 32.9337 40.2335 34.9601 40.2335 38.3648C40.2335 42.0525 43.0905 43.0748 47.7001 43.5312C53.2224 44.0697 53.6514 44.8821 53.6514 45.9684C53.6514 47.8487 52.1362 48.6519 48.5855 48.6519C44.1219 48.6519 43.1453 47.5292 42.8166 45.3111C42.7801 45.0738 42.5793 44.9004 42.3329 44.9004H40.1513C39.8775 44.9004 39.6675 45.1195 39.6675 45.3842C39.6675 48.2229 41.2101 51.6094 48.5946 51.6094C53.9253 51.6003 56.9923 49.4917 56.9923 45.8223Z" fill="#868788"/>
</svg>
