<svg width="86" height="83" viewBox="0 0 86 83" fill="none" xmlns="http://www.w3.org/2000/svg">
<path d="M31.3567 37.5443H29.154L27.9523 43.723H29.9077C31.205 43.723 32.171 43.478 32.8057 42.9903C33.4403 42.5003 33.8673 41.686 34.089 40.5427C34.3037 39.446 34.2057 38.6713 33.7997 38.221C33.3913 37.7707 32.5793 37.5443 31.3567 37.5443ZM43 27C27.537 27 15 33.594 15 41.728C15 49.862 27.537 56.4583 43 56.4583C58.463 56.4583 71 49.862 71 41.728C71 33.594 58.463 27 43 27ZM35.3933 44.3857C34.7843 44.969 34.0517 45.4077 33.2537 45.6713C32.4697 45.9233 31.4687 46.054 30.2553 46.054H27.4997L26.7367 49.9763H23.5213L26.3913 35.2157H32.5747C34.4343 35.2157 35.79 35.7033 36.644 36.681C37.498 37.6563 37.7547 39.019 37.414 40.769C37.2835 41.4615 37.0433 42.1286 36.7023 42.7453C36.3687 43.3403 35.9323 43.8887 35.3933 44.3857ZM44.7827 46.054L46.0497 39.523C46.1967 38.781 46.1407 38.2723 45.891 38.004C45.6413 37.7333 45.107 37.598 44.288 37.598H41.74L40.0973 46.0563H36.9053L39.7753 31.2933H42.965L42.202 35.218H45.044C46.8337 35.218 48.0657 35.5307 48.7447 36.1537C49.4237 36.7767 49.6267 37.787 49.3583 39.1847L48.0237 46.054H44.7827ZM62.509 40.769C62.3806 41.462 62.1403 42.1296 61.7973 42.7453C61.4637 43.3403 61.0273 43.8887 60.4883 44.3857C59.879 44.9672 59.1482 45.4063 58.3487 45.6713C57.5647 45.9233 56.5637 46.054 55.348 46.054H52.5947L51.8317 49.9787H48.6163L51.4863 35.218H57.6673C59.527 35.218 60.8827 35.7057 61.7367 36.6833C62.5907 37.6563 62.8497 39.019 62.509 40.769ZM56.454 37.5443H54.2537L53.0497 43.723H55.005C56.3047 43.723 57.2707 43.478 57.903 42.9903C58.5377 42.5003 58.9647 41.686 59.1887 40.5427C59.4033 39.446 59.303 38.6713 58.897 38.221C58.491 37.7707 57.6743 37.5443 56.454 37.5443Z" fill="#868788"/>
</svg>
