<svg width="86" height="83" viewBox="0 0 86 83" fill="none" xmlns="http://www.w3.org/2000/svg">
<path fill-rule="evenodd" clip-rule="evenodd" d="M22 20H65V63H22V20ZM30.4483 25.3624H26.0471V36.1883H28.3741V32.9506H30.1953C32.6235 32.9506 34.5459 31.6353 34.5459 29.1565V29.1059C34.5459 26.88 33.0283 25.3624 30.4483 25.3624ZM32.1683 29.1565C32.1683 30.0671 31.46 30.7753 30.2965 30.7753H28.4247V27.4871H30.2459C31.4094 27.4871 32.1683 28.0436 32.1683 29.1059V29.1565ZM35.4565 30.7752C35.4565 27.6894 37.7836 25.16 41.0718 25.16C43.0953 25.16 44.3094 25.8176 45.3212 26.8294L43.8036 28.5494C42.9941 27.7905 42.1341 27.3352 41.0718 27.3352C39.2506 27.3352 37.9353 28.8529 37.9353 30.6741V30.7247C37.9353 32.5458 39.2 34.1141 41.0718 34.1141C42.2859 34.1141 43.0447 33.6082 43.9047 32.8494L45.4224 34.367C44.3094 35.5305 43.0953 36.2894 41.0212 36.2894C37.8341 36.2894 35.4565 33.8611 35.4565 30.7752ZM26.0471 54.9565H42.1847V57.6377H26.0471V54.9565Z" fill="white"/>
</svg>
