<svg width="86" height="83" viewBox="0 0 86 83" fill="none" xmlns="http://www.w3.org/2000/svg">
<path d="M42.4779 19.0004C40.6019 19.0093 38.8102 19.1691 37.2337 19.4481C32.5898 20.2686 31.7467 21.9857 31.7467 25.1526V29.3353H42.721V30.7293H31.7466H27.6281C24.4387 30.7293 21.646 32.6463 20.7727 36.293C19.765 40.4731 19.72 43.0819 20.7727 47.4465C21.5529 50.6952 23.4155 53.0101 26.605 53.0101H30.3782V47.9959C30.3782 44.3741 33.5121 41.1786 37.2336 41.1786H48.1951C51.2464 41.1786 53.682 38.6665 53.682 35.6021V25.1525C53.682 22.1789 51.1732 19.9444 48.1951 19.448C46.31 19.1341 44.3538 18.9914 42.4779 19.0004ZM36.5431 22.3642C37.6766 22.3642 38.6025 23.305 38.6025 24.4617C38.6025 25.6144 37.6766 26.5468 36.5431 26.5468C35.4053 26.5468 34.4838 25.6144 34.4838 24.4617C34.4838 23.305 35.4053 22.3642 36.5431 22.3642Z" fill="white"/>
<path d="M55.0505 30.7292V35.6022C55.0505 39.3807 51.8477 42.5601 48.1952 42.5601H37.2336C34.2312 42.5601 31.7466 45.13 31.7466 48.1368V58.587C31.7466 61.5606 34.3326 63.3103 37.2336 64.1631C40.7076 65.1846 44.0383 65.3698 48.1951 64.1631C50.9578 63.3637 53.682 61.7534 53.682 58.587V54.4041H42.7209V53.0102H53.682H59.1689C62.3585 53.0102 63.5472 50.7858 64.656 47.4466C65.8018 44.0086 65.7532 40.7027 64.656 36.2931C63.8679 33.1184 62.3624 30.7294 59.1689 30.7294H55.0505V30.7292ZM48.8859 57.1924C50.0235 57.1924 50.9452 58.1241 50.9452 59.2768C50.9452 60.4335 50.0235 61.3747 48.8859 61.3747C47.7525 61.3747 46.8268 60.4335 46.8268 59.2768C46.8267 58.1241 47.7524 57.1924 48.8859 57.1924Z" fill="white"/>
</svg>
