<svg width="86" height="83" viewBox="0 0 86 83" fill="none" xmlns="http://www.w3.org/2000/svg">
<path d="M62.689 41.9174C62.689 46.6144 53.8043 50.4222 42.8445 50.4222C31.8847 50.4222 23 46.6144 23 41.9174C23 37.2203 31.8847 33.4126 42.8445 33.4126C53.8043 33.4126 62.689 37.2203 62.689 41.9174Z" stroke="white" stroke-width="2.83493"/>
<path d="M33.394 59.366C37.5241 61.6033 45.1038 55.6046 50.3239 45.9678C55.5439 36.331 56.4275 26.7052 52.2976 24.468C48.1675 22.2308 40.5877 28.2294 35.3676 37.8663C30.1476 47.5031 29.2639 57.129 33.394 59.366Z" stroke="white" stroke-width="2.83493"/>
<path d="M52.2976 59.366C48.1675 61.6033 40.5877 55.6046 35.3676 45.9678C30.1476 36.331 29.2639 26.7052 33.394 24.468C37.5241 22.2308 45.1038 28.2294 50.3239 37.8663C55.5441 47.5031 56.4275 57.129 52.2976 59.366Z" stroke="white" stroke-width="2.83493"/>
<path d="M40.0099 41.9174C40.0099 43.4831 41.2791 44.7524 42.8448 44.7524C44.4105 44.7524 45.6797 43.4831 45.6797 41.9174C45.6797 40.3517 44.4105 39.0825 42.8448 39.0825C41.2791 39.0825 40.0099 40.3517 40.0099 41.9174Z" stroke="white" stroke-width="2.83493"/>
</svg>
