<svg width="86" height="83" viewBox="0 0 86 83" fill="none" xmlns="http://www.w3.org/2000/svg">
<path d="M30.4417 40.5328C30.548 40.0555 30.6744 39.5835 30.8211 39.1168C30.9677 38.6507 31.134 38.1911 31.3192 37.7387C31.5046 37.2867 31.7093 36.8428 31.9325 36.4082C32.1558 35.973 32.3974 35.5484 32.6569 35.134C32.9069 34.7362 33.1711 34.3473 33.4489 33.9685C33.7274 33.5902 34.0197 33.2222 34.3253 32.8654C34.6305 32.5085 34.9493 32.163 35.2806 31.8293C35.6114 31.4959 35.9546 31.1751 36.3095 30.8675C36.0376 31.1032 35.7728 31.3466 35.5151 31.5978C35.258 31.8489 35.0075 32.1078 34.7646 32.3732C34.5218 32.6386 34.2873 32.9111 34.0599 33.1907C33.8331 33.4698 33.614 33.7554 33.4038 34.0469C33.5528 33.8391 33.7066 33.6349 33.8663 33.4348C34.026 33.2347 34.1905 33.0387 34.3603 32.847C34.5295 32.6552 34.7041 32.4682 34.8834 32.2859C35.0627 32.103 35.2468 31.9255 35.4356 31.7521C35.6261 31.5782 35.8209 31.4084 36.0204 31.2445C36.2193 31.08 36.4229 30.9209 36.6302 30.7671C36.8374 30.6133 37.0487 30.4649 37.2637 30.3218C37.4786 30.1787 37.6971 30.041 37.9191 29.9092C37.8408 29.987 37.7612 30.0636 37.6805 30.139C37.5997 30.2144 37.5178 30.2886 37.4352 30.3616C37.3527 30.4346 37.269 30.5065 37.1841 30.5777C37.0998 30.6484 37.0137 30.7178 36.927 30.7867C36.5654 31.0972 36.2567 31.4078 36.2086 31.6001C35.7307 32.032 35.2738 32.4865 34.8395 32.9622C34.4048 33.4371 33.9928 33.9329 33.6051 34.4477C33.218 34.9624 32.8552 35.495 32.518 36.0436C32.1813 36.5928 31.8708 37.1575 31.5876 37.7364C31.3032 38.317 31.0491 38.9125 30.8252 39.5193C30.602 40.1261 30.4096 40.7442 30.2493 41.3706C29.929 42.6247 29.7376 43.9083 29.6781 45.2013C29.6229 44.9876 29.5826 44.7703 29.5576 44.5506C29.5327 44.3309 29.5232 44.1101 29.5297 43.8892C29.5415 43.447 29.6155 43.0087 29.7494 42.5871C29.9685 41.8509 30.276 41.2269 30.4417 40.5328ZM43.1826 27.6809C42.701 27.8329 42.2248 28.0012 41.7546 28.1856C41.8692 28.1327 41.9856 28.0823 42.1026 28.0348C42.2195 27.9873 42.3377 27.9427 42.457 27.9006C42.5764 27.8584 42.6963 27.8192 42.8174 27.7824C42.9385 27.7456 43.0603 27.7118 43.1826 27.6809ZM49.1977 61.4488C49.7255 61.3912 50.2504 61.3105 50.7497 61.2297C50.6226 61.26 50.4944 61.2867 50.3661 61.3111C50.2373 61.3348 50.1085 61.3562 49.9784 61.3746C49.849 61.3924 49.719 61.4078 49.5889 61.4203C49.4589 61.4328 49.3283 61.4423 49.1977 61.4488ZM31.2569 47.1998L31.4884 48.0619C31.5716 48.6248 31.682 49.1835 31.8197 49.7363C31.9569 50.2884 32.1202 50.8341 32.3102 51.3708C32.6895 52.4451 33.1717 53.4802 33.75 54.4618C33.5792 54.187 33.4149 53.9083 33.2572 53.6258C33.0998 53.3432 32.9484 53.057 32.8041 52.7673C32.6605 52.4775 32.5227 52.1848 32.3927 51.8885C32.2621 51.5929 32.1386 51.2936 32.0222 50.9914C31.9058 50.6892 31.8025 50.3822 31.7117 50.0711C31.6214 49.76 31.5442 49.4453 31.4801 49.1283C31.416 48.8106 31.3649 48.4906 31.3281 48.1688C31.2907 47.847 31.267 47.5234 31.2569 47.1998ZM31.6185 44.7857C31.6214 44.2383 31.66 43.6915 31.733 43.1494C31.8061 42.6067 31.9135 42.0694 32.0554 41.541C32.1968 41.012 32.3725 40.493 32.5803 39.9866C32.7881 39.4807 33.0286 38.9879 33.2999 38.5124C33.0416 38.9939 32.8113 39.4896 32.61 39.9973C32.4093 40.5055 32.2377 41.0244 32.0964 41.5517C31.9545 42.0795 31.8441 42.6145 31.7639 43.1547C31.6844 43.695 31.6357 44.2395 31.6185 44.7857ZM60.1627 52.0114C60.1194 51.996 60.1069 51.9479 60.1087 51.8903C60.1128 51.8785 60.117 51.8654 60.12 51.8529C60.1229 51.8399 60.1259 51.8274 60.1277 51.8143C60.1295 51.8013 60.1306 51.7882 60.1306 51.7745C60.1312 51.7615 60.1312 51.7484 60.1301 51.7354C60.2322 51.5846 60.3319 51.432 60.4287 51.277C60.5249 51.1226 60.6187 50.9659 60.7095 50.808C60.7998 50.65 60.8877 50.4897 60.972 50.3288C61.0569 50.1673 61.1382 50.004 61.2166 49.8396C61.2124 49.8853 61.2071 49.9304 61.2006 49.9755C61.1946 50.0213 61.1875 50.0664 61.1798 50.1115C61.1721 50.1566 61.1637 50.2012 61.1542 50.2463C61.1447 50.2908 61.1346 50.3353 61.1234 50.3799C61.0866 50.447 61.0486 50.5135 61.0088 50.5788C60.9296 50.71 60.8448 50.8378 60.7547 50.9617C60.7095 51.0241 60.6632 51.0852 60.6157 51.1452C60.5688 51.2117 60.5237 51.2794 60.4809 51.3482C60.4382 51.4177 60.3984 51.4884 60.3604 51.5602C60.323 51.6326 60.288 51.7057 60.2553 51.7805C60.2227 51.8547 60.193 51.9307 60.1657 52.0073M48.6158 61.4844L48.56 61.5082C48.3783 61.5207 48.1978 61.5325 48.0197 61.5391L47.9544 61.5236C48.1747 61.5082 48.3938 61.4939 48.6158 61.4844ZM59.6444 52.7833C59.6254 52.7726 59.6064 52.7637 59.5862 52.7554C59.5666 52.7477 59.5458 52.7411 59.525 52.7364C59.5043 52.7316 59.4829 52.7281 59.4615 52.7263C59.4401 52.7245 59.4188 52.7245 59.3974 52.7257C59.6533 52.4152 59.8973 52.0833 60.1253 51.746L60.12 51.7823C60.1182 51.7941 60.1164 51.806 60.1152 51.8179C60.1134 51.8304 60.1122 51.8422 60.1111 51.8541C60.1099 51.8666 60.1093 51.8785 60.1087 51.8903C60.0261 52.1575 59.7251 52.4716 59.6426 52.7833M52.0428 57.5332C51.8042 57.6092 51.6314 57.8294 51.5245 57.9025C50.8572 57.9476 50.1987 57.9505 49.4381 57.9446C49.3235 58.0004 49.0766 58.0206 48.8438 58.1168C48.7007 58.0515 48.5505 57.9986 48.392 57.9446C48.8207 57.9494 49.2499 57.9339 49.6768 57.8983C50.1043 57.8627 50.53 57.8069 50.9521 57.7315C51.3743 57.6561 51.7929 57.5611 52.2061 57.4465C52.6193 57.3319 53.0266 57.1983 53.4274 57.0457C53.3164 57.0962 53.2042 57.1449 53.0914 57.1906C52.978 57.2369 52.864 57.2796 52.7488 57.3206C52.6336 57.361 52.5172 57.3996 52.4003 57.4346C52.2839 57.4702 52.1657 57.5029 52.0476 57.5332" fill="#868788"/>
<path d="M44.3718 30.2755C45.64 29.8658 47.0899 29.74 48.5006 29.7946C49.9119 29.8486 51.2947 30.0552 52.611 30.19C51.1801 29.6218 49.3437 29.3024 47.7988 29.2198C46.2545 29.1373 45.0237 29.1979 44.7025 28.8874C44.3813 28.5768 45.4909 28.2663 47.0305 28.2075C47.2359 28.2016 47.4414 28.1998 47.6462 28.2022C47.8516 28.2046 48.0565 28.2111 48.2619 28.2212C48.4667 28.2313 48.6716 28.2455 48.8758 28.2639C49.0801 28.2817 49.2843 28.3043 49.4879 28.3298C50.312 28.4296 51.0958 28.5845 51.7311 28.7057C51.4099 28.5614 51.4099 28.5614 51.0839 28.4266C51.411 28.5614 51.7311 28.7009 52.0475 28.6843C51.7395 28.5469 51.4257 28.4227 51.1071 28.312C51.0008 28.2752 50.8945 28.2396 50.787 28.2057C50.331 28.0508 49.9024 27.9124 49.7148 27.7789C49.9303 27.7337 50.1458 27.6981 50.3649 27.6625C49.4897 27.2772 48.1437 27.0414 46.7728 27.0028C45.4025 26.9637 44.0161 27.0866 43.0008 27.102C43.6314 27.0302 44.2637 26.9815 44.8978 26.9565C45.5313 26.931 46.166 26.9298 46.8001 26.9518C47.4336 26.9738 48.0666 27.0195 48.6971 27.0883C49.3276 27.1578 49.9552 27.2504 50.5792 27.3656C51.2478 27.4927 51.9104 27.653 52.5635 27.8454C53.2166 28.0371 53.8596 28.2622 54.4907 28.5175C55.1213 28.7734 55.7393 29.0607 56.342 29.3772C56.9446 29.694 57.5312 30.0406 58.0994 30.4156C58.6914 30.8063 59.2608 31.2308 59.804 31.6868C60.3473 32.1428 60.8639 32.629 61.3519 33.1444C61.8394 33.6592 62.2971 34.2018 62.7228 34.7695C63.1479 35.3371 63.541 35.9284 63.899 36.5406C64.2547 37.1509 64.5735 37.782 64.8537 38.4304C65.134 39.0788 65.3744 39.7431 65.5745 40.4206C65.7752 41.098 65.9343 41.7868 66.0519 42.4832C66.1694 43.1797 66.2454 43.8826 66.2787 44.588C66.3838 46.0895 66.3238 47.597 66.1 49.0849C65.8755 50.5729 65.4884 52.0317 64.9458 53.4352C64.4031 54.8382 63.7072 56.1776 62.8719 57.4286C62.0365 58.6796 61.0657 59.8356 59.978 60.8747C59.8147 61.0106 59.6473 61.1424 59.4769 61.2695C59.3065 61.3971 59.1331 61.52 58.9562 61.6376C58.6024 61.8742 58.2361 62.0916 57.859 62.2889C57.628 62.413 57.3947 62.5318 57.1584 62.6458C56.9221 62.7592 56.6834 62.8672 56.4423 62.9699C56.2007 63.0726 55.9572 63.1694 55.7114 63.2609C55.4662 63.3523 55.2186 63.4384 54.9687 63.5185C51.8397 64.7731 48.361 65.2142 44.94 64.9049C41.3016 64.4394 37.8912 62.7983 35.1606 60.3545C32.4306 57.9102 30.3223 54.65 29.1538 50.9403C28.9128 50.2029 28.8866 49.2601 29.0452 48.9822C29.1224 48.8427 29.2387 48.8646 29.3955 49.1378C29.5522 49.4109 29.7541 49.9452 30.0771 50.802C30.3561 51.505 30.6708 52.1931 31.0187 52.8646C31.3661 53.5355 31.7472 54.1892 32.1605 54.8227C32.5736 55.4557 33.0179 56.0678 33.4916 56.6568C33.966 57.2458 34.4689 57.811 34.9991 58.3495C34.7943 58.305 34.4606 58.0004 34.1269 57.64C34.0521 57.5539 33.9767 57.4684 33.8995 57.3841C33.7455 57.2156 33.5871 57.0511 33.4245 56.8907C33.3432 56.8112 33.2607 56.7322 33.177 56.6544C33.3242 56.8765 33.4774 57.0956 33.6359 57.3099C33.7944 57.5248 33.9589 57.735 34.1281 57.9416C34.2973 58.1482 34.4713 58.3501 34.6512 58.5478C34.8305 58.7449 35.0151 58.9379 35.2039 59.1261C35.3922 59.3125 35.5845 59.4942 35.7817 59.6706C35.9788 59.8475 36.1806 60.0191 36.3867 60.1853C36.5921 60.3516 36.8023 60.5125 37.0166 60.668C37.2309 60.8236 37.4489 60.9738 37.6709 61.1181C37.0464 60.7117 36.4461 60.2692 35.8731 59.7929C35.5863 59.5548 35.3067 59.309 35.0347 59.0549C34.7622 58.8007 34.4974 58.5383 34.2403 58.2688C34.5746 58.6208 34.9225 58.9605 35.2823 59.2864C35.6415 59.6124 36.0132 59.9253 36.3962 60.2239C36.7791 60.5226 37.1728 60.807 37.5765 61.0765C37.98 61.3466 38.3935 61.6013 38.8162 61.8401C39.6979 62.3388 40.6206 62.7615 41.5741 63.1035C42.0503 63.2745 42.5336 63.4259 43.0228 63.5559C43.512 63.686 44.0066 63.7952 44.5054 63.8837C45.2333 64.0232 45.8947 64.304 46.6659 64.4923C46.8868 64.5504 47.1112 64.5938 47.3375 64.6211C47.5643 64.6484 47.7923 64.6603 48.0202 64.6561C48.2488 64.6526 48.4762 64.633 48.7018 64.5974C48.9269 64.5623 49.1501 64.5113 49.3686 64.4454C48.6995 64.4465 48.0303 64.4133 47.3648 64.3462C46.699 64.2785 46.0371 64.1771 45.3817 64.0422C44.7263 63.9067 44.0783 63.7379 43.4402 63.5364C42.8019 63.3345 42.175 63.1 41.5604 62.834C40.9489 62.5686 40.3504 62.2747 39.7668 61.9523C39.1831 61.6305 38.6149 61.2802 38.0651 60.9037C37.5149 60.5274 36.9829 60.1249 36.471 59.6979C35.9592 59.2704 35.4682 58.8192 34.9991 58.3454C35.0021 58.3454 35.0045 58.3459 35.0068 58.3459H35.0229C35.0252 58.3459 35.0276 58.3454 35.0306 58.3454C34.6268 57.9446 34.2427 57.5254 33.8787 57.089C33.5148 56.6525 33.1714 56.1992 32.8498 55.7306C32.5281 55.2618 32.2284 54.7784 31.9515 54.2819C31.6754 53.7849 31.4219 53.2755 31.1933 52.7554C31.5038 53.3936 31.8826 54.0165 32.1646 54.5769C30.6684 51.5958 29.858 48.3813 29.8865 45.1319C29.9358 45.7078 30.0082 46.2813 30.1032 46.8519C30.1988 47.4219 30.3169 47.9883 30.4571 48.5488C30.5978 49.1099 30.7611 49.665 30.9457 50.2124C31.131 50.7604 31.3376 51.3001 31.5656 51.8315C32.0283 52.9126 32.5888 53.9492 33.2399 54.9284C33.5653 55.4177 33.9126 55.8921 34.2807 56.3498C34.6488 56.8079 35.0377 57.249 35.4462 57.6715C36.6771 58.946 38.0881 60.0332 39.6344 60.8984C40.1491 61.1864 40.6776 61.4488 41.2179 61.6851C42.2724 62.1446 43.3717 62.4936 44.4982 62.7265C45.0611 62.8435 45.6299 62.9307 46.2016 62.9883C46.774 63.0465 47.3481 63.0744 47.9235 63.0732C46.6689 62.8542 45.2267 62.7051 43.8439 62.3679C42.4611 62.0312 41.1603 61.5159 40.3095 60.8064C41.2202 61.2765 42.1687 61.6696 43.1451 61.9814C44.1214 62.2935 45.1222 62.5229 46.1369 62.6671C47.1516 62.812 48.177 62.8708 49.2018 62.8441C50.226 62.8168 51.2466 62.7039 52.2524 62.5062L51.3695 62.7716C51.7032 62.7455 52.0357 62.7051 52.3664 62.6505C52.697 62.5965 53.0252 62.5288 53.3502 62.4475C53.6749 62.3655 53.9967 62.2705 54.3138 62.1625C54.6303 62.0538 54.9432 61.9327 55.2495 61.7985C55.5577 61.6637 55.8623 61.5218 56.1633 61.3734C56.4643 61.2244 56.7618 61.0682 57.0551 60.9049C57.349 60.7417 57.6381 60.5719 57.9237 60.3943C58.2093 60.2174 58.4907 60.0339 58.7674 59.8433C58.9627 59.7145 59.1569 59.5839 59.3492 59.4461L58.7674 59.8433C58.2734 60.1669 57.764 60.4662 57.2415 60.7405C56.7184 61.0148 56.1829 61.2635 55.636 61.4862C55.0892 61.7088 54.5323 61.9048 53.9665 62.0734C53.4006 62.2426 52.8271 62.3839 52.2476 62.4967C53.2629 62.1862 54.331 61.8525 55.5802 61.3574C54.8553 61.5123 53.862 61.8074 52.8467 62.0016C52.5207 62.0853 52.1912 62.1595 51.8605 62.2236C51.5298 62.2877 51.1967 62.3418 50.8624 62.3863C50.5288 62.4302 50.1933 62.4647 49.8567 62.489C49.5206 62.5128 49.184 62.527 48.8467 62.5312C49.3425 62.5128 49.8365 62.4682 50.3269 62.397C51.3091 62.2546 52.2732 62.0076 53.2029 61.6602C53.6672 61.4862 54.122 61.2879 54.5655 61.0652C51.9513 61.9119 49.0919 62.267 46.3863 61.8418C46.758 61.8792 47.1302 61.9042 47.5037 61.9167C47.8766 61.9291 48.25 61.9285 48.6229 61.9155C48.9963 61.9024 49.3686 61.8769 49.7403 61.8389C50.1114 61.8009 50.4813 61.7498 50.8494 61.6863C51.4787 61.6127 52.1039 61.5028 52.7214 61.3568C53.9567 61.0649 55.1542 60.6318 56.2903 60.066C56.8579 59.7828 57.4083 59.4675 57.9397 59.1214L57.7022 59.2971C57.8667 59.1896 58.0252 59.0733 58.1837 58.9599C58.3927 58.8174 58.5988 58.6695 58.8012 58.5169C59.0037 58.3649 59.2026 58.2076 59.3979 58.0461C59.5927 57.884 59.7844 57.7178 59.9715 57.5474C60.1585 57.3764 60.342 57.2012 60.5213 57.0219C60.9839 56.5279 61.3937 55.9868 61.7438 55.4076C61.8607 55.2146 61.9706 55.0181 62.0733 54.8174L62.3232 54.4481C62.2241 54.7212 62.2057 54.8809 62.5453 54.4481C62.7305 54.2041 62.9057 53.9523 63.0702 53.6941C63.2346 53.4358 63.3884 53.171 63.5315 52.8996C63.6746 52.6289 63.8064 52.3522 63.9269 52.0708C64.0468 51.7894 64.1561 51.5026 64.2529 51.2123C64.6845 50.0135 65.001 48.7477 65.3394 47.4248C65.5146 46.7278 65.5567 45.7541 65.47 44.7204C65.4813 44.6741 65.489 44.6266 65.492 44.5791C65.4956 44.5316 65.495 44.4835 65.4902 44.436C65.4855 44.3885 65.4766 44.3416 65.4641 44.2953C65.451 44.2496 65.4344 44.2044 65.4136 44.1611C65.3893 43.939 65.3578 43.7158 65.324 43.4937C65.3109 43.3578 65.2949 43.2224 65.2759 43.087C65.2569 42.9517 65.2355 42.8169 65.2106 42.6827C65.1856 42.5485 65.1577 42.4149 65.1268 42.2819C65.096 42.1489 65.0627 42.0165 65.0259 41.8853C65.1328 42.4066 65.2402 42.9469 65.324 43.4937L65.3857 44.1053C65.3602 44.0614 65.337 44.0162 65.3162 43.9693C65.2955 43.923 65.2771 43.8755 65.2616 43.8268C65.2462 43.7781 65.2331 43.7289 65.223 43.679C65.2129 43.6291 65.2058 43.5787 65.2011 43.5276C65.2385 44.002 65.2557 44.477 65.2527 44.9525C65.2497 45.4275 65.2266 45.9031 65.1838 46.3763C65.1411 46.8495 65.0776 47.3209 64.995 47.7894C64.9119 48.2573 64.8098 48.7216 64.6875 49.1811C64.5628 49.6484 64.4197 50.1103 64.2576 50.5657C64.0961 51.0217 63.9156 51.4705 63.7179 51.9117C63.5202 52.3528 63.3047 52.7856 63.0719 53.2096C62.8392 53.6329 62.5892 54.0473 62.3232 54.4511C62.401 54.2243 62.5281 53.9155 62.5637 53.7784C62.4165 54.1328 62.2538 54.4772 62.0733 54.8204C61.894 55.0792 61.7081 55.3334 61.5158 55.5827C61.3234 55.8321 61.1245 56.0767 60.9203 56.316C60.7154 56.5553 60.5046 56.7898 60.2885 57.0184C60.0724 57.2475 59.8498 57.4708 59.6224 57.6881C59.6817 57.624 59.7387 57.5581 59.7939 57.491C59.9044 57.356 60.0069 57.2146 60.1009 57.0676C60.1478 56.9946 60.1929 56.9198 60.2357 56.8438C59.9191 57.1573 59.5909 57.459 59.2519 57.7481C58.9127 58.0368 58.5629 58.3128 58.2033 58.5757C57.8435 58.8382 57.4736 59.0869 57.0954 59.322C56.7167 59.557 56.3294 59.7776 55.9341 59.9835C55.5363 60.1901 55.1302 60.3813 54.7169 60.5564C54.3043 60.7316 53.8845 60.8907 53.4594 61.0338C53.0343 61.1769 52.6033 61.3033 52.1686 61.4126C51.7334 61.5224 51.2947 61.615 50.8523 61.691C50.0265 61.7872 49.1952 61.8217 48.3646 61.7943C47.534 61.767 46.7063 61.6786 45.8887 61.5284C45.0712 61.3787 44.2658 61.1685 43.4794 60.8996C42.6929 60.6305 41.9275 60.3035 41.1894 59.9211C41.583 60.1705 41.9891 60.3985 42.4059 60.6051C42.8233 60.8117 43.2514 60.9958 43.6878 61.1573C44.1248 61.3182 44.5695 61.4565 45.0207 61.5711C45.4719 61.6851 45.9291 61.7753 46.3899 61.8418C45.751 61.7779 45.1166 61.676 44.4899 61.5367C43.8631 61.3979 43.2451 61.2219 42.6393 61.0094C42.0332 60.7976 41.4404 60.5498 40.864 60.2673C40.2874 59.9851 39.7281 59.6689 39.1891 59.3203C38.6509 58.9742 38.1348 58.5951 37.6436 58.1851C37.1526 57.7748 36.6877 57.3348 36.2513 56.867C35.8149 56.3991 35.4082 55.9045 35.033 55.3862C34.6577 54.8679 34.3151 54.327 34.0076 53.7665C34.6969 54.4232 35.5923 55.2971 36.2145 55.4836C36.3018 55.3559 35.4124 54.1031 36.0364 54.7521C37.2143 55.8808 38.2468 56.7785 39.1932 57.4025C40.1402 58.0265 41 58.3465 41.7641 58.21C41.9191 58.1494 41.3479 57.5379 40.9507 56.9495C40.5535 56.3605 40.297 55.8279 40.7547 56.0458C41.0374 56.2091 41.3247 56.3647 41.6168 56.5113C41.9084 56.6574 42.2046 56.7951 42.5045 56.924C43.1048 57.1812 43.7201 57.4022 44.3468 57.586C44.4579 57.6287 44.5695 57.6697 44.6823 57.7083C44.7945 57.7469 44.9079 57.7831 45.0219 57.8175C45.1359 57.8514 45.2505 57.8834 45.3657 57.9131C45.4809 57.9428 45.5966 57.9707 45.713 57.9957C45.77 58.0265 45.8822 57.9956 46.0235 57.96C47.7151 58.2456 49.3437 58.1358 50.2426 58.055C50.5774 58.0313 50.9099 57.9861 51.2406 57.9351C51.281 57.9369 51.322 57.9398 51.363 57.9446C51.4033 57.9493 51.4437 57.9559 51.4841 57.9636C51.5239 57.9713 51.5636 57.9808 51.6034 57.9921C51.6426 58.0034 51.6818 58.0158 51.7198 58.0301C51.911 57.9137 52.1033 57.808 52.2957 57.7196C52.5124 57.6643 52.7273 57.6032 52.9405 57.5367C53.1536 57.4696 53.365 57.3972 53.5746 57.3188C53.7836 57.2398 53.9908 57.1561 54.1951 57.0659C54.3999 56.9762 54.6018 56.8806 54.8013 56.7803C54.92 56.7393 55.0382 56.6972 55.1551 56.6526C55.2727 56.6081 55.389 56.5618 55.5048 56.5131C55.6206 56.465 55.7358 56.4145 55.8498 56.3623C55.9638 56.31 56.0766 56.2554 56.1888 56.199C56.1455 56.1557 56.0338 56.1373 56.079 56.0346C56.3099 55.8808 56.5361 55.7187 56.7564 55.5495C56.9767 55.3803 57.1916 55.2045 57.4006 55.021C57.6096 54.8376 57.8121 54.6476 58.0086 54.4511C58.2051 54.2545 58.3951 54.0515 58.578 53.8425C58.6599 53.7718 58.743 53.703 58.8274 53.6353C58.9117 53.5676 58.9972 53.5011 59.0838 53.4364C59.1705 53.3717 59.2584 53.3087 59.3469 53.247C59.4359 53.1852 59.5256 53.1247 59.6164 53.0659C59.7589 52.411 60.2511 51.5477 60.7029 50.5461C61.1548 49.5445 61.549 48.4217 61.6743 47.4545H61.6541C61.6992 47.2117 61.7372 46.9677 61.7687 46.7225C61.8002 46.4772 61.8251 46.2314 61.8435 45.9856C61.8619 45.7392 61.8732 45.4922 61.8785 45.2453C61.8833 44.9983 61.8815 44.7513 61.8732 44.5043C61.9165 44.338 61.9664 44.1765 62.0282 44.0234C61.9213 43.7823 61.8874 43.5234 61.8269 43.4023C61.7924 42.6008 61.7539 41.9115 61.6713 41.2144C61.5924 41.1058 61.3608 40.93 61.2712 40.683C61.2332 40.5607 61.1928 40.4396 61.15 40.3191C61.1067 40.1985 61.0616 40.0786 61.0135 39.9599C60.9654 39.8411 60.9143 39.7236 60.8615 39.6072C60.8086 39.4908 60.7528 39.375 60.6952 39.261C60.6359 39.1257 60.5741 38.9909 60.5112 38.8573C60.4477 38.7238 60.3823 38.5912 60.3152 38.4595C60.2482 38.3283 60.1793 38.1971 60.108 38.0676C60.0374 37.9382 59.9643 37.8094 59.8895 37.6817C59.6349 37.2462 59.3583 36.8239 59.0607 36.4165C58.7632 36.0089 58.4449 35.6169 58.1072 35.2421C57.7693 34.8668 57.4125 34.5094 57.0384 34.171C56.6644 33.8325 56.2731 33.5131 55.8658 33.2151C55.8609 33.1724 55.8619 33.1292 55.8688 33.0868C55.8723 33.0654 55.8777 33.0447 55.8842 33.0245C55.8908 33.0043 55.8985 32.9841 55.908 32.9651C55.582 32.8885 55.2376 32.594 54.955 32.5174C55.0156 32.5174 55.0619 32.5038 55.0744 32.4604C54.9936 32.4343 54.9135 32.4052 54.8339 32.3743C54.7549 32.3435 54.6766 32.3096 54.6 32.2734C54.5228 32.2372 54.4468 32.1992 54.372 32.1582C54.2978 32.1173 54.2241 32.0739 54.1523 32.0288C54.087 31.9819 54.0211 31.9368 53.954 31.8928C53.8869 31.8489 53.8186 31.8061 53.7498 31.7652C53.6809 31.7242 53.6108 31.6844 53.5408 31.6464C53.4701 31.6084 53.3989 31.5716 53.3264 31.5366C53.2801 31.5271 53.2332 31.5182 53.1863 31.5105C53.1388 31.5027 53.0919 31.4956 53.0444 31.4891C52.9975 31.4831 52.95 31.4778 52.9025 31.4731C52.855 31.4683 52.8075 31.4647 52.76 31.4618C52.6733 31.4244 52.586 31.3935 52.4994 31.3579C51.6764 30.7214 50.6659 30.6436 49.5919 30.5456C49.3205 30.4993 49.0474 30.4607 48.7737 30.4299C48.5 30.399 48.2251 30.3758 47.9502 30.3604C47.6753 30.3444 47.3998 30.3367 47.1243 30.3367C46.8488 30.3367 46.5733 30.3444 46.2978 30.3592C45.4209 30.4245 45.0373 30.2678 44.389 30.2743" fill="#868788"/>
<path d="M61.3252 49.6003C61.4244 49.3809 61.518 49.1589 61.606 48.9347C61.6933 48.7103 61.7752 48.4835 61.8518 48.2555C62.0036 47.7982 62.132 47.3335 62.2365 46.8632C62.097 47.8844 61.9836 48.8486 61.3252 49.6003ZM40.348 55.4444C40.2976 55.3548 40.2459 55.2651 40.1919 55.1766C40.1384 55.0882 40.0832 55.0009 40.0262 54.9148C39.9692 54.8281 39.911 54.7432 39.8511 54.6589C39.7911 54.5746 39.73 54.4909 39.667 54.4089C40.0785 54.802 40.5161 55.1671 40.9762 55.502C41.4369 55.8363 41.919 56.1397 42.4201 56.4092C42.9213 56.6794 43.4402 56.9151 43.9728 57.1158C44.5053 57.3159 45.051 57.4803 45.6055 57.6074V57.6264C44.6912 57.4708 43.6314 57.041 42.7075 56.5672C41.7843 56.094 40.9738 55.5982 40.348 55.4444ZM60.1021 51.8903C60.1027 51.8785 60.1039 51.8666 60.105 51.8541L60.1086 51.8179C60.1104 51.806 60.1116 51.7941 60.1134 51.7823C60.1151 51.7704 60.1169 51.7579 60.1193 51.7461C60.1211 51.7855 60.1175 51.8251 60.1086 51.8636C60.1056 51.8767 60.1015 51.8891 60.0973 51.9016M34.6529 53.912L34.5087 53.6745C34.7108 53.9657 34.9213 54.251 35.1398 54.5301C35.2485 54.6696 35.3595 54.8073 35.4729 54.9439C35.5857 55.0805 35.7003 55.2152 35.8173 55.3482C35.708 55.239 35.6017 55.1274 35.4984 55.0128C35.3951 54.8982 35.2948 54.7806 35.198 54.6607C35.1008 54.5409 35.0068 54.4185 34.916 54.2938C34.8251 54.1687 34.7374 54.0414 34.6529 53.912ZM32.3617 46.748C32.3172 46.3918 32.2846 46.0344 32.2644 45.6763C32.2436 45.3177 32.2353 44.9591 32.2388 44.5999C32.243 44.2413 32.2584 43.8827 32.2869 43.5246C32.3148 43.1666 32.3546 42.8098 32.4069 42.4547C32.4918 42.0154 32.5992 41.5808 32.7299 41.1527C32.8599 40.7246 33.0131 40.3037 33.1882 39.8916C33.3628 39.4796 33.5599 39.0776 33.7772 38.6863C33.9945 38.2951 34.2326 37.9157 34.4903 37.5499C34.0907 38.2416 33.7432 38.962 33.4506 39.7052C33.1574 40.4483 32.9199 41.2121 32.7399 41.9904C32.56 42.7682 32.4377 43.5591 32.3748 44.3553C32.3114 45.1514 32.307 45.9512 32.3617 46.748ZM37.5266 52.0411C37.4785 51.9313 37.4328 51.8209 37.3889 51.7098C37.3449 51.5988 37.3028 51.4866 37.2624 51.3744C37.222 51.2616 37.184 51.1482 37.1478 51.0342C37.1116 50.9202 37.0772 50.8056 37.0451 50.6904C37.0932 50.7967 37.1425 50.903 37.1941 51.008C37.2452 51.1131 37.298 51.2176 37.3521 51.3209C37.4061 51.4248 37.4619 51.5276 37.5195 51.6291C37.5765 51.7312 37.6353 51.8321 37.6952 51.9325C37.599 51.8891 37.5711 51.9948 37.5266 52.0352M38.8103 58.0812L38.4653 57.8247C38.7883 58.0081 39.116 58.1803 39.4497 58.3359C39.3179 58.2955 39.024 58.1649 38.8103 58.0812ZM36.1028 47.2527C36.1402 47.5923 36.1919 47.9301 36.2584 48.2668C36.1729 48.0774 36.0827 47.8921 35.9758 47.7063C35.9918 47.6701 36.0061 47.6339 36.0191 47.5965C36.0322 47.5597 36.0441 47.5222 36.0542 47.4842C36.0643 47.4462 36.0726 47.4077 36.0797 47.3691C36.0868 47.3305 36.0927 47.2919 36.0969 47.2527M36.2816 42.0065C36.3106 41.8966 36.3415 41.788 36.3748 41.6799C36.408 41.5719 36.4436 41.4644 36.4811 41.3575C36.5185 41.2513 36.5576 41.145 36.5992 41.0399C36.6408 40.9348 36.6847 40.8303 36.7298 40.727C36.6871 40.8558 36.6461 40.9853 36.6069 41.1159C36.5677 41.2459 36.5303 41.3765 36.4953 41.5077C36.4597 41.639 36.4264 41.7708 36.395 41.9032C36.3635 42.0356 36.3338 42.168 36.3065 42.301C36.2768 42.168 36.2501 42.0587 36.2816 42.0065Z" fill="#868788"/>
<path d="M40.3967 20.5388C40.744 20.6902 41.0854 20.8564 41.4191 21.0369C41.7528 21.2168 42.0787 21.4116 42.3958 21.6194C42.7128 21.8278 43.021 22.0492 43.3196 22.2831C43.6183 22.5177 43.9062 22.7641 44.1841 23.0229C44.4501 23.2723 44.7066 23.5312 44.9536 23.7989C45.2006 24.0673 45.4375 24.3446 45.6637 24.6302C45.8899 24.9158 46.1054 25.2102 46.3103 25.5119C46.5145 25.8135 46.7081 26.1228 46.8891 26.4387C46.749 26.1976 46.6024 25.9607 46.4486 25.728C46.2948 25.4952 46.1339 25.2672 45.9671 25.044C45.8002 24.8208 45.6269 24.6023 45.447 24.3891C45.2677 24.176 45.0818 23.9676 44.8901 23.7651C45.0266 23.9094 45.159 24.0572 45.2879 24.208C45.4167 24.3594 45.5414 24.5138 45.6619 24.6711C45.783 24.8285 45.8994 24.9894 46.0122 25.1527C46.1244 25.3159 46.2331 25.4828 46.337 25.6514C46.4409 25.8224 46.5412 25.9958 46.6362 26.1715C46.7318 26.3478 46.8232 26.526 46.9093 26.7065C46.996 26.8864 47.078 27.0692 47.1557 27.2539C47.2329 27.4385 47.3059 27.625 47.3736 27.8132C47.3261 27.7419 47.2798 27.6695 47.2341 27.597C47.1884 27.5246 47.1439 27.451 47.1005 27.3774C47.0572 27.3032 47.015 27.2289 46.9741 27.1535C46.9325 27.0787 46.8927 27.0027 46.8535 26.9261C46.6718 26.6156 46.4824 26.3253 46.3382 26.26C46.0805 25.8325 45.8026 25.4169 45.5058 25.0155C45.2082 24.6142 44.892 24.227 44.5582 23.8554C43.8891 23.1125 43.151 22.435 42.3536 21.8319C41.9538 21.5293 41.5386 21.2475 41.1098 20.9876C40.6811 20.727 40.2393 20.4895 39.7857 20.2746C39.3327 20.0596 38.869 19.8678 38.3964 19.7004C37.9232 19.533 37.4423 19.3899 36.9548 19.2717C37.1258 19.2611 37.2974 19.2622 37.4684 19.2753C37.6388 19.289 37.8086 19.3145 37.976 19.3519C38.1429 19.3887 38.3073 19.438 38.4677 19.4985C38.6281 19.5587 38.784 19.6301 38.9343 19.7123C39.4633 19.989 39.892 20.3167 40.3967 20.5447M48.3052 32.1557C48.2601 31.7567 48.2025 31.3797 48.133 30.9926C48.1562 31.0882 48.1775 31.1838 48.1965 31.28C48.2155 31.3767 48.2322 31.4729 48.2464 31.5703C48.2607 31.6671 48.2731 31.7645 48.2826 31.8624C48.2927 31.9598 48.2999 32.0578 48.3052 32.1557ZM21.6965 31.7336C21.6627 32.1433 21.6454 32.5547 21.633 32.9525C21.6288 32.8504 21.6264 32.7489 21.627 32.6467C21.6288 32.3411 21.6521 32.036 21.6965 31.7336ZM35.1998 20.1784L34.5104 20.2265C34.0693 20.2069 33.6276 20.2086 33.1864 20.2312C32.7453 20.2544 32.3059 20.2983 31.8689 20.3636C31.4319 20.4283 30.9991 20.5144 30.5704 20.6213C30.1418 20.7282 29.719 20.8552 29.3028 21.0031C29.5373 20.9134 29.7736 20.8297 30.0123 20.7513C30.251 20.6729 30.4915 20.6005 30.7331 20.5334C30.9754 20.4669 31.2188 20.4058 31.464 20.35C31.7086 20.2947 31.955 20.2455 32.202 20.2015C32.449 20.1576 32.6984 20.1243 32.9483 20.1012C33.1983 20.078 33.4488 20.0656 33.7 20.0638C33.9511 20.062 34.2017 20.0709 34.4522 20.0905C34.7022 20.1095 34.9516 20.1398 35.1998 20.1801M36.9827 20.8119C37.8166 20.9784 38.6256 21.2516 39.3897 21.6247C39.7715 21.8111 40.1408 22.0219 40.4952 22.2558C40.8497 22.4892 41.1893 22.7457 41.5111 23.0229C41.1828 22.7546 40.8396 22.5058 40.4828 22.2772C40.1257 22.0489 39.7558 21.8414 39.3749 21.6556C38.9943 21.4697 38.603 21.3059 38.2034 21.1652C37.8039 21.0244 37.396 20.9069 36.9827 20.8137M27.2568 41.4815C27.2752 41.4518 27.3126 41.45 27.356 41.4595C27.3649 41.4643 27.3732 41.469 27.3827 41.4732C27.3916 41.4773 27.4005 41.4809 27.41 41.4838C27.4286 41.4909 27.4479 41.4956 27.4676 41.4981C27.5673 41.5984 27.6689 41.6964 27.7722 41.7926C27.8749 41.8888 27.98 41.9832 28.0868 42.0758C28.1937 42.1678 28.3018 42.2581 28.4116 42.3465C28.5221 42.435 28.6337 42.5211 28.7471 42.6054C28.6787 42.5841 28.6112 42.5604 28.5446 42.5342C28.5114 42.5211 28.4787 42.508 28.4455 42.4938C28.4128 42.4795 28.3801 42.4653 28.3481 42.4498C28.3024 42.4124 28.2572 42.3733 28.2133 42.3335C28.1694 42.2937 28.1266 42.2527 28.0845 42.2112C28.0421 42.1694 28.0007 42.1267 27.9604 42.0829C27.9199 42.0394 27.8803 41.9951 27.8416 41.9499C27.7983 41.9048 27.7532 41.8609 27.7069 41.8187C27.6605 41.7766 27.6125 41.7356 27.5632 41.697C27.5139 41.6578 27.4628 41.621 27.4112 41.5854C27.3595 41.5497 27.3061 41.5159 27.2521 41.4844M21.7618 31.2788L21.7511 31.2337C21.7695 31.0935 21.785 30.954 21.8081 30.8175L21.8283 30.7694C21.8081 30.9398 21.7868 31.1096 21.7618 31.2788ZM26.7444 40.972C26.7557 40.9596 26.7658 40.9465 26.7753 40.9329C26.7934 40.9051 26.8074 40.8749 26.8169 40.8432C26.821 40.8278 26.8246 40.8111 26.8269 40.7951C27.0282 41.0356 27.2396 41.2606 27.4628 41.4939C27.4545 41.4904 27.4456 41.4868 27.4367 41.4838C27.4278 41.4803 27.4189 41.4773 27.41 41.4743C27.4011 41.472 27.3922 41.469 27.3833 41.4666L27.356 41.4595C27.1654 41.3568 26.9712 41.0807 26.7444 40.972ZM24.2549 34.4802C24.2442 34.4404 24.2323 34.4006 24.2181 34.3614C24.2044 34.3222 24.189 34.2843 24.1724 34.2463C24.1552 34.2088 24.1367 34.1714 24.1166 34.1358C24.0964 34.0996 24.0744 34.064 24.0513 34.0301C24.1148 33.516 24.2068 33.0131 24.3273 32.4354C24.303 32.3392 24.3273 32.148 24.284 31.9568C24.3018 31.9319 24.3196 31.9069 24.3368 31.8814C24.3541 31.8559 24.3707 31.8304 24.3873 31.8042C24.4039 31.7787 24.4206 31.7526 24.436 31.7259C24.452 31.6997 24.4675 31.673 24.4829 31.6463C24.4164 31.9711 24.3647 32.2988 24.3291 32.6283C24.2929 32.9579 24.2727 33.2886 24.2674 33.6205C24.2626 33.9518 24.2727 34.2831 24.2988 34.6138C24.3244 34.9439 24.3659 35.2728 24.4223 35.6C24.4004 35.5073 24.3802 35.4147 24.3618 35.3215C24.344 35.2283 24.3279 35.1351 24.3137 35.0413C24.3 34.9475 24.2881 34.8536 24.2781 34.7592C24.268 34.6648 24.2602 34.5704 24.2549 34.4754" fill="#868788"/>
<path d="M46.1412 32.6748C46.1673 32.9438 46.1815 33.2134 46.1839 33.4841C46.1863 33.7543 46.1774 34.0244 46.1572 34.294C46.1364 34.5629 46.1043 34.8319 46.061 35.0985C46.0171 35.365 45.9624 35.6299 45.8959 35.8917C45.6478 36.9646 45.2844 37.9834 44.9864 38.9642C45.6306 37.9567 46.1459 36.6042 46.4362 35.4476C46.7266 34.291 46.8649 33.3363 47.1469 33.1374C47.4296 32.9385 47.5091 33.8314 47.3197 35.013C47.2936 35.1703 47.2651 35.327 47.233 35.4826C47.201 35.6388 47.1659 35.7943 47.1279 35.9487C47.0899 36.1036 47.0484 36.2574 47.0044 36.4106C46.9605 36.5638 46.913 36.7158 46.8631 36.8666C46.6642 37.4882 46.4315 38.0547 46.2421 38.5207C46.3977 38.2987 46.3977 38.2987 46.5526 38.0689C46.5128 38.12 46.4754 38.1728 46.441 38.228C46.406 38.2832 46.3745 38.3396 46.3466 38.3984C46.3181 38.4566 46.2926 38.5166 46.2706 38.5777C46.2486 38.6389 46.2296 38.7012 46.2142 38.7642C46.2647 38.6929 46.3133 38.6205 46.3614 38.548C46.4095 38.475 46.4564 38.4014 46.5027 38.3272C46.5485 38.253 46.5936 38.1781 46.6375 38.1027C46.6809 38.0273 46.7236 37.9513 46.7652 37.8748C46.7984 37.8077 46.834 37.7418 46.8709 37.677C46.9077 37.6123 46.9463 37.5482 46.9866 37.4853C47.027 37.4229 47.0692 37.3612 47.1131 37.3006C47.157 37.2401 47.2028 37.1813 47.2497 37.1231C47.2497 37.2923 47.2497 37.4633 47.2402 37.6355C47.6641 37.0251 48.0399 36.033 48.2756 34.9957C48.5113 33.9585 48.62 32.8844 48.7583 32.1096C48.7197 32.6 48.6633 33.0893 48.5885 33.5755C48.5137 34.0618 48.4205 34.5457 48.3101 35.0248C48.199 35.5046 48.0708 35.9796 47.9247 36.4498C47.7787 36.92 47.6148 37.3843 47.4343 37.8421C47.239 38.3331 47.0199 38.814 46.777 39.2837C46.5336 39.7527 46.2676 40.2099 45.9797 40.6528C45.4025 41.5389 44.739 42.3656 43.999 43.121C43.2279 43.9062 42.3693 44.6005 41.44 45.1901C40.5105 45.7795 39.5167 46.2606 38.4779 46.624C37.9613 46.8045 37.4347 46.9535 36.8997 47.0705C35.8299 47.3055 34.7357 47.4105 33.6407 47.3834C33.0939 47.3703 32.5483 47.324 32.0068 47.245C30.8484 47.1025 29.709 46.833 28.6094 46.4411C27.51 46.0496 26.4569 45.5382 25.4692 44.9164C23.4876 43.6686 21.8058 41.9989 20.5436 40.0264C20.3839 39.7373 20.2402 39.4395 20.1131 39.1347C20.049 38.9821 19.9897 38.8283 19.9338 38.6727C19.8786 38.5172 19.827 38.3604 19.7795 38.2019C19.7195 38.0077 19.6637 37.8124 19.612 37.6153C19.561 37.4182 19.5141 37.2205 19.4713 37.0216C19.4292 36.8221 19.3912 36.6226 19.3579 36.4213C19.3247 36.2206 19.2962 36.0193 19.2718 35.8175C19.154 35.1672 19.0743 34.5106 19.0331 33.851C18.9916 33.192 18.9892 32.5306 19.0254 31.8703C19.0617 31.2107 19.1364 30.5537 19.2493 29.9027C19.3627 29.252 19.5135 28.6078 19.7023 27.9749C19.9291 27.304 20.2064 26.6512 20.5317 26.0221C20.8566 25.3932 21.2282 24.7894 21.6432 24.2159C22.0588 23.6424 22.5166 23.1009 23.0129 22.5957C23.5093 22.091 24.0425 21.6237 24.6089 21.1986C25.1931 20.7598 25.8058 20.3608 26.4435 20.0046C27.0811 19.6477 27.742 19.3343 28.4218 19.0665C29.1011 18.7987 29.7981 18.5761 30.5076 18.4015C31.2165 18.227 31.9367 18.0999 32.6634 18.0221C33.2625 17.9491 33.9827 18.0667 34.1703 18.2299C34.2665 18.3089 34.2327 18.3944 33.9964 18.474C33.8842 18.5037 33.7714 18.5316 33.6579 18.5583C33.5445 18.5844 33.4306 18.6087 33.3166 18.6313C33.2026 18.6539 33.088 18.6752 32.9728 18.6942C32.8582 18.7132 32.743 18.7299 32.6278 18.7453C31.4743 18.9639 30.3456 19.2972 29.2584 19.7404C28.7157 19.9619 28.1837 20.21 27.6654 20.4849C27.1471 20.7592 26.643 21.0597 26.155 21.385C26.2185 21.2295 26.4993 21.0264 26.8223 20.8246C26.8989 20.7806 26.9755 20.7355 27.0509 20.6892C27.1263 20.6435 27.2011 20.596 27.2759 20.5479C27.3501 20.4998 27.4238 20.4505 27.4968 20.4006C27.5692 20.3502 27.6417 20.2991 27.7129 20.2469C27.5217 20.3264 27.3329 20.4107 27.1459 20.4998C26.9589 20.5888 26.7742 20.6826 26.5925 20.7812C26.4103 20.8798 26.2304 20.9825 26.0534 21.0899C25.8765 21.1974 25.7019 21.309 25.5309 21.4254C25.3611 21.5412 25.1943 21.6611 25.031 21.7852C24.8672 21.9093 24.7068 22.0375 24.5501 22.1694C24.3928 22.3018 24.239 22.4377 24.0888 22.5778C23.9386 22.718 23.7925 22.8616 23.6494 23.0089C23.8507 22.8011 24.0573 22.5986 24.2705 22.4021C24.483 22.2062 24.7015 22.0162 24.9253 21.8321C25.1492 21.6487 25.3784 21.4717 25.6123 21.3013C25.8462 21.1309 26.0849 20.967 26.3283 20.8103C25.693 21.2148 25.0885 21.6659 24.5198 22.1599C23.9504 22.653 23.4188 23.1881 22.9292 23.7606C22.6739 24.0598 22.4317 24.3697 22.2031 24.6897C21.9739 25.0098 21.759 25.3387 21.5583 25.6771C21.3576 26.015 21.1712 26.3617 20.9996 26.7156C20.828 27.0694 20.6718 27.4304 20.5311 27.7973C20.3168 28.3299 20.0045 28.7912 19.7468 29.3505C19.6702 29.5097 19.6043 29.6747 19.5497 29.8433C19.4951 30.012 19.4523 30.1841 19.4214 30.3581C19.3906 30.5327 19.3722 30.709 19.3656 30.8865C19.3591 31.0635 19.3645 31.2404 19.3823 31.4167C19.5784 30.397 19.8786 29.4 20.2782 28.4415C20.4783 27.9624 20.7021 27.4939 20.9503 27.038C21.1979 26.582 21.4686 26.139 21.7619 25.711C22.3475 24.8564 23.0135 24.06 23.7509 23.3325C24.1191 22.9691 24.505 22.6236 24.9069 22.2976C25.3083 21.971 25.7251 21.6641 26.1561 21.3773C26.155 21.3791 26.1538 21.3809 26.1532 21.3827C26.152 21.3844 26.1508 21.3862 26.1502 21.388C26.149 21.3898 26.1484 21.3916 26.1478 21.3933C26.1467 21.3952 26.1459 21.3972 26.1455 21.3993C26.51 21.1511 26.8864 20.9207 27.2724 20.7082C27.6583 20.4956 28.0543 20.3015 28.4586 20.1257C28.863 19.9506 29.2756 19.7938 29.6942 19.6567C30.1134 19.5195 30.5385 19.402 30.9683 19.3046C30.434 19.4596 29.9068 19.643 29.4377 19.7701C30.0469 19.5937 30.6655 19.4536 31.2907 19.3503C31.9165 19.247 32.5477 19.1811 33.1812 19.1526C33.8141 19.1247 34.4488 19.1336 35.0811 19.1805C35.7135 19.2274 36.3422 19.3117 36.9644 19.4334C36.5185 19.3859 36.0709 19.3563 35.6232 19.3444C35.1749 19.3325 34.7261 19.3384 34.2784 19.3628C33.8307 19.3865 33.3842 19.4287 32.9401 19.4881C32.4954 19.548 32.0537 19.6258 31.6155 19.7208C31.1702 19.8176 30.7291 19.9345 30.2939 20.0711C29.8593 20.2083 29.4306 20.3644 29.0096 20.5402C28.5893 20.7165 28.1766 20.9112 27.7735 21.1244C27.3709 21.3375 26.9773 21.5691 26.5955 21.8185C26.2137 22.0678 25.8438 22.3362 25.4876 22.6218C25.1318 22.9075 24.79 23.2102 24.4634 23.529C24.1363 23.8478 23.8258 24.1821 23.5313 24.5312C23.2374 24.8803 22.9601 25.2431 22.7012 25.6189C22.4483 25.9871 22.2144 26.367 22.0012 26.7589C21.7875 27.1508 21.5939 27.5533 21.4223 27.9648C21.0777 28.7885 20.819 29.6457 20.6505 30.5226C21.0043 29.591 21.3303 28.5229 21.7928 27.5195C22.2553 26.5167 22.8378 25.6023 23.5004 25.0585C23.0076 25.6832 22.5677 26.3479 22.1853 27.0457C21.0341 29.1499 20.433 31.5107 20.4379 33.9092L20.3584 33.195C20.3293 33.4532 20.3109 33.7133 20.3025 33.9733C20.2948 34.234 20.2984 34.4946 20.312 34.7541C20.3257 35.0142 20.3506 35.2736 20.3863 35.5319C20.4219 35.7896 20.4676 36.0461 20.5246 36.3002C20.5816 36.5543 20.6439 36.8072 20.7128 37.059C20.7817 37.3101 20.8565 37.5601 20.9372 37.8077C21.018 38.0552 21.1047 38.3011 21.1967 38.5451C21.2893 38.7885 21.3879 39.0302 21.4918 39.2688C21.5619 39.438 21.6313 39.6061 21.7091 39.7717L21.4918 39.2688C21.319 38.8449 21.1664 38.4121 21.0352 37.9733C20.9034 37.5345 20.7936 37.0892 20.7051 36.6398C20.6166 36.1903 20.5501 35.7367 20.5056 35.2807C20.4611 34.8248 20.4385 34.367 20.4379 33.9092C20.5311 34.7286 20.6208 35.5907 20.812 36.6154C20.812 36.0407 20.7235 35.2398 20.7265 34.4418C20.711 34.1806 20.7033 33.9193 20.7033 33.6575C20.7033 33.3962 20.7116 33.135 20.7277 32.8737C20.7437 32.6125 20.7674 32.3524 20.7989 32.093C20.8304 31.8335 20.8702 31.5747 20.9177 31.3176C20.8577 31.6976 20.8185 32.0811 20.7995 32.4653C20.7805 32.8494 20.7823 33.2347 20.8048 33.6189C20.8274 34.003 20.8702 34.386 20.9337 34.7654C20.9972 35.1454 21.0809 35.5212 21.1842 35.8917C20.9266 33.7738 21.0821 31.5444 21.8053 29.5441C21.7222 29.8214 21.6479 30.101 21.5832 30.3824C21.5191 30.6645 21.4639 30.9483 21.4182 31.2339C21.3725 31.5194 21.3368 31.8068 21.3107 32.0948C21.284 32.3827 21.2674 32.6713 21.2602 32.9604C21.2234 33.4509 21.2145 33.9431 21.2341 34.4347C21.2537 34.9263 21.3012 35.4161 21.3772 35.9018C21.4532 36.388 21.5571 36.8696 21.6877 37.3434C21.8189 37.8172 21.9775 38.2838 22.1621 38.7392L22.0725 38.5314C22.1295 38.6709 22.1948 38.8093 22.2583 38.9488C22.3367 39.1293 22.4186 39.3086 22.5047 39.485C22.5908 39.6619 22.681 39.8364 22.7748 40.0092C22.9633 40.3545 23.1676 40.6909 23.387 41.0174C23.4897 41.1587 23.5972 41.2964 23.7088 41.43C23.821 41.5642 23.938 41.6942 24.0585 41.8201C24.1796 41.946 24.3055 42.0671 24.4349 42.1847C24.5644 42.3016 24.6979 42.4138 24.8351 42.5219L25.0791 42.7653C24.8879 42.6489 24.7686 42.6104 25.0494 42.9363C25.208 43.1138 25.373 43.2848 25.5452 43.4487C25.7174 43.6132 25.8961 43.7699 26.0813 43.9195C26.2666 44.0686 26.4578 44.2105 26.6543 44.3441C26.8508 44.4776 27.0527 44.6035 27.2599 44.7205C28.1072 45.2263 29.0233 45.652 29.981 46.1051C30.1419 46.1727 30.3057 46.2339 30.4714 46.2885C30.637 46.3431 30.8051 46.3912 30.9749 46.4334C31.1441 46.475 31.3151 46.5106 31.4873 46.5391C31.6594 46.5676 31.8328 46.5901 32.0068 46.6056C32.04 46.621 32.0751 46.6341 32.1113 46.6436C32.1469 46.6531 32.1837 46.6596 32.2205 46.6632C32.2573 46.6667 32.2947 46.6667 32.3316 46.6632C32.369 46.6602 32.4052 46.6537 32.4414 46.6442C32.6136 46.6578 32.7887 46.6673 32.9627 46.675C33.0684 46.6857 33.1735 46.6935 33.2791 46.6994C33.3848 46.7047 33.4911 46.7083 33.5968 46.7089C33.7025 46.7101 33.8082 46.7083 33.9138 46.7047C34.0201 46.7006 34.1258 46.6946 34.2309 46.6863C33.8183 46.6863 33.3896 46.6863 32.9627 46.675L32.4877 46.6335C32.5251 46.6198 32.5625 46.6085 32.6011 46.599C32.6397 46.5901 32.6783 46.583 32.7175 46.5783C32.7567 46.5735 32.7959 46.5705 32.8356 46.5705C32.8748 46.57 32.914 46.5717 32.9538 46.5759C32.5875 46.5343 32.2229 46.4773 31.8613 46.4043C31.5003 46.3319 31.1417 46.244 30.7879 46.1413C30.434 46.0386 30.0843 45.921 29.7405 45.788C29.3967 45.6556 29.0583 45.509 28.727 45.3475C28.3892 45.1836 28.0591 45.0061 27.7361 44.8155C27.4131 44.6249 27.0978 44.4212 26.7914 44.2051C26.4845 43.989 26.187 43.7604 25.8991 43.5205C25.6111 43.2801 25.3326 43.0283 25.0649 42.7653C25.2204 42.8603 25.4425 43.0028 25.5416 43.0497C25.2946 42.8853 25.0572 42.7065 24.8214 42.5219C24.651 42.3467 24.4854 42.1674 24.3239 41.984C24.163 41.8005 24.0062 41.6129 23.8548 41.4217C23.5511 41.0391 23.2669 40.6414 23.0034 40.2301C23.0438 40.2841 23.0854 40.3375 23.1287 40.3898C23.1721 40.4415 23.2166 40.4925 23.2623 40.5424C23.3086 40.5917 23.3561 40.6398 23.4048 40.6867C23.4535 40.7336 23.5034 40.7793 23.5544 40.8232C23.3626 40.5359 23.1821 40.2408 23.0123 39.9398C22.8425 39.6387 22.684 39.3312 22.5374 39.0183C22.3907 38.7054 22.2559 38.3865 22.1336 38.0636C22.0107 37.7404 21.9002 37.4126 21.8023 37.0809C21.7043 36.7473 21.6194 36.41 21.5476 36.0698C21.4758 35.7296 21.4176 35.3864 21.3719 35.0415C21.3267 34.6971 21.2947 34.3504 21.2763 34.003C21.2573 33.6557 21.2525 33.3078 21.2602 32.9604C21.3095 32.3168 21.4063 31.678 21.5506 31.0492C21.6943 30.4204 21.8842 29.803 22.1194 29.2021C22.3551 28.6013 22.6341 28.0188 22.9559 27.4595C23.2771 26.9002 23.6399 26.3653 24.0407 25.86C23.7925 26.1224 23.5586 26.3973 23.3395 26.6847C23.1204 26.9721 22.9162 27.2701 22.7285 27.5788C22.5415 27.8876 22.3699 28.2058 22.2161 28.5324C22.0624 28.8595 21.9258 29.1938 21.8071 29.5352C21.9502 29.0578 22.1217 28.5894 22.32 28.1322C22.5189 27.675 22.7446 27.2303 22.9957 26.7999C23.2469 26.3694 23.5235 25.9544 23.824 25.5566C24.1244 25.1594 24.448 24.78 24.7935 24.4208C25.1373 24.0622 25.5036 23.7255 25.889 23.412C26.2749 23.0991 26.6798 22.8106 27.1014 22.5476C27.5229 22.2851 27.9605 22.0488 28.4117 21.8404C28.8624 21.632 29.3261 21.4521 29.7993 21.3013C29.1972 21.73 28.4022 22.2828 28.1647 22.7298C28.2485 22.8136 29.3338 22.3231 28.7484 22.7019C27.7129 23.4316 26.8781 24.0835 26.2648 24.72C25.6521 25.3565 25.2774 25.9621 25.2697 26.5588C25.2917 26.6888 25.8427 26.3409 26.3562 26.1254C26.8704 25.9093 27.3062 25.7929 27.0735 26.11C26.9072 26.3011 26.7463 26.4971 26.5914 26.6977C26.4364 26.8984 26.2874 27.1039 26.1449 27.3134C26.0024 27.523 25.8658 27.7368 25.7358 27.9547C25.6064 28.172 25.4829 28.394 25.3659 28.6191C25.3172 28.6974 25.2703 28.7764 25.224 28.856C25.1783 28.9361 25.1337 29.0169 25.091 29.0988C25.0052 29.2618 24.9256 29.428 24.8523 29.5969C24.8458 29.6159 24.8398 29.6355 24.8357 29.6557C24.8315 29.6753 24.8286 29.6955 24.8274 29.7157C24.8256 29.7359 24.8256 29.7561 24.8274 29.7762C24.8286 29.7964 24.8309 29.8166 24.8351 29.8362C24.7438 30.0942 24.6606 30.355 24.5857 30.6182C24.5103 30.8812 24.4438 31.1472 24.3856 31.4144C24.2683 31.9492 24.1852 32.491 24.1369 33.0364C24.106 33.2959 24.09 33.5536 24.0822 33.8124C24.0745 33.8433 24.0662 33.8742 24.0561 33.9045C24.046 33.9342 24.0353 33.9638 24.0229 33.9935C24.011 34.0226 23.9979 34.0517 23.9837 34.0802C23.9694 34.1087 23.9546 34.1366 23.938 34.1639C23.9985 34.3266 24.0496 34.4881 24.0935 34.6478C24.103 34.8206 24.1167 34.9922 24.1357 35.1638C24.1547 35.3354 24.1784 35.5064 24.2063 35.6768C24.2348 35.8472 24.2675 36.0164 24.3055 36.185C24.3429 36.353 24.385 36.5204 24.432 36.6867C24.445 36.7835 24.4593 36.8797 24.4759 36.9758C24.4925 37.072 24.5103 37.1676 24.5299 37.2632C24.5495 37.3582 24.5709 37.4538 24.594 37.5482C24.6172 37.6432 24.6415 37.737 24.6677 37.8308C24.7063 37.8047 24.7377 37.7222 24.8072 37.7703C24.8909 37.9697 24.9806 38.1663 25.0767 38.3592C25.1735 38.5528 25.2756 38.7428 25.3849 38.9298C25.4935 39.1162 25.6081 39.2991 25.7287 39.4784C25.8498 39.6571 25.9762 39.8323 26.1081 40.0033C26.1496 40.0763 26.19 40.1499 26.2292 40.2241C26.2684 40.2984 26.3058 40.3732 26.342 40.4492C26.3788 40.5246 26.4138 40.6012 26.4471 40.6778C26.4809 40.7544 26.5136 40.8321 26.5445 40.9099C27.0224 41.1147 27.6078 41.6194 28.3031 42.1057C28.4717 42.231 28.6451 42.3497 28.8226 42.4631C28.9995 42.5759 29.1812 42.6822 29.3659 42.7825C29.5505 42.8829 29.7387 42.9761 29.9305 43.0628C30.1217 43.1495 30.3164 43.2296 30.5135 43.3026V43.2902C30.6911 43.3596 30.871 43.425 31.0527 43.4849C31.2337 43.5449 31.4166 43.6001 31.6013 43.65C31.9697 43.7511 32.3433 43.8322 32.7204 43.8928C32.7501 43.9065 32.7798 43.9207 32.8089 43.935C32.838 43.9498 32.8671 43.9647 32.8956 43.9801C32.9247 43.9955 32.9532 44.0116 32.9811 44.0276C33.0096 44.0436 33.0375 44.0602 33.0654 44.0775C33.2655 44.0312 33.4656 44.0436 33.5653 44.0139C34.1858 44.1072 34.7089 44.1802 35.2521 44.2188C35.2877 44.1932 35.324 44.1695 35.3608 44.1469C35.4353 44.1025 35.5136 44.0645 35.5947 44.0335C35.6351 44.0181 35.6766 44.0038 35.7182 43.992C35.9157 43.9704 36.1122 43.9405 36.3072 43.9023C36.4046 43.8833 36.5019 43.8625 36.5987 43.8394C36.6949 43.8162 36.7911 43.7913 36.8867 43.764C36.9989 43.7384 37.1099 43.7117 37.2209 43.6838C37.332 43.6553 37.443 43.625 37.5528 43.5936C37.6633 43.5621 37.7725 43.5289 37.8818 43.4938C37.991 43.4594 38.0997 43.4232 38.2077 43.3852C38.577 43.2557 38.9398 43.1073 39.2937 42.9411C40.0025 42.6076 40.6755 42.2027 41.3022 41.7328C41.6151 41.4977 41.9162 41.2471 42.2035 40.9817C42.2202 40.9829 42.2368 40.9847 42.2528 40.9883C42.2694 40.9918 42.2855 40.9966 42.3015 41.0025C42.3169 41.0085 42.3324 41.015 42.3472 41.0227C42.3621 41.031 42.3763 41.0399 42.3894 41.05C42.4951 40.8119 42.7717 40.5946 42.8709 40.3898C42.8614 40.4367 42.8709 40.4735 42.897 40.4895C42.9291 40.4314 42.9623 40.3744 42.9979 40.3186C43.0336 40.2633 43.0704 40.2087 43.1096 40.1553C43.1482 40.1018 43.1891 40.0496 43.2313 39.9991C43.2734 39.9481 43.3174 39.8988 43.3631 39.8513C43.4076 39.8079 43.4516 39.7646 43.4949 39.7195C43.5382 39.6749 43.5804 39.6292 43.6214 39.5829C43.6623 39.536 43.7027 39.4891 43.7419 39.4404C43.7811 39.3923 43.8191 39.3436 43.8565 39.2938C43.8713 39.2599 43.885 39.2255 43.898 39.1911C43.9117 39.1566 43.9242 39.1222 43.936 39.0872C43.9473 39.0521 43.9586 39.0171 43.9687 38.9815C43.9794 38.9458 43.9889 38.9102 43.9978 38.8746C44.0394 38.814 44.0785 38.7517 44.1171 38.6911C44.7227 38.1586 44.9323 37.401 45.1651 36.5964C45.2405 36.3964 45.3105 36.1939 45.3752 35.9902C45.4394 35.786 45.4981 35.58 45.5504 35.3722C45.6032 35.165 45.6501 34.956 45.6905 34.7458C45.7315 34.5356 45.7665 34.3242 45.795 34.1123C45.8746 33.4354 46.0515 33.167 46.1429 32.6713" fill="#868788"/>
<path d="M28.9194 42.7248C29.0719 42.8334 29.2269 42.9379 29.3848 43.0382C29.5428 43.1386 29.7031 43.2348 29.8658 43.3274C30.0284 43.4194 30.1935 43.5073 30.3609 43.591C30.5284 43.6747 30.6976 43.7537 30.8686 43.8291C30.1116 43.5714 29.3943 43.3428 28.9194 42.7295M27.5781 25.8812C27.6541 25.8568 27.7301 25.8307 27.8049 25.8028C27.8803 25.7755 27.9551 25.7464 28.0288 25.7155C28.103 25.6852 28.1766 25.6538 28.2496 25.6205C28.3221 25.5873 28.3945 25.5522 28.4657 25.5166C28.1059 25.7719 27.7634 26.051 27.4404 26.352C27.1174 26.653 26.8152 26.9754 26.5355 27.3174C26.2559 27.6588 25.9994 28.0192 25.7684 28.395C25.5369 28.7715 25.3308 29.1621 25.1521 29.5659H25.1379C25.2168 29.3818 25.3017 29.2001 25.3932 29.022C25.4846 28.8433 25.582 28.6682 25.6859 28.4972C25.7898 28.3256 25.8996 28.1581 26.0154 27.9943C26.1312 27.831 26.2529 27.6713 26.38 27.5163C26.8716 26.8733 27.3745 26.3378 27.5841 25.8847M27.3501 41.4595L27.3768 41.4666C27.3857 41.469 27.3952 41.4714 27.4042 41.4744C27.4131 41.4773 27.422 41.4797 27.4309 41.4827C27.4392 41.4856 27.4481 41.4892 27.457 41.4922C27.4475 41.4904 27.4374 41.4886 27.4279 41.4862C27.4184 41.4839 27.4089 41.4809 27.3994 41.4779C27.3807 41.4713 27.3627 41.4632 27.3454 41.4536M29.5867 21.7714L29.7898 21.6971C29.5384 21.8077 29.2903 21.9255 29.0458 22.0504C28.9235 22.1128 28.8024 22.1769 28.6819 22.2428C28.5613 22.3087 28.442 22.3758 28.3233 22.4453C28.4224 22.3782 28.5227 22.314 28.6255 22.2523C28.7276 22.1905 28.8321 22.1318 28.9372 22.0754C29.0429 22.019 29.1497 21.9655 29.2578 21.915C29.3664 21.864 29.4757 21.8165 29.5867 21.7714ZM35.3798 21.0868C35.657 21.1058 35.9343 21.1337 36.2098 21.1711C36.4853 21.2085 36.7596 21.2554 37.0321 21.3118C37.3046 21.3676 37.5754 21.4329 37.8431 21.5072C38.1115 21.582 38.3769 21.6651 38.6393 21.7577C38.9614 21.887 39.2764 22.0335 39.5828 22.1965C39.8891 22.3592 40.1866 22.5379 40.4746 22.7326C40.7619 22.9268 41.0392 23.1358 41.3046 23.3596C41.57 23.5834 41.8235 23.8203 42.0634 24.0709C41.5961 23.6642 41.0992 23.2931 40.5767 22.96C40.0548 22.6269 39.508 22.3324 38.9427 22.0801C38.3769 21.8278 37.7933 21.6176 37.1966 21.4513C36.5993 21.2851 35.9913 21.1634 35.3768 21.0868M30.5866 24.2354C30.6768 24.2158 30.7676 24.1974 30.8591 24.1801C30.9499 24.1635 31.0414 24.1481 31.1328 24.1344C31.3163 24.1074 31.5007 24.0862 31.6856 24.0709C31.5965 24.0917 31.5086 24.1136 31.4207 24.1368C31.3323 24.1605 31.245 24.1849 31.1577 24.211C31.0704 24.2365 30.9838 24.2639 30.8971 24.2924C30.811 24.3208 30.7249 24.3505 30.6394 24.3814C30.6875 24.3149 30.6097 24.2775 30.5866 24.2371M25.7975 24.3197L26.0427 24.094C25.8569 24.3149 25.6764 24.537 25.5072 24.7679C25.5588 24.6735 25.7013 24.4699 25.7975 24.3197ZM34.4423 23.8613C34.178 23.8393 33.9126 23.8304 33.649 23.8352C33.804 23.7978 33.9595 23.7556 34.1145 23.7016C34.1394 23.7188 34.165 23.7348 34.1911 23.7497C34.2172 23.7651 34.2439 23.7794 34.2713 23.7918C34.2986 23.8049 34.3265 23.8168 34.3544 23.8275C34.3829 23.8387 34.4114 23.8482 34.4405 23.8566M38.4096 24.7745C38.4885 24.8125 38.5669 24.8522 38.6447 24.8938C38.7219 24.9354 38.7985 24.9781 38.8745 25.0226C38.9499 25.0672 39.0247 25.1129 39.0989 25.1604C39.1725 25.2079 39.2455 25.2566 39.318 25.307C39.2259 25.2548 39.1333 25.2043 39.0401 25.155C38.9469 25.1058 38.8525 25.0583 38.7581 25.012C38.6631 24.9656 38.5675 24.9205 38.4719 24.8772C38.3757 24.8338 38.2789 24.7917 38.1816 24.7513C38.2873 24.7513 38.3757 24.7513 38.4096 24.7745Z" fill="#868788"/>
</svg>
