<svg width="86" height="83" viewBox="0 0 86 83" fill="none" xmlns="http://www.w3.org/2000/svg">
<path d="M50.098 47.2095C48.3514 47.1723 46.8277 48.473 46.6419 50.2196C46.6419 50.294 46.6791 50.3311 46.7534 50.3311H53.4426C53.5169 50.3311 53.5541 50.294 53.5541 50.2196C53.4054 48.4358 51.8818 47.098 50.098 47.2095Z" fill="#868788"/>
<path d="M64.4426 24.6892L50.1723 40.6689C50.0236 40.8547 49.7264 40.8547 49.5405 40.7061L49.5034 40.6689L42.2939 33.1993C42.1453 33.0507 42.1453 32.8277 42.2568 32.6419L44.6723 29.5574C44.8209 29.3716 45.0811 29.2973 45.2669 29.4459C45.3041 29.4831 45.3412 29.4831 45.3412 29.5203L49.4291 34.0169C49.5777 34.2027 49.875 34.2027 50.0608 34.0541L50.098 34.0169L61.5068 18.5203C61.6182 18.3716 61.5811 18.1858 61.4324 18.0743C61.3953 18.0372 61.3209 18.0372 61.2466 18H21.3345C21.1486 18.0372 21 18.1858 21 18.3716V63.7838C21 63.9696 21.1486 64.1182 21.3345 64.1182H64.6655C64.8514 64.1182 65 63.9696 65 63.7838V24.9122C65 24.7264 64.8514 24.6149 64.7027 24.6149C64.5912 24.5777 64.5169 24.6149 64.4426 24.6892ZM33.3007 59.0642C30.4392 59.1757 27.652 58.2095 25.5338 56.3142C25.3851 56.1655 25.348 55.9426 25.4966 55.7568L27.1689 53.3784C27.3176 53.1926 27.5777 53.1554 27.7635 53.2669L27.8007 53.3041C29.3615 54.7534 31.3682 55.5338 33.4865 55.5338C35.7162 55.5338 36.7939 54.4932 36.7939 53.4155C36.7939 50.0338 25.8311 52.375 25.8311 45.2027C25.8311 42.0439 28.5811 39.4054 33.0405 39.4054C35.6047 39.3311 38.1318 40.1858 40.1385 41.8209C40.2872 41.9696 40.3243 42.2297 40.1757 42.3784L38.4291 44.6824C38.2804 44.8682 38.0203 44.9054 37.8345 44.7568C36.348 43.5676 34.527 42.9358 32.6318 42.973C30.8851 42.973 29.9189 43.7534 29.9189 44.8682C29.9189 47.8784 40.8446 45.8716 40.8446 52.9696C40.8818 56.4257 38.3919 59.0642 33.3007 59.0642ZM57.1959 52.4493C57.1959 52.6723 57.0101 52.8209 56.8243 52.8209H46.8277C46.7534 52.8209 46.7162 52.8581 46.7162 52.9324C47.0507 54.8649 48.7973 56.2027 50.7669 56.0912C52.0304 56.0541 53.2196 55.6824 54.223 54.9392C54.3716 54.8277 54.6318 54.8277 54.7432 55.0135L54.7804 55.0507L56.0068 56.8345C56.1182 56.9831 56.0811 57.2061 55.9324 57.3547C54.3345 58.5439 52.3649 59.1385 50.3953 59.0642C46.0845 59.0642 42.8514 56.1655 42.8514 51.6318C42.7399 47.6554 45.8615 44.348 49.8378 44.2365H50.1723C54.3716 44.2365 57.2703 47.3953 57.2703 52.0034L57.1959 52.4493Z" fill="#868788"/>
</svg>
