<svg width="86" height="83" viewBox="0 0 86 83" fill="none" xmlns="http://www.w3.org/2000/svg">
<path d="M48.1242 37.8C46.5887 37.8 45.3492 36.5605 45.3492 35.025V25.775C45.3492 24.2395 46.5887 23 48.1242 23C49.6597 23 50.8992 24.2395 50.8992 25.775V35.025C50.8992 36.5605 49.6597 37.8 48.1242 37.8Z" stroke="#868788" stroke-width="3.7" stroke-linecap="round" stroke-linejoin="round"/>
<path d="M59.2242 37.7996H56.4492V35.0246C56.4492 33.4891 57.6887 32.2496 59.2242 32.2496C60.7597 32.2496 61.9992 33.4891 61.9992 35.0246C61.9992 36.5601 60.7597 37.7996 59.2242 37.7996Z" stroke="#868788" stroke-width="3.7" stroke-linecap="round" stroke-linejoin="round"/>
<path d="M38.875 45.2C40.4105 45.2 41.65 46.4395 41.65 47.975V57.225C41.65 58.7605 40.4105 60 38.875 60C37.3395 60 36.1 58.7605 36.1 57.225V47.975C36.1 46.4395 37.3395 45.2 38.875 45.2Z" stroke="#868788" stroke-width="3.7" stroke-linecap="round" stroke-linejoin="round"/>
<path d="M27.775 45.2H30.55V47.975C30.55 49.5105 29.3105 50.75 27.775 50.75C26.2395 50.75 25 49.5105 25 47.975C25 46.4395 26.2395 45.2 27.775 45.2Z" stroke="#868788" stroke-width="3.7" stroke-linecap="round" stroke-linejoin="round"/>
<path d="M47.2 46.1249C47.2 44.5894 48.4395 43.3499 49.975 43.3499H59.225C60.7605 43.3499 62 44.5894 62 46.1249C62 47.6604 60.7605 48.8999 59.225 48.8999H49.975C48.4395 48.8999 47.2 47.6604 47.2 46.1249Z" stroke="#868788" stroke-width="3.7" stroke-linecap="round" stroke-linejoin="round"/>
<path d="M49.975 54.4497H47.2V57.2247C47.2 58.7602 48.4395 59.9997 49.975 59.9997C51.5105 59.9997 52.75 58.7602 52.75 57.2247C52.75 55.6892 51.5105 54.4497 49.975 54.4497Z" stroke="#868788" stroke-width="3.7" stroke-linecap="round" stroke-linejoin="round"/>
<path d="M39.8 36.875C39.8 35.3395 38.5605 34.1 37.025 34.1H27.775C26.2395 34.1 25 35.3395 25 36.875C25 38.4105 26.2395 39.65 27.775 39.65H37.025C38.5605 39.65 39.8 38.4105 39.8 36.875Z" stroke="#868788" stroke-width="3.7" stroke-linecap="round" stroke-linejoin="round"/>
<path d="M37.0242 28.55H39.7992V25.775C39.7992 24.2395 38.5597 23 37.0242 23C35.4887 23 34.2492 24.2395 34.2492 25.775C34.2492 27.3105 35.4887 28.55 37.0242 28.55Z" stroke="#868788" stroke-width="3.7" stroke-linecap="round" stroke-linejoin="round"/>
</svg>
