<svg width="86" height="83" viewBox="0 0 86 83" fill="none" xmlns="http://www.w3.org/2000/svg">
<path d="M61.0758 21.3276C60.4591 22.8062 59.6696 24.2065 58.7237 25.4993C56.6587 23.4258 54.2021 21.7834 51.4968 20.6677C48.7914 19.5519 45.8913 18.9852 42.9649 19.0003C40.0386 19.0154 37.1444 19.6121 34.4507 20.7557C31.757 21.8993 29.3176 23.567 27.2741 25.6618C25.2307 27.7566 23.6241 30.2368 22.5478 32.958C21.4714 35.6793 20.9467 38.5874 21.0043 41.5132C21.0618 44.439 21.7004 47.3242 22.883 50.001C24.0655 52.6778 25.7684 55.0929 27.8926 57.1057L28.7085 57.826C31.8221 60.4495 35.6007 62.1606 39.6264 62.7699C43.652 63.3792 47.7678 62.863 51.5183 61.2784C55.2688 59.6939 58.5078 57.1027 60.8771 53.7915C63.2463 50.4803 64.6534 46.5783 64.9427 42.5171C65.5447 36.8966 63.8943 29.7832 61.0765 21.3283L61.0758 21.3276ZM31.0331 57.2337C30.7982 57.524 30.4824 57.7381 30.1257 57.8489C29.7691 57.9596 29.3876 57.9622 29.0295 57.8561C28.6714 57.75 28.3529 57.5401 28.1141 57.2529C27.8754 56.9657 27.7272 56.6142 27.6883 56.2428C27.6494 55.8713 27.7215 55.4967 27.8956 55.1663C28.0696 54.8359 28.3378 54.5645 28.6661 54.3865C28.9944 54.2086 29.3682 54.132 29.74 54.1664C30.1119 54.2009 30.4652 54.3449 30.7552 54.5803C31.1436 54.8955 31.3911 55.3519 31.4432 55.8495C31.4953 56.347 31.3478 56.8448 31.0331 57.2337ZM60.985 50.6225C55.5364 57.8803 43.9032 55.4312 36.4445 55.7835C36.4445 55.7835 35.1223 55.8612 33.7911 56.0793C33.7911 56.0793 34.2933 55.866 34.9351 55.6232C40.1732 53.8001 42.6491 53.4493 45.8309 51.812C51.8215 48.7664 57.7475 42.0968 58.9789 35.1636C56.6997 41.8333 49.779 47.5687 43.4795 49.8981C39.1619 51.4893 31.3619 53.0393 31.3619 53.0393L31.0476 52.8707C25.7407 50.2909 25.577 38.7974 35.2282 35.0907C39.4543 33.463 43.4973 34.3567 48.0612 33.2676C52.9346 32.1098 58.573 28.4589 60.8673 23.6942C63.4334 31.3166 66.525 43.247 60.9815 50.6273L60.985 50.6225Z" fill="white"/>
</svg>
