<svg width="86" height="83" viewBox="0 0 86 83" fill="none" xmlns="http://www.w3.org/2000/svg">
<path d="M54.0898 32.6024L47.3967 34.7879L41.5737 37.3579L39.9447 37.788C39.5298 38.1826 39.0948 38.5823 38.6243 38.987C38.1082 39.4322 37.6276 39.837 37.2583 40.1304C36.8485 40.4542 36.2414 41.0612 35.9328 41.4457C35.4724 42.0224 35.1082 42.6345 34.9514 43.1051C34.6731 43.955 34.8098 44.815 35.346 45.6094C36.034 46.6211 37.4051 47.6531 39.0037 48.3564C39.8182 48.7156 41.1892 49.176 42.2212 49.4339C43.9362 49.869 47.255 50.3396 49.0813 50.4104C49.4505 50.4256 49.9464 50.4256 49.9666 50.4104C50.0071 50.385 50.2904 49.8438 50.6193 49.171C51.7424 46.8792 52.5518 44.729 52.9919 42.8926C53.255 41.7797 53.4624 40.2974 53.5989 38.5419C53.6344 38.0512 53.6495 36.407 53.6192 35.8504C53.5736 34.9398 53.4927 34.2012 53.3663 33.4778C53.3461 33.3715 53.3409 33.2754 53.3511 33.2703C53.3713 33.2552 53.432 33.2349 54.2566 32.9971L54.0898 32.6024ZM52.562 33.4979C52.6227 33.4979 52.7845 35.051 52.825 36.0325C52.8352 36.2399 52.83 36.3765 52.82 36.3765C52.7795 36.3765 51.965 35.896 51.3833 35.5317C50.8773 35.213 49.9161 34.5755 49.7644 34.4541C49.7137 34.4187 49.7187 34.4137 50.1336 34.272C50.8368 34.0342 52.5064 33.4979 52.562 33.4979ZM49.1522 34.621C49.1977 34.621 49.314 34.6867 49.5923 34.8588C50.6344 35.5114 52.051 36.3007 52.6581 36.5638C52.8452 36.6447 52.8654 36.6143 52.4355 36.9078C51.5147 37.5351 50.3663 38.1523 48.9598 38.7745C48.712 38.8858 48.5046 38.9718 48.4995 38.9718C48.4895 38.9718 48.5197 38.8454 48.5602 38.6936C48.8991 37.4338 49.0914 36.159 49.1016 35.137C49.1066 34.6311 49.1066 34.6311 49.1522 34.616C49.142 34.621 49.147 34.621 49.1522 34.621ZM48.449 34.8891C48.4792 34.9195 48.4591 36.0527 48.4186 36.3613C48.3275 37.1 48.1859 37.788 47.9532 38.5621C47.8976 38.7491 47.8469 38.9061 47.8369 38.9161C47.8165 38.9414 47.1234 38.2635 46.8958 38.0005C46.5012 37.5451 46.1926 37.0898 45.965 36.6446C45.8486 36.417 45.6665 35.9718 45.6817 35.9566C45.7626 35.901 48.4287 34.8689 48.449 34.8891ZM45.1403 36.1893C45.1453 36.1893 45.1504 36.1893 45.1555 36.1943C45.1656 36.2045 45.2011 36.2854 45.2314 36.3765C45.3933 36.8166 45.7575 37.4642 46.0712 37.879C46.4152 38.3344 46.8655 38.82 47.2398 39.1387C47.3613 39.2399 47.4725 39.336 47.4876 39.3512C47.5181 39.3816 47.5282 39.3765 46.7035 39.6902C45.7474 40.0544 44.7052 40.4187 43.5112 40.8031C43.226 40.8951 42.9411 40.9878 42.6564 41.0814C42.6108 41.0966 42.626 41.0713 42.7575 40.8639C43.3494 39.9381 44.2499 38.1219 44.7558 36.8369C44.8419 36.6142 44.9278 36.3917 44.9431 36.3411C44.9633 36.2702 44.9885 36.2449 45.0543 36.2095C45.0897 36.1995 45.1252 36.1893 45.1403 36.1893ZM44.1286 36.6092C44.1437 36.6194 43.8857 37.1606 43.6327 37.6564C43.142 38.6126 42.6057 39.5536 41.8874 40.697C41.766 40.8942 41.6496 41.0764 41.6344 41.0966C41.6092 41.1321 41.599 41.1219 41.5181 40.9651C41.3461 40.6261 41.2044 40.191 41.1285 39.7913C41.0526 39.3967 41.0678 38.7087 41.1538 38.2838C41.2195 37.9701 41.2145 37.9752 41.3663 37.8993C42.0138 37.5705 44.1083 36.589 44.1286 36.6092ZM52.8554 36.9634V37.1759C52.8554 38.304 52.734 39.8521 52.5569 40.9803C52.5265 41.1776 52.5011 41.3394 52.4962 41.3446C52.4962 41.3446 52.3495 41.3041 52.1775 41.2535C51.4186 41.0157 50.594 40.6666 49.8503 40.2569C49.3595 39.9887 48.6462 39.5485 48.6665 39.5283C48.6715 39.5233 48.884 39.412 49.1318 39.2804C50.1235 38.7644 51.0746 38.2079 51.8992 37.6565C52.2078 37.449 52.6732 37.1152 52.7745 37.0241L52.8554 36.9634ZM40.3089 38.4608C40.3291 38.4608 40.3241 38.5013 40.2937 38.6834C40.2735 38.815 40.2482 39.0578 40.2382 39.2247C40.1976 39.9633 40.3191 40.5097 40.6833 41.2584C40.7845 41.4659 40.8655 41.6379 40.8604 41.6429C40.8249 41.6733 37.4759 42.6548 36.4236 42.9431C36.1099 43.0291 35.8368 43.105 35.8164 43.11C35.7811 43.1202 35.776 43.1151 35.7912 43.0291C35.9075 42.2854 36.4742 41.3141 37.2633 40.4945C37.7895 39.9481 38.2094 39.6294 38.9278 39.2196C39.4438 38.9262 40.2381 38.4861 40.2988 38.4658C40.2988 38.4608 40.3039 38.4608 40.3089 38.4608ZM48.2011 39.8723C48.2061 39.8672 48.3275 39.933 48.4742 40.019C49.5569 40.6464 51.0645 41.2282 52.3494 41.5266L52.4658 41.5519L52.3039 41.6429C51.6311 42.0173 49.4203 42.938 47.1589 43.7829C46.83 43.9043 46.5063 44.0258 46.4455 44.051C46.3848 44.0763 46.3291 44.0915 46.3291 44.0865C46.3291 44.0813 46.4202 43.9043 46.5365 43.6868C47.1689 42.503 47.8064 41.0612 48.1302 40.0595C48.1707 39.9633 48.1959 39.8774 48.2011 39.8723ZM47.3967 40.1354C47.4018 40.1405 47.3613 40.2467 47.3107 40.3681C46.8706 41.4355 46.2937 42.5992 45.5552 43.9044C45.368 44.2383 45.2112 44.5065 45.206 44.5065C45.2011 44.5065 45.0492 44.4154 44.8671 44.3041C43.7945 43.6464 42.8435 42.8369 42.2213 42.0528L42.1302 41.9415L42.5905 41.815C44.2398 41.3648 45.6411 40.8791 47.0324 40.2822C47.2297 40.2012 47.3916 40.1354 47.3967 40.1354ZM52.395 41.8808C52.4001 41.9971 52.1421 43.0393 51.9295 43.793C51.7525 44.4254 51.6007 44.9212 51.3225 45.7964C51.2011 46.181 51.0949 46.4996 51.0898 46.4996C51.0847 46.4996 51.0544 46.4946 51.024 46.4845C49.5215 46.2112 48.1758 45.8318 46.911 45.326C46.5568 45.1843 46.051 44.9566 46.0206 44.9313C46.0105 44.9211 46.3141 44.7795 46.6986 44.6126C49.0004 43.6058 51.3883 42.4625 52.2078 41.9718C52.3039 41.9111 52.3798 41.8808 52.395 41.8808ZM40.8553 42.2754C40.8655 42.2855 40.2229 43.2113 39.3224 44.471C39.0088 44.9111 38.6445 45.4271 38.5079 45.6194C38.3713 45.8116 38.1639 46.1152 38.0476 46.2973L37.835 46.6262L37.6073 46.4339C37.3392 46.2113 36.8738 45.7358 36.6664 45.4727C36.2313 44.9314 35.9379 44.3597 35.8215 43.8387C35.7659 43.5958 35.7659 43.4743 35.8164 43.4593C35.8923 43.439 37.2431 43.1203 38.5079 42.8268C39.2111 42.665 40.0256 42.4727 40.319 42.4019C40.6125 42.331 40.8503 42.2754 40.8553 42.2754ZM41.5029 42.5233L41.6647 42.7054C42.3933 43.5199 43.137 44.122 44.0375 44.6481C44.1994 44.7392 44.3208 44.8201 44.3106 44.8252C44.2753 44.8505 41.1841 45.9482 39.7524 46.444C38.9481 46.7273 38.2853 46.9549 38.2803 46.9549C38.2753 46.9549 38.2297 46.9246 38.179 46.8892L38.088 46.8234L38.2347 46.611C38.7102 45.9229 39.3073 45.1692 40.6075 43.6009L41.5029 42.5233ZM45.54 45.412C45.545 45.4069 45.7676 45.4878 46.0408 45.5891C46.6986 45.837 47.2195 45.9938 47.9178 46.1709C48.7778 46.3884 50.0223 46.6009 50.7559 46.6616C50.8672 46.6717 50.9279 46.6818 50.9077 46.697C50.8722 46.7173 50.1286 46.9652 49.5822 47.1372C48.712 47.4103 46.056 48.1945 43.8908 48.8168C43.4911 48.9331 43.1471 49.0292 43.1268 49.0343C43.0763 49.0444 42.9093 48.9988 42.9093 48.9786C42.9093 48.9685 43.0307 48.8117 43.1774 48.6397C43.9059 47.7695 44.6294 46.7982 45.2314 45.8774C45.3983 45.6244 45.54 45.417 45.54 45.412ZM44.6496 45.4373C44.6546 45.4424 44.2955 46.0191 43.6682 47.0106C43.4 47.4305 43.1015 47.9061 42.9953 48.073C42.8941 48.2349 42.7423 48.4879 42.6563 48.6295L42.5096 48.8876L42.4337 48.8673C42.2516 48.8167 40.9717 48.3664 40.6327 48.2298C40.2128 48.0629 39.7777 47.8606 39.4539 47.6886C39.0492 47.471 38.5433 47.1472 38.5838 47.1371C38.5939 47.1321 39.287 46.9448 40.1217 46.7172C42.3376 46.1151 43.5669 45.7661 44.3713 45.5132C44.5181 45.4676 44.6445 45.4322 44.6496 45.4373ZM50.9481 46.9145H50.9531C50.9734 46.9651 50.1539 49.2417 49.8553 49.96C49.7896 50.1219 49.7644 50.1625 49.7289 50.1573C49.6429 50.1523 48.4541 49.9854 47.7305 49.8791C46.4709 49.6869 44.3562 49.3175 43.825 49.1961L43.7036 49.1709L44.4573 48.9988C46.0762 48.6345 46.8553 48.4372 47.6445 48.1944C48.6412 47.8909 49.6277 47.5114 50.6243 47.046C50.7811 46.9752 50.9127 46.9195 50.9481 46.9145Z" fill="#868788"/>
<path d="M47.1893 17.0003C47.078 16.9852 45.2819 17.6327 44.1235 18.1031C42.5602 18.7407 41.3461 19.3478 40.5973 19.8738C40.3191 20.0712 39.97 20.4202 39.9144 20.5568C39.8942 20.6074 39.884 20.6681 39.884 20.7288L40.5619 21.3713L42.1757 21.8873L46.0156 22.5754L50.4068 23.3292L50.4524 22.9498C50.4372 22.9498 50.427 22.9447 50.412 22.9447L49.8351 22.8536L49.7188 22.6462C49.1218 21.5939 48.4642 20.2887 48.0797 19.4084C47.7812 18.7254 47.4979 17.9363 47.3411 17.3696C47.255 17.0256 47.2448 17.0053 47.1893 17.0003ZM47.1082 17.2584H47.1134C47.1184 17.2633 47.1386 17.4051 47.1589 17.5719C47.2448 18.2803 47.4018 18.9632 47.6497 19.7018C47.8368 20.2583 47.8368 20.228 47.6193 20.1622C47.1033 20.0206 44.7913 19.6209 43.1168 19.3882C42.8486 19.3528 42.6209 19.3174 42.6209 19.3123C42.6007 19.2921 43.83 18.6496 44.3714 18.3967C45.0644 18.0779 46.9666 17.2836 47.1082 17.2584ZM42.2313 19.5248L42.4287 19.5905C43.5012 19.9548 46.1976 20.4708 47.685 20.5922C47.8519 20.6074 47.9936 20.6226 47.9986 20.6226C48.0036 20.6277 47.8621 20.7036 47.6799 20.7895C46.9616 21.1487 46.1724 21.5889 45.626 21.9279C45.4641 22.029 45.3173 22.11 45.2972 22.11C45.2769 22.11 45.1707 22.0897 45.0594 22.0746L44.8571 22.0442L44.3512 21.5483C43.4608 20.6833 42.7626 20.0155 42.4945 19.7625L42.2313 19.5248ZM42.029 19.6816L42.7423 20.572C43.1319 21.0627 43.5265 21.5433 43.6126 21.6495C43.6985 21.7558 43.7693 21.8419 43.7643 21.8469C43.7441 21.8621 42.7323 21.6647 42.196 21.5434C41.6445 21.4169 41.4169 21.3562 41.0779 21.25L40.7997 21.1589V21.088C40.8047 20.749 41.2348 20.2431 41.9633 19.7272L42.029 19.6816ZM48.0898 20.8958C48.11 20.8958 48.1353 20.9413 48.196 21.0779C48.368 21.4573 48.9043 22.4793 49.0357 22.6765C49.0763 22.7424 49.147 22.7474 48.4338 22.631C46.7188 22.3527 46.1673 22.2618 46.1673 22.2516C46.1673 22.2466 46.2179 22.2112 46.2837 22.1757C46.8149 21.8824 47.3511 21.508 47.8267 21.1083C47.9431 21.0121 48.0493 20.9211 48.0695 20.9059C48.0745 20.8958 48.0847 20.8907 48.0898 20.8958Z" fill="#868788"/>
<path d="M39.9497 20.486C39.9497 20.486 39.8384 20.6631 39.9447 20.9262C40.0105 21.088 40.2027 21.2853 40.4202 21.4877C40.4202 21.4877 42.6715 23.6833 42.9447 23.997C44.1892 25.4337 44.7305 26.8503 44.7811 28.8031C44.8115 30.0578 44.5736 31.1606 43.9818 32.4406C42.9295 34.7374 40.7085 37.272 37.2835 40.0849L37.7845 39.9179C38.1082 39.675 38.5484 39.4171 39.5804 38.8504C41.9632 37.5451 44.6445 36.3461 47.9329 35.1118C52.6681 33.3309 60.454 31.2465 64.8857 30.5687L65.3461 30.4978L65.2753 30.3865C64.8706 29.7592 64.5923 29.3697 64.2583 28.9548C63.2871 27.7508 62.1084 26.7744 60.6665 25.9649C58.6833 24.8571 56.1183 23.992 52.8705 23.3495C52.2584 23.228 50.9126 22.9953 49.8199 22.8284C47.5028 22.4693 46.0053 22.2213 44.3561 21.938C43.7643 21.8368 42.8788 21.685 42.292 21.5586C41.9885 21.4928 41.4067 21.3562 40.9514 21.1994C40.5872 21.0576 40.061 20.916 39.9497 20.486ZM41.255 21.7508C41.26 21.7458 41.3409 21.776 41.4472 21.8115C41.6395 21.8772 41.8873 21.9531 42.1808 22.0341C42.4029 22.0952 42.6255 22.1542 42.8486 22.2111C43.1521 22.287 43.4051 22.3578 43.4101 22.3578C43.4456 22.3933 43.9566 24.0272 44.1286 24.6546C44.1942 24.8924 44.2449 25.0947 44.2399 25.0947C44.2347 25.0999 44.1791 25.0138 44.1134 24.8975C43.5214 23.8553 42.5855 22.7979 41.5028 21.948C41.3613 21.8469 41.255 21.7558 41.255 21.7508ZM43.744 22.4388C43.7693 22.4388 43.8806 22.454 44.0172 22.4843C44.8772 22.6766 46.4203 22.97 47.4067 23.137C47.5737 23.1622 47.7053 23.1926 47.7053 23.2027C47.7053 23.2129 47.6445 23.2482 47.5686 23.2887C47.4017 23.3747 46.7288 23.7743 46.5063 23.9261C45.9447 24.3005 45.4388 24.7052 45.0745 25.0695C44.9278 25.2162 44.8013 25.3376 44.8013 25.3376C44.8013 25.3376 44.7711 25.2516 44.7456 25.1453C44.5636 24.4421 44.1841 23.3999 43.8401 22.6664C43.7845 22.5501 43.7389 22.4438 43.7389 22.4337C43.7389 22.4438 43.7389 22.4388 43.744 22.4388ZM48.1251 23.2736C48.1555 23.2836 48.2061 23.4557 48.3072 23.8351C48.4945 24.5687 48.5805 25.3882 48.5501 26.1521C48.54 26.3646 48.5299 26.5619 48.5197 26.5873L48.5046 26.6378L48.2415 26.5518C47.7002 26.3798 46.8199 26.1217 46.0662 25.9093C45.6361 25.7929 45.2871 25.6867 45.2871 25.6766C45.2871 25.6462 45.9144 25.0189 46.1825 24.7812C46.6934 24.3308 48.0796 23.2583 48.1251 23.2736ZM48.4742 23.3241C48.4894 23.309 50.5687 23.6681 51.5147 23.8502C52.218 23.9868 53.2399 24.1993 53.3006 24.2247C53.3309 24.2347 53.2246 24.2954 52.8857 24.4472C51.5501 25.0493 50.5585 25.5905 49.5721 26.2483C49.3141 26.4203 49.0965 26.5619 49.0915 26.5619C49.0864 26.5619 49.0814 26.4152 49.0814 26.2381C49.0814 25.2769 48.8891 24.3056 48.5349 23.486C48.4995 23.4051 48.4692 23.3292 48.4742 23.3241ZM53.852 24.3865C53.8672 24.4017 53.8014 24.8115 53.7407 25.0543C53.5586 25.8081 53.0679 26.9263 52.4659 27.9785C52.3596 28.1657 52.2635 28.3174 52.2533 28.3225C52.2433 28.3275 52.1066 28.2516 51.9498 28.1606C51.363 27.8165 50.6952 27.4928 49.9666 27.1892C49.7643 27.1032 49.5872 27.0324 49.5822 27.0223C49.5467 26.9919 51.1757 25.9143 52.0358 25.3983C52.7188 24.9835 53.8317 24.3663 53.852 24.3865ZM54.2364 24.4472C54.282 24.4472 55.2028 24.7002 55.6833 24.8419C56.8722 25.196 58.2381 25.6968 59.1285 26.1015L59.4978 26.2686L59.2399 26.3292C57.0645 26.83 55.2028 27.4068 53.4068 28.1353C53.26 28.196 53.1285 28.2466 53.1185 28.2466C53.1083 28.2466 53.1589 28.1303 53.2247 27.9886C53.766 26.8402 54.1151 25.6412 54.201 24.6192C54.2062 24.5231 54.2212 24.4472 54.2364 24.4472ZM45.0695 26.5518C45.0846 26.5366 45.7879 26.7036 46.1673 26.8097C46.744 26.9717 47.9683 27.3814 47.9683 27.4118C47.9683 27.4169 47.8317 27.5332 47.6699 27.6749C47.0072 28.2264 46.3697 28.8081 45.6057 29.5467C45.378 29.7643 45.1858 29.9414 45.1758 29.9414C45.1656 29.9414 45.1606 29.911 45.1656 29.8705C45.2819 29.0206 45.2567 27.9278 45.0948 26.8199C45.0796 26.6782 45.0644 26.5569 45.0695 26.5518ZM59.847 26.567C59.857 26.5771 59.5232 27.1032 59.3107 27.4017C59.0072 27.8367 58.5619 28.4136 57.5551 29.6783C57.024 30.3461 56.427 31.0999 56.2298 31.3529C56.0273 31.6058 55.8604 31.8182 55.8553 31.8182C55.8503 31.8182 55.7846 31.7272 55.7137 31.6159C55.1471 30.766 54.4691 30.0223 53.6647 29.3545C53.513 29.228 53.3461 29.0914 53.2904 29.0509C53.2348 29.0105 53.1892 28.97 53.1892 28.965C53.1892 28.9498 54.0492 28.5804 54.7019 28.3174C55.8453 27.852 57.4033 27.2955 58.572 26.9363C59.1842 26.7441 59.8368 26.5569 59.847 26.567ZM60.2365 26.6681C60.2567 26.6631 60.3782 26.7238 60.5249 26.8097C61.7543 27.513 62.9582 28.4186 63.9094 29.3495C64.1775 29.6126 64.8402 30.3006 64.8301 30.3056C64.8301 30.3056 64.5974 30.3259 64.3242 30.3461C62.1944 30.508 59.4676 30.9582 56.847 31.5906C56.6699 31.631 56.5131 31.6664 56.5029 31.6664C56.4929 31.6664 56.6902 31.4692 56.9381 31.2314C58.476 29.7491 59.1793 28.8132 60.0089 27.1437C60.1252 26.8958 60.2264 26.6833 60.2365 26.6681C60.2315 26.6681 60.2315 26.6681 60.2365 26.6681ZM48.97 27.8217C49.0409 27.8368 49.6985 28.1455 50.1943 28.3933C50.6496 28.6209 51.3326 28.9852 51.368 29.0155C51.3731 29.0206 51.1302 29.1471 50.8318 29.2938C49.8806 29.7693 49.0662 30.2195 48.2162 30.7356C47.9734 30.8823 47.771 31.0038 47.766 31.0038C47.7457 31.0038 47.7508 30.9835 47.8874 30.7356C48.3427 29.906 48.7069 28.9144 48.9144 27.9481C48.9346 27.8722 48.9548 27.8217 48.97 27.8217ZM48.3123 27.943C48.3275 27.9582 48.1555 28.5805 48.0493 28.9194C47.8418 29.5619 47.4928 30.3663 47.1538 30.9734C47.0728 31.115 46.9514 31.3224 46.8857 31.4388L46.7592 31.6411L46.4759 31.368C46.1471 31.0493 45.8789 30.852 45.535 30.6749C45.3983 30.6041 45.2921 30.5433 45.2921 30.5333C45.2921 30.4928 46.1572 29.7087 46.8199 29.142C47.2954 28.7322 48.2971 27.9279 48.3123 27.943ZM52.3343 29.5974L52.5823 29.7592C53.1487 30.1286 53.8165 30.6193 54.3276 31.0493C54.6159 31.287 55.1723 31.7879 55.2837 31.9093L55.3443 31.9752L54.9347 32.0915C52.6176 32.7339 50.8267 33.3056 48.7373 34.0746C48.5046 34.1606 48.3072 34.2314 48.292 34.2314C48.2618 34.2314 48.2364 34.2567 48.7575 33.7761C50.0932 32.5468 51.2769 31.1909 52.1572 29.8705L52.3343 29.5974ZM51.277 29.8604C51.287 29.8705 50.594 30.8469 50.1791 31.3983C49.6833 32.056 48.803 33.1589 48.1959 33.8772C47.9431 34.1758 47.7256 34.4236 47.7154 34.4287C47.7002 34.4338 47.6951 34.3579 47.6951 34.2415C47.6951 33.6293 47.5383 32.9767 47.2651 32.4203C47.1487 32.1876 47.1285 32.1319 47.1539 32.1066C47.25 32.0206 48.7221 31.1808 49.653 30.68C50.2803 30.3461 51.2617 29.8503 51.277 29.8604ZM44.8823 31.4287C44.8975 31.4287 45.0138 31.4894 45.1454 31.5603C45.4692 31.7373 45.7575 31.9346 46.0155 32.1471C46.0256 32.1572 45.8941 32.2635 45.7221 32.3899C45.2415 32.7339 44.513 33.2854 44.0881 33.6244C43.6428 33.9785 43.6277 33.9886 43.6783 33.9127C44.0122 33.4018 44.1791 33.1134 44.3562 32.7441C44.513 32.4153 44.6698 32.0257 44.7811 31.6868C44.8216 31.5401 44.8722 31.4287 44.8823 31.4287ZM46.5872 32.7643C46.6125 32.7593 46.6429 32.8048 46.7794 33.0072C47.0678 33.4371 47.2904 34.0139 47.3461 34.4793L47.3561 34.5806L46.6631 34.8487C45.4236 35.3293 44.2803 35.8049 43.5062 36.1589C43.2887 36.2602 42.9093 36.4422 42.6614 36.5637C42.4135 36.6901 42.2111 36.7863 42.2111 36.7812C42.2111 36.7762 42.3679 36.6598 42.5602 36.5181C44.0729 35.4204 45.3832 34.2163 46.3646 33.0122C46.4709 32.8857 46.567 32.7694 46.5771 32.7643L46.5872 32.7643ZM45.8031 32.9566C45.8233 32.9768 45.2466 33.6294 44.852 34.029C43.8756 35.0257 42.9093 35.8049 41.7103 36.5637C41.5585 36.6598 41.422 36.7458 41.4067 36.756C41.3713 36.7762 41.4168 36.7256 41.943 36.1539C42.2769 35.7947 42.5298 35.4912 42.8182 35.1168C43.0104 34.869 43.0459 34.8336 43.3242 34.6362C44.0679 34.0999 45.7828 32.9363 45.8031 32.9566Z" fill="#868788"/>
<path d="M23.8957 53.9046C23.8024 53.9046 23.709 53.9135 23.6166 53.9135C21.7316 54.0139 20.4602 54.8435 19.7169 56.4635C19.0811 57.9286 19.1505 59.8438 19.724 61.3179C20.3909 62.7583 21.4685 63.5185 23.2671 63.8056C23.6477 63.8679 23.9029 64.0769 24.6399 64.9375L25.5468 66H27.1917L26.098 64.8974C25.4934 64.2929 25.0044 63.7665 25.0044 63.7202C25.0044 63.674 25.2357 63.5727 25.5156 63.4873C26.4385 63.208 27.2049 62.495 27.7411 61.4023C28.175 60.5248 28.2373 60.2536 28.2995 59.1618C28.4622 55.9121 26.7488 53.8804 23.8956 53.9036L23.8957 53.9046ZM25.3378 62.4027C24.5376 62.7903 23.3757 62.8677 22.6172 62.5894C21.833 62.3014 21.0737 61.4869 20.7322 60.5649C20.3526 59.5567 20.4068 57.6967 20.8407 56.859C21.5387 55.5254 22.4616 54.9119 23.8104 54.9119C25.8109 54.9119 26.9489 56.1372 27.0974 58.4399C27.2148 60.3622 26.571 61.8044 25.3387 62.4019L25.3378 62.4027ZM53.7521 56.6804C53.0622 56.6804 52.534 56.9596 52.1783 57.5098L51.8992 57.9456V56.8128H50.7051V63.6057H51.8984V61.4344C51.8984 59.449 51.9231 59.217 52.2006 58.6737C52.583 57.9286 53.2408 57.5571 53.8766 57.7349L54.3034 57.8594V56.6822H53.7521V56.6804ZM46.737 56.6181C46.5031 56.6181 46.255 56.6493 46.008 56.7035C44.4102 57.1213 43.5095 58.6506 43.5646 60.2244C43.5646 61.5421 43.8206 62.2008 44.4565 62.8917C45.7591 63.9604 46.9371 64.0457 48.5268 63.4723C48.798 63.3567 49.0932 63.2234 49.0932 63.2234V62.1547L48.5268 62.4481C47.2402 63.0082 46.2711 63.0082 45.4948 62.3485C44.9997 61.8443 44.7818 61.2397 44.6814 60.5499H49.4959V59.634C49.4959 57.7668 48.3721 56.5879 46.7361 56.6181H46.737ZM44.7898 59.5966C44.7898 59.5966 44.9677 58.4319 45.6274 57.9749C45.9449 57.7508 46.3094 57.6424 46.6659 57.6424C47.0233 57.6424 47.3798 57.7579 47.6741 57.9829C48.2788 58.4479 48.3801 59.5878 48.3801 59.5878H44.7899L44.7898 59.5966ZM16.003 58.3715C14.7085 57.5873 14.1341 57.0217 14.2044 56.3549C14.4053 54.51 16.685 54.7652 17.9475 55.4632L17.9565 54.222C17.9565 54.222 17.2585 53.9197 16.2582 53.9037C14.7236 53.8806 13.7314 54.3838 13.2664 55.408C12.5835 56.9195 13.1882 58.0593 15.3737 59.3308C16.6006 60.0447 17.1429 60.6645 17.1429 61.3402C17.1429 62.7361 15.4599 63.2234 13.7234 62.3476C13.3661 62.1697 13.0637 62.0212 13.0478 62.0212C12.9855 62.4169 13.0176 63.3638 13.0176 63.3638C13.0176 63.3638 13.5511 63.5879 14.3512 63.7425C16.3356 64.1381 18.1415 63.2073 18.3122 61.6958C18.4607 60.2768 17.9475 59.5326 16.0031 58.3705L16.003 58.3715ZM64.3201 56.6021C64.0871 56.6021 63.8399 56.6341 63.5821 56.6884C61.9862 57.1062 61.0872 58.6356 61.1485 60.2093C61.1485 61.5252 61.4038 62.1778 62.0394 62.8677C63.3421 63.9374 64.5201 64.0235 66.1179 63.4492C66.3882 63.3337 66.6825 63.2022 66.6825 63.2022V62.1317L66.117 62.4268C64.8278 62.9852 63.8586 62.9852 63.0852 62.3255C62.5872 61.8222 62.3712 61.2247 62.2707 60.5267H67.0772V59.611C67.0772 57.7528 65.9533 56.5729 64.3174 56.604L64.3201 56.6021ZM62.3729 59.5807C62.3729 59.5807 62.5525 58.4177 63.2113 57.9517C63.5279 57.7269 63.8924 57.6183 64.2489 57.6183C64.6046 57.6183 64.9629 57.7339 65.2573 57.9597C65.8619 58.4248 65.9633 59.5726 65.9633 59.5726H62.3739L62.3729 59.5807ZM40.4865 58.3866C39.192 57.6042 38.6194 57.0369 38.6887 56.37C38.8896 54.5242 41.1694 54.7803 42.4319 55.4783L42.4409 54.2371C42.4409 54.2371 41.7429 53.9348 40.7426 53.9205C39.208 53.8974 38.2157 54.4007 37.7499 55.4249C37.068 56.9363 37.6805 58.0762 39.8589 59.3477C41.0841 60.0608 41.6264 60.6725 41.6264 61.3482C41.6264 62.7441 39.9442 63.2394 38.2078 62.3555C37.8521 62.1777 37.5499 62.031 37.5321 62.031C37.4698 62.4266 37.5019 63.3736 37.5019 63.3736C37.5019 63.3736 38.0291 63.5896 38.8266 63.7523C40.8129 64.1488 42.6196 63.2188 42.7894 61.7073C42.937 60.2954 42.4249 59.5512 40.4866 58.3882L40.4865 58.3866ZM71.3361 56.6644C70.6461 56.6644 70.1119 56.9444 69.7624 57.4948L69.4831 57.9287V56.7978H68.2891V63.5888H69.4822V61.4176C69.4822 59.4331 69.5062 59.2001 69.7846 58.6578C70.1669 57.9136 70.8248 57.5411 71.4605 57.7198L71.8872 57.8442V56.6644L71.3361 56.6644ZM30.9908 54.021H29.787V63.6039H34.8497V62.4721H30.9909L30.9908 54.021ZM58.8307 59.6962L57.8385 62.2782L56.8844 59.682L55.9153 56.8048H54.683C55.4815 59.0686 56.35 61.3713 57.2258 63.6039C57.6055 63.6128 57.986 63.6039 58.3656 63.6039L61.0704 56.8057H59.8923C59.8923 56.8057 59.3721 58.1696 58.8299 59.6971L58.8307 59.6962ZM33.7648 51.4096C33.9587 51.4096 34.1205 51.3475 34.2539 51.2141C34.3854 51.0825 34.4548 50.9278 34.4548 50.734C34.4548 50.5401 34.3854 50.3783 34.2539 50.2538C34.1205 50.1294 33.9666 50.067 33.7737 50.067C33.5782 50.067 33.4163 50.1294 33.2847 50.2609C33.1514 50.3925 33.0909 50.5544 33.0909 50.7411C33.0909 50.9367 33.1532 51.0985 33.2847 51.2213C33.4092 51.3456 33.571 51.4079 33.7648 51.4079V51.4096ZM33.3381 50.3072C33.4537 50.1916 33.5942 50.1382 33.7737 50.1382C33.9427 50.1382 34.0832 50.1916 34.2006 50.3072C34.3162 50.4228 34.3784 50.5632 34.3784 50.734C34.3784 50.9046 34.3162 51.0523 34.2006 51.1678C34.0833 51.2833 33.9427 51.3385 33.7737 51.3385C33.6022 51.3385 33.4625 51.2852 33.347 51.1678C33.2314 51.0523 33.1692 50.9046 33.1692 50.734C33.1692 50.5632 33.2225 50.4228 33.3381 50.3072ZM33.6252 50.7962H33.7035C33.7587 50.7962 33.8129 50.8495 33.8591 50.9509L33.9525 51.1607H34.0992L33.9836 50.9277C33.9365 50.8344 33.8903 50.7802 33.836 50.765C33.9045 50.749 33.9587 50.7259 33.9978 50.6796C34.0369 50.6397 34.0511 50.5854 34.0511 50.524C34.0511 50.4529 34.0289 50.3996 33.9819 50.3604C33.9285 50.316 33.8431 50.292 33.7328 50.292H33.4858V51.1607H33.6102V50.7962L33.6252 50.7962ZM33.7338 50.3925C33.812 50.3925 33.8671 50.4085 33.8974 50.4316C33.9267 50.4547 33.9347 50.485 33.9347 50.5401C33.9347 50.6406 33.8724 50.6878 33.7569 50.6878H33.6236V50.3925H33.7338ZM13.7393 50.7188C13.7393 50.4165 13.7305 50.1916 13.7233 50.0591H13.7305C13.7615 50.2155 13.7998 50.3321 13.8309 50.4094L14.9867 52.9914H15.1806L16.3364 50.3863C16.3676 50.3153 16.3987 50.2085 16.4369 50.06H16.4457C16.4227 50.3179 16.4147 50.5419 16.4147 50.7206V52.9994H16.8102V49.6119H16.3141L15.2517 51.968C15.2125 52.0613 15.1583 52.201 15.089 52.3859H15.0729C15.0498 52.2944 14.9956 52.1547 14.9182 51.984L13.8797 49.6038H13.3525V52.9913H13.733V50.7205L13.7393 50.7188ZM17.6772 50.7251H18.0187V52.8349H17.6772V50.7251ZM17.8479 49.9515C17.9191 49.9515 17.9795 49.9275 18.0257 49.8805C18.0729 49.8342 18.104 49.7737 18.104 49.7026C18.104 49.6333 18.0809 49.571 18.0267 49.5248C17.9787 49.4777 17.9173 49.4536 17.8471 49.4536C17.7778 49.4536 17.7155 49.4777 17.6692 49.5248C17.6222 49.571 17.591 49.6333 17.591 49.7026C17.591 49.78 17.615 49.8342 17.6692 49.8805C17.7227 49.9275 17.7777 49.9515 17.8471 49.9515H17.8479ZM20.4531 52.8812V52.5095C20.2663 52.6491 20.0654 52.7185 19.8573 52.7185C19.6085 52.7185 19.4065 52.6332 19.2589 52.4697C19.1123 52.3078 19.0341 52.0828 19.0341 51.8028C19.0341 51.5094 19.1123 51.2763 19.2741 51.0985C19.4297 50.9278 19.6316 50.8424 19.8788 50.8424C20.0806 50.8424 20.2743 50.9048 20.4531 51.0293V50.6336C20.2904 50.5483 20.1046 50.5091 19.8947 50.5091C19.507 50.5091 19.2048 50.6336 18.979 50.8738C18.7549 51.1138 18.6393 51.4401 18.6393 51.834C18.6393 52.1843 18.7398 52.4786 18.9488 52.7036C19.1666 52.9347 19.445 53.0521 19.7863 53.0521C20.0503 53.0448 20.2663 52.9896 20.4531 52.8812ZM21.4302 51.7565C21.4302 51.4782 21.4924 51.2533 21.608 51.0985C21.7165 50.9589 21.848 50.8887 22.0036 50.8887C22.1352 50.8887 22.2286 50.9127 22.297 50.9669V50.5632C22.2437 50.5401 22.1663 50.5322 22.0659 50.5322C21.9263 50.5322 21.8019 50.5791 21.6925 50.6655C21.5769 50.757 21.4844 50.8967 21.4302 51.0745H21.4213V50.5792H21.0346V52.9976H21.4222V51.7565H21.4302ZM23.6556 53.0456C24.0202 53.0456 24.3136 52.9283 24.5314 52.6954C24.7483 52.4641 24.8568 52.153 24.8568 51.7652C24.8568 51.3697 24.7573 51.0674 24.5545 50.8423C24.3536 50.6175 24.0744 50.5089 23.7098 50.5089C23.3452 50.5089 23.0518 50.6174 22.834 50.8272C22.6011 51.0585 22.4784 51.3848 22.4784 51.8036C22.4784 52.1681 22.578 52.4704 22.7879 52.6954C23.0047 52.9283 23.292 53.0447 23.6556 53.0447V53.0456ZM23.1044 51.0754C23.252 50.9198 23.4459 50.8424 23.6858 50.8424C23.9349 50.8424 24.1216 50.9198 24.2603 51.0754C24.3998 51.2381 24.4692 51.4702 24.4692 51.7805C24.4692 52.0756 24.407 52.3077 24.2753 52.4633C24.1438 52.626 23.95 52.7122 23.6938 52.7122C23.4449 52.7122 23.252 52.6259 23.1044 52.4633C22.9577 52.2997 22.8874 52.0756 22.8874 51.7805C22.8724 51.4871 22.9497 51.247 23.1044 51.0754ZM26.5542 52.8349C26.7017 52.7034 26.7801 52.5416 26.7801 52.3388C26.7801 52.1609 26.7177 52.0134 26.6022 51.8969C26.5079 51.8036 26.3622 51.7191 26.1514 51.6337C25.9646 51.5556 25.8491 51.4861 25.7868 51.4319C25.7246 51.3697 25.6864 51.2924 25.6864 51.183C25.6864 51.0825 25.7255 51.0051 25.802 50.9429C25.8803 50.8807 25.9799 50.8505 26.1132 50.8505C26.3222 50.8505 26.5008 50.9056 26.6644 51.0221V50.6344C26.5079 50.5563 26.3381 50.5189 26.1443 50.5189C25.8954 50.5189 25.6855 50.5874 25.5307 50.7198C25.368 50.8515 25.2907 51.0222 25.2907 51.223C25.2907 51.4008 25.344 51.5485 25.4453 51.6569C25.5307 51.7494 25.6766 51.8437 25.8792 51.9281C26.0731 52.0135 26.2047 52.0907 26.2749 52.1529C26.3442 52.2153 26.3753 52.2925 26.3753 52.3842C26.3753 52.61 26.2207 52.7265 25.9184 52.7265C25.6854 52.7265 25.4765 52.65 25.2897 52.4954V52.9131C25.4587 53.0146 25.6614 53.0608 25.8854 53.0608C26.1726 53.0457 26.3975 52.9755 26.5523 52.8358L26.5542 52.8349ZM28.4 50.509C28.0354 50.509 27.742 50.6175 27.5242 50.8273C27.293 51.0586 27.1685 51.3849 27.1685 51.8037C27.1685 52.1682 27.2691 52.4705 27.478 52.6955C27.6958 52.9283 27.9821 53.0448 28.3466 53.0448C28.72 53.0448 29.0046 52.9275 29.2224 52.6945C29.4402 52.4634 29.5487 52.1522 29.5487 51.7645C29.5487 51.3688 29.4473 51.0666 29.2464 50.8416C29.0366 50.6166 28.7573 50.5081 28.4017 50.5081L28.4 50.509ZM29.1521 51.7805C29.1521 52.0756 29.0899 52.3077 28.9583 52.4633C28.8267 52.626 28.6329 52.7122 28.3768 52.7122C28.1277 52.7122 27.9349 52.626 27.7872 52.4633C27.6406 52.2997 27.5703 52.0756 27.5703 51.7805C27.5703 51.4693 27.6477 51.2293 27.8033 51.0674C27.95 50.9127 28.1439 50.8344 28.3848 50.8344C28.6248 50.8344 28.8178 50.9126 28.9573 51.0674C29.0819 51.2381 29.1512 51.4702 29.1512 51.7805H29.1521ZM30.1996 52.9905H30.5863V50.8967H31.1527V50.5713H30.5863V50.1978C30.5863 49.8583 30.7178 49.6875 30.9899 49.6875C31.0815 49.6875 31.1749 49.7106 31.2443 49.7498V49.4004C31.1749 49.3693 31.0815 49.3622 30.965 49.3622C30.7561 49.3622 30.5854 49.4245 30.4457 49.556C30.283 49.7107 30.1968 49.9117 30.1968 50.1838V50.5804H29.7877V50.9058H30.1968V52.9917L30.1996 52.9905ZM31.7883 52.3308C31.7883 52.8039 31.9974 53.0448 32.4241 53.0448C32.5788 53.0448 32.6953 53.0199 32.7886 52.9648V52.6323C32.7175 52.6857 32.633 52.7106 32.5397 52.7106C32.4082 52.7106 32.3157 52.6793 32.2614 52.6091C32.2063 52.5399 32.1752 52.4224 32.1752 52.2606V50.8958H32.7886V50.5704H32.1752V49.8574C32.0418 49.9036 31.9111 49.9427 31.7875 49.9818V50.5703H31.3696V50.8958H31.7875V52.3299L31.7883 52.3308ZM73.3988 56.7888C73.2672 56.6644 73.1116 56.6021 72.9187 56.6021C72.7232 56.6021 72.5613 56.6644 72.4297 56.7977C72.2981 56.9284 72.2358 57.0911 72.2358 57.2779C72.2358 57.4717 72.2981 57.6335 72.4287 57.7579C72.5604 57.8824 72.7221 57.9447 72.9178 57.9447C73.1107 57.9447 73.2734 57.8824 73.4068 57.7508C73.5375 57.6175 73.6068 57.4637 73.6068 57.2708C73.5997 57.0752 73.5295 56.9133 73.3979 56.7889L73.3988 56.7888ZM73.3366 57.7046C73.221 57.8202 73.0805 57.8735 72.9098 57.8735C72.7409 57.8735 72.6004 57.8202 72.4831 57.7046C72.3675 57.5873 72.3052 57.4406 72.3052 57.2689C72.3052 57.1 72.3585 56.9596 72.4759 56.8422C72.5915 56.7267 72.7312 56.6732 72.9098 56.6732C73.0788 56.6732 73.2193 56.7267 73.3366 56.8422C73.4521 56.9596 73.5144 57.1 73.5144 57.2689C73.5144 57.4486 73.461 57.5873 73.3366 57.7046ZM72.988 57.3089C73.0574 57.293 73.1125 57.2618 73.1508 57.2236C73.1899 57.1836 73.2042 57.1293 73.2042 57.0672C73.2042 56.9978 73.1819 56.9427 73.1348 56.9045C73.0815 56.86 72.9953 56.836 72.886 56.836H72.6388V57.7037H72.7633V57.3392H72.8406C72.894 57.3392 72.9474 57.3925 72.9953 57.4939L73.0877 57.7028H73.2354L73.1198 57.4698C73.0798 57.3684 73.0335 57.3221 72.9865 57.307L72.988 57.3089ZM72.9027 57.2308H72.7693V56.9374H72.8787C72.9561 56.9374 73.0103 56.9515 73.0415 56.9756C73.0725 56.9987 73.0797 57.029 73.0797 57.0841C73.0797 57.1846 73.0182 57.2308 72.9027 57.2308ZM51.2715 50.4708H51.38V49.6021H51.6671V49.4937H50.9844V49.6021H51.2716L51.2715 50.4708ZM51.9295 49.8182C51.9295 49.7337 51.9295 49.6643 51.9232 49.6253C51.9304 49.6715 51.9463 49.7027 51.9535 49.7258L52.2869 50.4708H52.3403L52.6745 49.7186C52.6835 49.6955 52.6906 49.6652 52.7057 49.6253C52.6985 49.7027 52.6985 49.7648 52.6985 49.812V50.47H52.8142V49.4937H52.6745L52.3723 50.1676C52.3652 50.1917 52.3411 50.2387 52.326 50.2921H52.3171C52.3109 50.2609 52.2949 50.2299 52.2727 50.1766L51.9704 49.4937H51.8139V50.4718H51.9232V49.8192L51.9295 49.8182Z" fill="#868788"/>
</svg>
